<?xml version="1.0" encoding="utf-8"?>
<!-- Generator: Adobe Illustrator 16.0.0, SVG Export Plug-In . SVG Version: 6.00 Build 0)  -->
<!DOCTYPE svg PUBLIC "-//W3C//DTD SVG 1.1//EN" "http://www.w3.org/Graphics/SVG/1.1/DTD/svg11.dtd">
<svg version="1.1" id="Layer_1" xmlns="http://www.w3.org/2000/svg" xmlns:xlink="http://www.w3.org/1999/xlink" x="0px" y="0px"
	 width="188px" height="188px" viewBox="0 0 188 188" enable-background="new 0 0 188 188" xml:space="preserve">
<g>
	
		<image overflow="visible" opacity="0.4" width="432" height="651" xlink:href="A5B92B59.png"  transform="matrix(0.24 0 0 0.24 46.2676 19.9277)">
	</image>
	<g>
		<g>
			<g>
				<path fill="#E0E2DB" d="M67.156,143.14c-4.221-5.962-6.71-13.237-6.71-21.099c0-6.684,1.802-12.942,4.933-18.334
					c-0.845-0.81-1.663-1.647-2.444-2.52c-3.656,4.604-9.317,14.929-7.939,33.762c1.099,15.016,7.038,17.605,12.169,16.892
					C67.008,148.915,67.033,145.936,67.156,143.14z"/>
				<path fill="#E0E2DB" d="M128.656,103.707c3.131,5.392,4.933,11.65,4.933,18.334c0,8.153-2.671,15.682-7.183,21.764
					c0.098,2.575,0.108,5.287-0.031,7.956c5.238,0.948,11.531-1.311,12.665-16.812c1.378-18.833-4.283-29.158-7.939-33.762
					C130.319,102.06,129.501,102.897,128.656,103.707z"/>
				<path fill="#E0E2DB" d="M70.797,33.197c-1.971-2.381-4.947-3.898-8.279-3.898c-5.933,0-10.742,4.811-10.742,10.742
					c0,3.783,1.961,7.104,4.918,9.018C60.094,42.729,64.945,37.299,70.797,33.197z"/>
				<path fill="#E0E2DB" d="M137.061,48.547c2.549-1.964,4.199-5.039,4.199-8.506c0-5.932-4.81-10.742-10.742-10.742
					c-3.121,0-5.924,1.34-7.887,3.467C128.598,36.805,133.555,42.218,137.061,48.547z"/>
				<path fill="#FFFFFF" d="M97.018,95.973c-1.072,2.386-2.731,4.442-4.793,6.002c0.23,0.008,0.453,0.025,0.689,0.025h6.549
					c0.752,0,1.484-0.053,2.205-0.131C99.671,100.322,98.064,98.304,97.018,95.973z"/>
				<path opacity="0.5" fill="#525E66" d="M97.018,95.973c-1.072,2.386-2.731,4.442-4.793,6.002c0.23,0.008,0.453,0.025,0.689,0.025
					h6.549c0.752,0,1.484-0.053,2.205-0.131C99.671,100.322,98.064,98.304,97.018,95.973z"/>
				<path fill="#EBEBEC" d="M67.431,89.641c0,8.547,6.929,15.475,15.475,15.475c3.504,0,6.725-1.178,9.319-3.141
					c2.062-1.56,3.721-3.616,4.793-6.002c1.047,2.331,2.653,4.35,4.65,5.896c2.617,2.027,5.893,3.246,9.46,3.246
					c8.546,0,15.477-6.928,15.477-15.475s-6.931-15.477-15.477-15.477c-0.791,0-1.562,0.078-2.321,0.192
					c0.213,0.672,0.322,1.367,0.322,2.071c0,4.12-7.968,12.619-12.507,12.619c-4.54,0-12.507-8.499-12.507-12.619
					c0-0.744,0.117-1.479,0.354-2.185c-0.515-0.052-1.036-0.079-1.564-0.079C74.359,74.164,67.431,81.094,67.431,89.641z"/>
				<path fill="#353A42" d="M96.622,89.047c4.539,0,12.507-8.499,12.507-12.619c0-0.704-0.109-1.399-0.322-2.071
					c-1.029-3.258-4.677-5.919-12.185-5.919c-7.421,0-11.073,2.6-12.152,5.806c-0.237,0.706-0.354,1.44-0.354,2.185
					C84.115,80.548,92.082,89.047,96.622,89.047z"/>
				<path fill="#353A42" d="M74.271,64.14c0.549-1.761,2.057-3.304,4.362-3.304c1.738,0,2.813,0.854,3.3,2.014
					c0.33-0.652,0.521-1.389,0.521-2.17c0-2.665-2.16-4.824-4.824-4.824c-2.663,0-4.825,2.159-4.825,4.824
					C72.805,62.037,73.369,63.264,74.271,64.14z"/>
				<path fill="#353A42" d="M114.168,60.836c2.304,0,3.813,1.543,4.361,3.304c0.901-0.876,1.468-2.103,1.468-3.46
					c0-2.665-2.16-4.824-4.825-4.824c-2.666,0-4.824,2.159-4.824,4.824c0,0.781,0.188,1.518,0.519,2.17
					C111.353,61.689,112.428,60.836,114.168,60.836z"/>
				<path fill="#FFFFFF" d="M126.406,143.805c4.512-6.082,7.183-13.61,7.183-21.764c0-6.684-1.802-12.942-4.933-18.334
					c0.845-0.81,1.663-1.647,2.444-2.52c7.252-8.096,11.667-18.785,11.667-30.51c0-8.029-2.074-15.571-5.707-22.131
					c-3.506-6.329-8.463-11.742-14.43-15.781c-7.309-4.947-16.123-7.838-25.613-7.838c-9.758,0-18.795,3.064-26.221,8.27
					c-5.852,4.102-10.703,9.531-14.104,15.861c-3.459,6.438-5.426,13.799-5.426,21.619c0,11.725,4.415,22.414,11.667,30.51
					c0.781,0.872,1.6,1.71,2.444,2.52c-3.131,5.392-4.933,11.65-4.933,18.334c0,7.861,2.489,15.137,6.71,21.099
					c-0.123,2.796-0.148,5.775,0.008,8.701c0.186,3.484,0.629,6.89,1.479,9.805c0,0-8.322-0.646-8.322,7.354h31.947
					c0,0-0.326-5.858,0.797-10.604c1.299,0.14,2.617,0.216,3.953,0.216c1.169,0,2.324-0.061,3.465-0.168
					c1.109,4.737,0.785,10.556,0.785,10.556h31.947c0-8-8.322-7.354-8.322-7.354c0.856-2.937,1.3-6.372,1.482-9.885
					C126.515,149.092,126.504,146.38,126.406,143.805z M115.172,55.855c2.665,0,4.825,2.159,4.825,4.824
					c0,1.357-0.566,2.584-1.468,3.46c-0.549-1.761-2.058-3.304-4.361-3.304c-1.74,0-2.815,0.854-3.302,2.014
					c-0.331-0.652-0.519-1.389-0.519-2.17C110.348,58.015,112.506,55.855,115.172,55.855z M96.622,68.438
					c7.508,0,11.155,2.661,12.185,5.919c0.76-0.114,1.53-0.192,2.321-0.192c8.546,0,15.477,6.93,15.477,15.477
					s-6.931,15.475-15.477,15.475c-3.567,0-6.843-1.219-9.46-3.246c-0.721,0.078-1.453,0.131-2.205,0.131h-6.549
					c-0.236,0-0.459-0.018-0.689-0.025c-2.595,1.963-5.815,3.141-9.319,3.141c-8.546,0-15.475-6.928-15.475-15.475
					s6.929-15.477,15.475-15.477c0.528,0,1.05,0.027,1.564,0.079C85.549,71.037,89.201,68.438,96.622,68.438z M77.63,55.855
					c2.664,0,4.824,2.159,4.824,4.824c0,0.781-0.19,1.518-0.521,2.17c-0.487-1.16-1.562-2.014-3.3-2.014
					c-2.306,0-3.813,1.543-4.362,3.304c-0.902-0.876-1.467-2.103-1.467-3.46C72.805,58.015,74.967,55.855,77.63,55.855z"/>
			</g>
			<path opacity="0.3" fill="#FFFFFF" d="M142.768,70.678c0-8.029-2.074-15.571-5.707-22.131c2.549-1.964,4.199-5.039,4.199-8.506
				c0-5.932-4.81-10.742-10.742-10.742c-3.121,0-5.924,1.34-7.887,3.467c-7.309-4.947-16.123-7.838-25.613-7.838
				c-0.025,0-0.049,0.001-0.074,0.002V158.61c0.025,0,0.049,0.002,0.074,0.002c1.169,0,2.324-0.061,3.465-0.168
				c1.109,4.737,0.785,10.556,0.785,10.556h31.947c0-8-8.322-7.354-8.322-7.354c0.856-2.937,1.3-6.372,1.482-9.885
				c5.238,0.948,11.531-1.311,12.665-16.812c1.378-18.833-4.283-29.158-7.939-33.762C138.353,93.092,142.768,82.402,142.768,70.678z
				"/>
		</g>
	</g>
</g>
</svg>
