<?xml version="1.0" encoding="utf-8"?>
<!-- Generator: Adobe Illustrator 16.0.0, SVG Export Plug-In . SVG Version: 6.00 Build 0)  -->
<!DOCTYPE svg PUBLIC "-//W3C//DTD SVG 1.1//EN" "http://www.w3.org/Graphics/SVG/1.1/DTD/svg11.dtd">
<svg version="1.1" id="Layer_1" xmlns="http://www.w3.org/2000/svg" xmlns:xlink="http://www.w3.org/1999/xlink" x="0px" y="0px"
	 width="188px" height="188px" viewBox="0 0 188 188" enable-background="new 0 0 188 188" xml:space="preserve">
<g>
	
		<image overflow="visible" opacity="0.4" width="543" height="648" xlink:href="40A94D74.png"  transform="matrix(0.24 0 0 0.24 33.7764 22.5684)">
	</image>
	<g>
		<g>
			<path fill="#865529" d="M119.316,125.396c0,0,42.627-20.662,37.294-45.029s-36.968-19.98-46.817,13.326
				S119.316,125.396,119.316,125.396z"/>
			<g>
				<path fill="#CF7228" d="M55.313,145.543c-2.024-4.542-3.158-9.568-3.158-14.862c0-8.302,2.771-15.954,7.432-22.093
					c-1.095-0.906-2.146-1.862-3.152-2.865c-4.51,4.03-11.197,13.236-14.015,33.477c-2.222,15.964,4.483,19.737,10.81,18.082
					C52.395,152.835,53.727,148.657,55.313,145.543z"/>
				<path fill="#CF7228" d="M124.35,157.312c0.795,0.198,1.592,0.31,2.377,0.322c-0.783-0.023-1.58-0.146-2.369-0.353
					C124.355,157.291,124.352,157.301,124.35,157.312z"/>
				<path fill="#DB8538" d="M55.313,145.543c-1.586,3.114-2.918,7.292-2.084,11.738c0.475,2.524,1.646,5.135,3.87,7.685
					c0,0-18.813-5.966-18.313,6.034h46.5l0.593-3.869C72.205,166.076,60.643,157.509,55.313,145.543z"/>
				<path fill="#DB8538" d="M91.574,167.136L92.165,171h0.134l-0.66-3.869C91.617,167.133,91.596,167.134,91.574,167.136z"/>
				<path fill="#DB8538" d="M129.754,163.484c-4.139-0.019-8.336,1.162-9.223,1.427c-0.016,0.019-0.029,0.036-0.045,0.055
					C120.486,164.966,125.139,163.492,129.754,163.484z"/>
				<path fill="#865529" d="M90.181,167.217c-0.025,0.001-0.052,0.002-0.077,0.003C90.129,167.219,90.155,167.218,90.181,167.217z"
					/>
				<path fill="#865529" d="M88.926,119c-0.094,2-2.203,4.311-4.603,4.363c-0.186,0.005-0.452,0.022-0.64,0.027
					c-2.454,0.062-4.522-1.819-4.64-4.272c-0.018-0.369-0.034-0.733-0.052-1.103c-7.26-1.573-13.881-4.859-19.406-9.43
					c-4.661,6.139-7.432,13.792-7.432,22.094c0,5.294,1.134,10.32,3.158,14.863c5.33,11.965,16.893,20.533,30.566,21.588
					c0.939,0.072,1.915,0.121,2.875,0.121c0.073,0,0.246-0.005,0.246-0.005V119C89,119,88.932,119,88.926,119z"/>
				<path fill="#DB8538" d="M88.926,119.063c0.006,0,0.012,0,0.018,0V118.9C88.943,118.956,88.928,119.008,88.926,119.063z"/>
				<path fill="#DB8538" d="M99.539,28.865c0.428,0.104,0.856,0.206,1.28,0.321C100.396,29.07,99.967,28.969,99.539,28.865z"/>
				<path fill="#DB8538" d="M123.296,35.685c-0.024-0.001-0.046-0.004-0.07-0.004c-2.101,0-3.979,0.931-5.263,2.396
					c0.012,0.011,0.025,0.02,0.037,0.03C119.271,36.639,121.205,35.703,123.296,35.685z"/>
				<path fill="#DB8538" d="M78.992,118.02c-0.107-2.272-0.211-4.544-0.317-6.816c-5.244-1.876-8.962-5.186-9.745-9.066
					c-6.15-2.166-10.567-8.013-10.567-14.903c0-8.736,7.083-15.818,15.814-15.818c1.733,0,3.396,0.289,4.956,0.804
					c0.814-3.969,4.769-5.013,9.499-5.013c0.114,0,0.368,0.004,0.368,0.005V27.573c3,0.017,6.747,0.411,9.971,1.144
					c-3.285-0.75-6.719-1.148-10.23-1.148c-11.105,0-21.292,3.959-29.216,10.539c-1.284-1.484-3.179-2.427-5.296-2.427
					c-3.865,0-7.001,3.134-7.001,7c0,2.416,1.223,4.546,3.084,5.804c-4.634,7.153-7.335,15.676-7.335,24.833
					c0,12.663,5.145,24.122,13.457,32.405c1.006,1.003,2.058,1.959,3.152,2.865C65.111,113.158,71.732,116.446,78.992,118.02z
					 M68.674,58.969c0.627-3.142,3.679-5.182,6.818-4.556c3.143,0.626,5.182,3.677,4.559,6.819c-0.627,3.142-3.679,5.181-6.82,4.556
					C70.088,65.163,68.05,62.109,68.674,58.969z"/>
				<path fill="#DB8538" d="M74.177,103.048c-1.842,0-3.603-0.331-5.247-0.911c0.783,3.881,4.501,7.19,9.745,9.066
					c-0.136-2.903-0.271-5.807-0.405-8.709C76.962,102.844,75.595,103.048,74.177,103.048z"/>
				<path opacity="0.3" fill="#865529" d="M74.177,103.048c-1.842,0-3.603-0.331-5.247-0.911c0.783,3.881,4.501,7.19,9.745,9.066
					c-0.136-2.903-0.271-5.807-0.405-8.709C76.962,102.844,75.595,103.048,74.177,103.048z"/>
				<path fill="#FFFFFF" d="M89,118.295V94.348c0-0.22-0.266-0.43-0.367-0.654c-1.928,4.295-5.726,7.563-10.35,8.801
					c0.135,2.902,0.264,5.806,0.398,8.709c0.106,2.272,0.207,4.544,0.314,6.816c0.018,0.369,0.032,0.737,0.05,1.106
					c0.117,2.453,2.185,4.342,4.639,4.28c0.188-0.005,0.454-0.007,0.64-0.012c2.398-0.053,4.535-1.953,4.631-4.332
					C88.957,119.008,89,118.956,89,118.9C89,118.698,89,118.497,89,118.295z"/>
				<path fill="#865529" d="M78.27,102.494c4.623-1.237,8.436-4.506,10.363-8.801C88.734,93.918,89,94.128,89,94.348v-10.92
					c0,0.023-0.273,0.042-0.368,0.042c-1.801,0-9.647-4.314-9.647-9.634c0-0.59,0.055-1.122,0.156-1.617
					c-1.561-0.515-3.228-0.804-4.961-0.804c-8.73,0-15.815,7.082-15.815,15.818c0,6.891,4.417,12.737,10.567,14.903
					c1.644,0.58,3.404,0.911,5.246,0.911C75.596,103.048,76.962,102.844,78.27,102.494z M65.309,84.597c-0.553,0-1-0.447-1-1
					c0-0.552,0.447-1,1-1s1,0.448,1,1C66.309,84.149,65.861,84.597,65.309,84.597z M67.309,94.597c-0.553,0-1-0.447-1-1
					c0-0.552,0.447-1,1-1s1,0.448,1,1C68.309,94.149,67.861,94.597,67.309,94.597z M72.309,80.597c-0.553,0-1-0.447-1-1
					c0-0.552,0.447-1,1-1s1,0.448,1,1C73.309,80.149,72.861,80.597,72.309,80.597z M73.309,87.597c0-0.552,0.447-1,1-1s1,0.448,1,1
					c0,0.553-0.447,1-1,1S73.309,88.149,73.309,87.597z"/>
				<path fill="#353A42" d="M88.632,83.47c0.095,0,0.368-0.019,0.368-0.042V67.211c0-0.001-0.254-0.005-0.368-0.005
					c-4.73,0-8.671,1.044-9.484,5.013c-0.102,0.495-0.155,1.027-0.155,1.617C78.992,79.155,86.831,83.47,88.632,83.47z"/>
				<path fill="#FFFFFF" d="M73.23,65.788c3.142,0.625,6.193-1.414,6.82-4.556c0.623-3.143-1.416-6.193-4.559-6.819
					c-3.14-0.626-6.191,1.414-6.818,4.556C68.05,62.109,70.088,65.163,73.23,65.788z M70.771,59.386
					c0.394-1.983,2.322-3.272,4.304-2.878c1.986,0.395,3.275,2.322,2.88,4.307c-0.051,0.254-0.127,0.494-0.223,0.723
					c-0.462-0.619-1.186-1.096-2.224-1.303c-1.868-0.369-3.402,0.426-4.35,1.637C70.752,61.141,70.593,60.268,70.771,59.386z"/>
				<path fill="#353A42" d="M75.508,60.234c1.038,0.207,1.762,0.684,2.224,1.303c0.096-0.229,0.172-0.469,0.223-0.723
					c0.396-1.984-0.894-3.912-2.88-4.307c-1.981-0.395-3.91,0.895-4.304,2.878c-0.178,0.882-0.019,1.755,0.388,2.485
					C72.105,60.66,73.64,59.865,75.508,60.234z"/>
				<circle fill="#CF7228" cx="72.309" cy="79.597" r="1"/>
				<circle fill="#CF7228" cx="65.309" cy="83.597" r="1"/>
				<circle fill="#CF7228" cx="74.309" cy="87.597" r="1"/>
				<circle fill="#CF7228" cx="67.309" cy="93.597" r="1"/>
				<path opacity="0.3" fill="#FFFFFF" d="M90.181,167.217c0.475-0.02,0.931-0.047,1.394-0.081l-0.002-0.005
					C91.11,167.166,90.646,167.196,90.181,167.217z"/>
				<path opacity="0.3" fill="#FFFFFF" d="M138.665,171h0.134c0.252-6.033-4.378-7.523-9.045-7.516
					C134.375,163.505,138.914,165.025,138.665,171z"/>
				<path opacity="0.3" fill="#FFFFFF" d="M156.61,80.367c-2.751-12.569-12.501-17.467-22.649-14.712
					c-1.057-6.243-3.374-12.058-6.686-17.171c1.861-1.258,3.084-3.388,3.084-5.804c0-3.866-3.133-7-7-7
					c-0.021,0-0.042,0.003-0.063,0.004c3.833,0.038,6.93,3.153,6.93,6.996c0,2.416-1.224,4.546-3.085,5.804
					c4.634,7.153,7.335,15.676,7.335,24.833c0,12.663-5.146,24.122-13.458,32.405c4.51,4.03,11.197,13.236,14.015,33.477
					c1.929,13.855-2.868,18.524-8.306,18.435c5.492,0.17,10.385-4.465,8.439-18.435c-1.175-8.443-3.024-14.962-5.107-19.99
					C142.297,111.299,160.177,96.662,156.61,80.367z"/>
				<path opacity="0.3" fill="#FFFFFF" d="M120.353,164.966c0,0,0.067-0.021,0.179-0.055c2.185-2.522,3.344-5.103,3.818-7.6
					c-0.042-0.011-0.085-0.02-0.127-0.03C123.748,159.806,122.576,162.416,120.353,164.966z"/>
				<path opacity="0.3" fill="#FFFFFF" d="M117.963,38.077c-4.932-4.087-10.769-7.156-17.144-8.891
					c6.366,1.741,12.178,4.821,17.114,8.921C117.943,38.097,117.953,38.088,117.963,38.077z"/>
				<path opacity="0.3" fill="#FFFFFF" d="M88.943,167.247c0.413-0.003,0.792-0.013,1.16-0.027
					C89.719,167.236,89.332,167.244,88.943,167.247L88.943,167.247z"/>
				<path opacity="0.3" fill="#FFFFFF" d="M98.943,28.717c0.199,0.046,0.396,0.1,0.596,0.148
					C99.34,28.816,99.143,28.762,98.943,28.717z"/>
				<path fill="#CF7228" d="M135.032,139.199c-2.817-20.24-9.505-29.446-14.015-33.477c-1.006,1.003-2.058,1.959-3.152,2.865
					c4.661,6.139,7.432,13.791,7.432,22.093c0,5.294-1.134,10.32-3.158,14.862c1.586,3.114,2.918,7.292,2.084,11.738
					c0.042,0.011,0.085,0.02,0.127,0.03c0.002-0.011,0.006-0.021,0.008-0.03c0.789,0.207,1.586,0.329,2.369,0.353
					C132.164,157.724,136.961,153.055,135.032,139.199z"/>
				<path opacity="0.3" fill="#FFFFFF" d="M135.032,139.199c-2.817-20.24-9.505-29.446-14.015-33.477
					c-1.006,1.003-2.058,1.959-3.152,2.865c4.661,6.139,7.432,13.791,7.432,22.093c0,5.294-1.134,10.32-3.158,14.862
					c1.586,3.114,2.918,7.292,2.084,11.738c0.042,0.011,0.085,0.02,0.127,0.03c0.002-0.011,0.006-0.021,0.008-0.03
					c0.789,0.207,1.586,0.329,2.369,0.353C132.164,157.724,136.961,153.055,135.032,139.199z"/>
				<path fill="#DB8538" d="M124.223,157.281c0.834-4.446-0.285-8.624-1.87-11.738C117.021,157.509,105,166.076,92,167.131v0.005
					c0-0.002-0.17-0.003-0.147-0.005L92.299,171h46.366c0.249-5.975-4.29-7.495-8.911-7.516c-4.615,0.008-9.268,1.481-9.268,1.481
					c0.016-0.019,0.029-0.036,0.045-0.055c-0.111,0.033-0.179,0.055-0.179,0.055C122.576,162.416,123.748,159.806,124.223,157.281z"
					/>
				<path opacity="0.3" fill="#FFFFFF" d="M124.223,157.281c0.834-4.446-0.285-8.624-1.87-11.738
					C117.021,157.509,105,166.076,92,167.131v0.005c0-0.002-0.17-0.003-0.147-0.005L92.299,171h46.366
					c0.249-5.975-4.29-7.495-8.911-7.516c-4.615,0.008-9.268,1.481-9.268,1.481c0.016-0.019,0.029-0.036,0.045-0.055
					c-0.111,0.033-0.179,0.055-0.179,0.055C122.576,162.416,123.748,159.806,124.223,157.281z"/>
				<path fill="#865529" d="M122.139,145.543c2.024-4.542,3.158-9.568,3.158-14.862c0-8.302-2.771-15.954-7.432-22.093
					c-5.568,4.604-12.246,7.91-19.571,9.47c-0.007,0.155-0.015,0.31-0.022,0.465c-0.123,2.611-2.197,4.625-4.82,4.564
					c-2.352-0.057-4.079-1.777-4.41-4.026c-0.023,0-0.041,0.001-0.041,0.002v48.185c0-0.003,0.747-0.011,1.132-0.027
					c0.025-0.001,0.038-0.002,0.063-0.003c0.465-0.021,0.922-0.051,1.385-0.086C105.254,166.076,116.809,157.509,122.139,145.543z"
					/>
				<path opacity="0.3" fill="#FFFFFF" d="M122.139,145.543c2.024-4.542,3.158-9.568,3.158-14.862
					c0-8.302-2.771-15.954-7.432-22.093c-5.568,4.604-12.246,7.91-19.571,9.47c-0.007,0.155-0.015,0.31-0.022,0.465
					c-0.123,2.611-2.197,4.625-4.82,4.564c-2.352-0.057-4.079-1.777-4.41-4.026c-0.023,0-0.041,0.001-0.041,0.002v48.185
					c0-0.003,0.747-0.011,1.132-0.027c0.025-0.001,0.038-0.002,0.063-0.003c0.465-0.021,0.922-0.051,1.385-0.086
					C105.254,166.076,116.809,157.509,122.139,145.543z"/>
				<path fill="#DB8538" d="M88.943,118.9v0.162c0.023-0.001,0.047-0.002,0.07-0.002c-0.037-0.251-0.07-0.504-0.07-0.766
					C88.943,118.497,88.943,118.698,88.943,118.9z"/>
				<path opacity="0.3" fill="#FFFFFF" d="M88.943,118.9v0.162c0.023-0.001,0.047-0.002,0.07-0.002
					c-0.037-0.251-0.07-0.504-0.07-0.766C88.943,118.497,88.943,118.698,88.943,118.9z"/>
				<path fill="#DB8538" d="M89,67.211c5,0.051,8.309,1.136,9.103,5.008c1.561-0.515,3.21-0.804,4.942-0.804
					c8.734,0,15.809,7.082,15.809,15.818c0,6.89-4.42,12.736-10.571,14.903c-0.778,3.857-4.458,7.149-9.654,9.031
					c-0.11,2.297-0.226,4.593-0.333,6.89c7.324-1.56,14.003-4.865,19.57-9.47c1.096-0.906,2.146-1.862,3.152-2.865
					c8.313-8.283,13.458-19.742,13.458-32.405c0-9.157-2.701-17.68-7.335-24.833c1.861-1.258,3.085-3.388,3.085-5.804
					c0-3.843-3.097-6.958-6.93-6.996c-2.091,0.019-4.025,0.954-5.296,2.423c-0.012-0.011-0.025-0.02-0.037-0.03
					c-0.01,0.011-0.02,0.02-0.029,0.03c-4.937-4.1-10.748-7.18-17.114-8.921c-0.424-0.115-0.853-0.218-1.28-0.321
					c-0.199-0.049-0.368-0.103-0.568-0.148C95.747,27.984,92,27.59,89,27.573V67.211z M101.959,54.413
					c3.14-0.626,6.191,1.414,6.818,4.556c0.624,3.141-1.414,6.194-4.557,6.819c-3.142,0.625-6.193-1.414-6.82-4.556
					C96.777,58.09,98.816,55.039,101.959,54.413z"/>
				<path opacity="0.3" fill="#FFFFFF" d="M89,67.211c5,0.051,8.309,1.136,9.103,5.008c1.561-0.515,3.21-0.804,4.942-0.804
					c8.734,0,15.809,7.082,15.809,15.818c0,6.89-4.42,12.736-10.571,14.903c-0.778,3.857-4.458,7.149-9.654,9.031
					c-0.11,2.297-0.226,4.593-0.333,6.89c7.324-1.56,14.003-4.865,19.57-9.47c1.096-0.906,2.146-1.862,3.152-2.865
					c8.313-8.283,13.458-19.742,13.458-32.405c0-9.157-2.701-17.68-7.335-24.833c1.861-1.258,3.085-3.388,3.085-5.804
					c0-3.843-3.097-6.958-6.93-6.996c-2.091,0.019-4.025,0.954-5.296,2.423c-0.012-0.011-0.025-0.02-0.037-0.03
					c-0.01,0.011-0.02,0.02-0.029,0.03c-4.937-4.1-10.748-7.18-17.114-8.921c-0.424-0.115-0.853-0.218-1.28-0.321
					c-0.199-0.049-0.368-0.103-0.568-0.148C95.747,27.984,92,27.59,89,27.573V67.211z M101.959,54.413
					c3.14-0.626,6.191,1.414,6.818,4.556c0.624,3.141-1.414,6.194-4.557,6.819c-3.142,0.625-6.193-1.414-6.82-4.556
					C96.777,58.09,98.816,55.039,101.959,54.413z"/>
				<path fill="#DB8538" d="M99.043,102.521c-0.141,2.883-0.278,5.765-0.417,8.647c5.196-1.882,8.874-5.174,9.653-9.031
					c-1.645,0.58-3.406,0.911-5.249,0.911C101.65,103.048,100.319,102.853,99.043,102.521z"/>
				<path opacity="0.3" fill="#865529" d="M99.043,102.521c-0.141,2.883-0.278,5.765-0.417,8.647
					c5.196-1.882,8.874-5.174,9.653-9.031c-1.645,0.58-3.406,0.911-5.249,0.911C101.65,103.048,100.319,102.853,99.043,102.521z"/>
				<path opacity="0.3" fill="#FFFFFF" d="M99.043,102.521c-0.141,2.883-0.278,5.765-0.417,8.647
					c5.196-1.882,8.874-5.174,9.653-9.031c-1.645,0.58-3.406,0.911-5.249,0.911C101.65,103.048,100.319,102.853,99.043,102.521z"/>
				<path fill="#FFFFFF" d="M99.071,102.521C94.645,101.369,91,98.344,89,94.348v23.947c0,0.262,0.004,0.515,0.041,0.766
					c0.331,2.249,2.072,3.97,4.425,4.026c2.623,0.061,4.689-1.953,4.813-4.564c0.007-0.155,0.012-0.31,0.019-0.465
					c0.108-2.297,0.234-4.593,0.345-6.89C98.78,108.285,98.931,105.403,99.071,102.521z"/>
				<path opacity="0.3" fill="#FFFFFF" d="M99.071,102.521C94.645,101.369,91,98.344,89,94.348v23.947
					c0,0.262,0.004,0.515,0.041,0.766c0.331,2.249,2.072,3.97,4.425,4.026c2.623,0.061,4.689-1.953,4.813-4.564
					c0.007-0.155,0.012-0.31,0.019-0.465c0.108-2.297,0.234-4.593,0.345-6.89C98.78,108.285,98.931,105.403,99.071,102.521z"/>
				<path fill="#865529" d="M89,83.428v10.92c2,3.996,5.645,7.021,10.071,8.173c1.276,0.332,2.593,0.527,3.974,0.527
					c1.842,0,3.596-0.331,5.24-0.911c6.151-2.167,10.564-8.014,10.564-14.903c0-8.736-7.083-15.818-15.817-15.818
					c-1.732,0-3.396,0.289-4.956,0.804c0.102,0.495,0.189,1.027,0.189,1.617C98.266,78.876,91,83.008,89,83.428z M112.309,84.597
					c0.553,0,1,0.448,1,1c0,0.553-0.447,1-1,1s-1-0.447-1-1C111.309,85.045,111.756,84.597,112.309,84.597z M106.309,93.597
					c0.553,0,1,0.448,1,1c0,0.553-0.447,1-1,1s-1-0.447-1-1C105.309,94.045,105.756,93.597,106.309,93.597z M104.309,77.597
					c0.553,0,1,0.448,1,1c0,0.553-0.447,1-1,1s-1-0.447-1-1C103.309,78.045,103.756,77.597,104.309,77.597z M99.309,87.597
					c0,0.553-0.447,1-1,1s-1-0.447-1-1c0-0.552,0.447-1,1-1S99.309,87.045,99.309,87.597z"/>
				<path opacity="0.3" fill="#FFFFFF" d="M89,83.428v10.92c2,3.996,5.645,7.021,10.071,8.173c1.276,0.332,2.593,0.527,3.974,0.527
					c1.842,0,3.596-0.331,5.24-0.911c6.151-2.167,10.564-8.014,10.564-14.903c0-8.736-7.083-15.818-15.817-15.818
					c-1.732,0-3.396,0.289-4.956,0.804c0.102,0.495,0.189,1.027,0.189,1.617C98.266,78.876,91,83.008,89,83.428z M112.309,84.597
					c0.553,0,1,0.448,1,1c0,0.553-0.447,1-1,1s-1-0.447-1-1C111.309,85.045,111.756,84.597,112.309,84.597z M106.309,93.597
					c0.553,0,1,0.448,1,1c0,0.553-0.447,1-1,1s-1-0.447-1-1C105.309,94.045,105.756,93.597,106.309,93.597z M104.309,77.597
					c0.553,0,1,0.448,1,1c0,0.553-0.447,1-1,1s-1-0.447-1-1C103.309,78.045,103.756,77.597,104.309,77.597z M99.309,87.597
					c0,0.553-0.447,1-1,1s-1-0.447-1-1c0-0.552,0.447-1,1-1S99.309,87.045,99.309,87.597z"/>
				<path fill="#353A42" d="M98.266,73.836c0-0.59-0.047-1.122-0.148-1.617C97.322,68.347,94,67.262,89,67.211v16.217
					C91,83.008,98.266,78.876,98.266,73.836z"/>
				<path opacity="0.3" fill="#FFFFFF" d="M98.266,73.836c0-0.59-0.047-1.122-0.148-1.617C97.322,68.347,94,67.262,89,67.211v16.217
					C91,83.008,98.266,78.876,98.266,73.836z"/>
				<path fill="#FFFFFF" d="M104.221,65.788c3.143-0.625,5.181-3.679,4.557-6.819c-0.627-3.142-3.679-5.182-6.818-4.556
					c-3.143,0.626-5.182,3.677-4.559,6.819C98.027,64.374,101.079,66.413,104.221,65.788z M102.377,56.508
					c1.981-0.395,3.91,0.895,4.304,2.878c0.178,0.882,0.019,1.755-0.388,2.485c-0.947-1.211-2.481-2.006-4.35-1.637
					c-1.038,0.207-1.762,0.684-2.224,1.303c-0.096-0.229-0.172-0.469-0.223-0.723C99.102,58.83,100.391,56.902,102.377,56.508z"/>
				<path opacity="0.3" fill="#FFFFFF" d="M104.221,65.788c3.143-0.625,5.181-3.679,4.557-6.819
					c-0.627-3.142-3.679-5.182-6.818-4.556c-3.143,0.626-5.182,3.677-4.559,6.819C98.027,64.374,101.079,66.413,104.221,65.788z
					 M102.377,56.508c1.981-0.395,3.91,0.895,4.304,2.878c0.178,0.882,0.019,1.755-0.388,2.485c-0.947-1.211-2.481-2.006-4.35-1.637
					c-1.038,0.207-1.762,0.684-2.224,1.303c-0.096-0.229-0.172-0.469-0.223-0.723C99.102,58.83,100.391,56.902,102.377,56.508z"/>
				<path fill="#353A42" d="M99.72,61.537c0.462-0.619,1.186-1.096,2.224-1.303c1.868-0.369,3.402,0.426,4.35,1.637
					c0.406-0.73,0.565-1.604,0.388-2.485c-0.394-1.983-2.322-3.272-4.304-2.878c-1.986,0.395-3.275,2.322-2.88,4.307
					C99.548,61.068,99.624,61.309,99.72,61.537z"/>
				<path opacity="0.3" fill="#FFFFFF" d="M99.72,61.537c0.462-0.619,1.186-1.096,2.224-1.303c1.868-0.369,3.402,0.426,4.35,1.637
					c0.406-0.73,0.565-1.604,0.388-2.485c-0.394-1.983-2.322-3.272-4.304-2.878c-1.986,0.395-3.275,2.322-2.88,4.307
					C99.548,61.068,99.624,61.309,99.72,61.537z"/>
				<circle fill="#CF7228" cx="104.309" cy="78.597" r="1"/>
				<circle opacity="0.3" fill="#FFFFFF" cx="104.309" cy="78.597" r="1"/>
				<circle fill="#CF7228" cx="112.309" cy="85.597" r="1"/>
				<circle opacity="0.3" fill="#FFFFFF" cx="112.309" cy="85.597" r="1"/>
				<circle fill="#CF7228" cx="98.309" cy="87.597" r="1"/>
				<circle opacity="0.3" fill="#FFFFFF" cx="98.309" cy="87.597" r="1"/>
				<circle fill="#CF7228" cx="106.309" cy="94.597" r="1"/>
				<circle opacity="0.3" fill="#FFFFFF" cx="106.309" cy="94.597" r="1"/>
			</g>
		</g>
	</g>
</g>
</svg>
