<?xml version="1.0" encoding="utf-8"?>
<!-- Generator: Adobe Illustrator 16.0.0, SVG Export Plug-In . SVG Version: 6.00 Build 0)  -->
<!DOCTYPE svg PUBLIC "-//W3C//DTD SVG 1.1//EN" "http://www.w3.org/Graphics/SVG/1.1/DTD/svg11.dtd">
<svg version="1.1" id="Layer_1" xmlns="http://www.w3.org/2000/svg" xmlns:xlink="http://www.w3.org/1999/xlink" x="0px" y="0px"
	 width="188px" height="188px" viewBox="0 0 188 188" enable-background="new 0 0 188 188" xml:space="preserve">
<g>
	
		<image overflow="visible" opacity="0.4" width="536" height="656" xlink:href="E476E966.png"  transform="matrix(0.24 0 0 0.24 29.7417 16.6206)">
	</image>
	<g>
		<g>
			<g>
				<path fill="#FFFFFF" d="M146.149,132.432c-9.667-2.104-13.341,7.565-24.435-5.223c-0.955,2.545-2.715,4.939-3.715,7.14v2.005
					c5,5.309,11.526,11.318,18.337,11.486C151.052,148.202,156.069,134.589,146.149,132.432z"/>
				<path fill="#F8AFA5" d="M66.7,36.594c-3.011-2.49-6.397-4.846-8.362-4.771c-1.994,0.074-4.026,8.692-3.488,14.582
					C58.217,42.513,62.22,39.189,66.7,36.594z"/>
				<path fill="#F8AFA5" d="M125.796,47.393c0.892-5.856-1.259-15.492-3.368-15.57c-2.051-0.077-5.65,2.492-8.756,5.099
					C118.297,39.689,122.4,43.24,125.796,47.393z"/>
				<path fill="#F9F9FA" d="M121.715,127.209c1.349-3.592,2.076-7.48,2.076-11.543c0-2.271-0.237-4.488-0.676-6.629
					c-8.42,8.649-20.186,14.029-33.211,14.029c-12.151,0-23.207-4.682-31.473-12.333c-0.242,1.609-0.342,3.256-0.342,4.933
					c0,7.578,2.91,14.553,6.91,20.111v25.863c0,2.96,2.344,5.359,5.305,5.359h5.279c2.96,0,5.416-2.399,5.416-5.359v-14.662
					c3,1.001,6.496,1.546,9.975,1.546c3.869,0,7.025-0.674,11.025-1.901v15.018c0,2.96,2.344,5.359,5.305,5.359h5.279
					c2.96,0,5.416-2.399,5.416-5.359v-25.287v-2.005C119,132.148,120.76,129.754,121.715,127.209z"/>
				<path fill="#FFFFFF" d="M123.108,109.037c0.642-0.66,1.263-1.34,1.864-2.037c7.85,0.769,14.354,3.697,19.991,9.516
					c0.507,0.522,1.347-0.246,0.945-0.826c-4.327-6.262-12.491-9.822-20.111-9.656c1.644-2.009,3.113-4.162,4.405-6.432
					c3.879,0.034,7.711,0.452,11.594,1.4c0.509,0.123,0.788-0.695,0.291-0.883c-3.666-1.385-7.404-1.885-11.18-1.799
					c1.414-2.677,2.57-5.507,3.441-8.461c3.801-0.693,7.729-0.79,11.91-0.158c0.88,0.133,1.05-1.061,0.246-1.321
					c-3.852-1.247-7.779-1.26-11.614-0.507c0.884-3.574,1.361-7.311,1.361-11.158c0-7.727-1.901-15.006-5.245-21.411
					c4.71-9.844-0.932-37.438-8.74-33.255c-4.737,2.535-10.39,7.816-14.405,11.924c-5.524-2.323-11.592-3.609-17.961-3.609
					c-6.105,0-11.929,1.191-17.267,3.336c-3.997-4.066-9.504-9.172-14.137-11.65c-7.557-4.047-13.084,21.659-9.167,32.246
					C45.65,60.94,43.55,68.58,43.55,76.715c0,3.734,0.454,7.36,1.288,10.84c-3.182-0.385-6.405-0.202-9.578,0.825
					c-0.804,0.261-0.634,1.454,0.246,1.321c3.434-0.52,6.695-0.547,9.857-0.156c0.883,3.069,2.07,6.009,3.534,8.781
					c-3.108,0.105-6.189,0.648-9.22,1.793c-0.497,0.188-0.218,1.006,0.291,0.883c3.237-0.791,6.439-1.207,9.663-1.346
					c1.291,2.262,2.759,4.408,4.399,6.41c-7.033,0.42-14.213,3.891-18.175,9.623c-0.401,0.58,0.438,1.349,0.945,0.826
					c5.206-5.373,11.155-8.279,18.216-9.297c1.076,1.229,2.213,2.404,3.412,3.515c8.266,7.651,19.32,12.333,31.472,12.333
					C102.926,123.066,114.688,117.687,123.108,109.037z M122.428,31.822c2.109,0.078,4.26,9.714,3.368,15.57
					c-3.396-4.152-7.499-7.703-12.124-10.472C116.777,34.314,120.377,31.745,122.428,31.822z M104.721,63.5
					c4.521-0.419,8.522,2.906,8.941,7.426c0.418,4.52-2.906,8.521-7.428,8.939c-4.519,0.418-8.519-2.908-8.934-7.427
					C96.88,67.919,100.204,63.917,104.721,63.5z M82.365,72.438c-0.415,4.519-4.415,7.845-8.934,7.427
					c-4.521-0.418-7.846-4.42-7.428-8.939c0.419-4.52,4.42-7.845,8.941-7.426C79.462,63.917,82.786,67.919,82.365,72.438z
					 M58.338,31.822c1.965-0.074,5.352,2.281,8.362,4.771c-4.48,2.596-8.483,5.919-11.851,9.811
					C54.312,40.515,56.344,31.896,58.338,31.822z M81.215,109.678c0-0.484,0.05-0.998,0.126-1.523
					c-1.701,0.593-3.56,0.926-5.511,0.926c-8.051,0-14.578-5.568-14.578-12.438c0-0.562,0.059-1.109,0.143-1.651
					c0.407-0.031,0.688-0.577,0.253-0.847c-0.028-0.018-0.058-0.035-0.087-0.053c1.38-5.646,7.243-9.889,14.27-9.889
					c2.104,0,4.098,0.387,5.904,1.071c1.529-1.421,4.152-2.384,8.17-2.384c4.016,0,6.637,0.963,8.165,2.383
					c1.806-0.684,3.8-1.07,5.901-1.07c8.053,0,14.58,5.568,14.58,12.439c0,6.869-6.527,12.438-14.58,12.438
					c-1.949,0-3.807-0.332-5.506-0.925c0.076,0.524,0.125,1.038,0.125,1.522c0,4.799-3.889,8.688-8.689,8.688
					C85.104,118.365,81.215,114.477,81.215,109.678z"/>
				<path fill="#EBEBEC" d="M106.234,79.865c4.521-0.418,7.846-4.42,7.428-8.939c-0.419-4.52-4.42-7.845-8.941-7.426
					c-4.517,0.417-7.841,4.419-7.42,8.938C97.716,76.957,101.716,80.283,106.234,79.865z M104.059,67.057
					c5.341-1.596,8.803,4.918,6.035,8.207c-0.861-2.369-3.395-4.372-6.492-3.445c-1.148,0.343-1.927,0.949-2.399,1.688
					C100.168,71.053,100.777,68.039,104.059,67.057z"/>
				<path fill="#353A42" d="M103.602,71.818c3.098-0.927,5.631,1.076,6.492,3.445c2.768-3.289-0.694-9.803-6.035-8.207
					c-3.281,0.982-3.891,3.996-2.856,6.449C101.675,72.768,102.453,72.161,103.602,71.818z"/>
				<path fill="#EBEBEC" d="M66.004,70.926c-0.418,4.52,2.906,8.521,7.428,8.939c4.519,0.418,8.519-2.908,8.934-7.427
					c0.421-4.52-2.903-8.521-7.42-8.938C70.424,63.081,66.423,66.406,66.004,70.926z M78.601,73.506
					c-0.473-0.738-1.251-1.345-2.399-1.688c-3.098-0.927-5.631,1.076-6.492,3.445c-2.768-3.289,0.694-9.803,6.035-8.207
					C79.025,68.039,79.635,71.053,78.601,73.506z"/>
				<path fill="#353A42" d="M69.709,75.264c0.861-2.369,3.395-4.372,6.492-3.445c1.148,0.343,1.927,0.949,2.399,1.688
					c1.034-2.453,0.425-5.467-2.856-6.449C70.403,65.461,66.941,71.975,69.709,75.264z"/>
				<path fill="#F8AFA5" d="M98.59,109.678c0-0.484-0.049-0.998-0.125-1.522c-4.182-1.458-7.38-4.522-8.563-8.295
					c-1.184,3.771-4.38,6.837-8.561,8.294c-0.076,0.525-0.126,1.039-0.126,1.523c0,4.799,3.889,8.688,8.686,8.688
					C94.701,118.365,98.59,114.477,98.59,109.678z"/>
				<path fill="#EBEBEC" d="M89.901,99.86c1.184,3.772,4.382,6.837,8.563,8.295c1.699,0.593,3.557,0.925,5.506,0.925
					c8.053,0,14.58-5.568,14.58-12.438c0-6.871-6.527-12.439-14.58-12.439c-2.102,0-4.096,0.387-5.901,1.07
					c1.198,1.112,1.726,2.505,1.726,3.936c0,3.261-6.303,9.982-9.891,9.982c-3.594,0-9.895-6.722-9.895-9.982
					c0-1.43,0.527-2.822,1.725-3.935c-1.807-0.685-3.801-1.071-5.904-1.071c-7.026,0-12.89,4.242-14.27,9.889
					c0.029,0.018,0.059,0.035,0.087,0.053c0.435,0.27,0.154,0.815-0.253,0.847c-0.084,0.542-0.143,1.09-0.143,1.651
					c0,6.869,6.527,12.438,14.578,12.438c1.951,0,3.81-0.333,5.511-0.926C85.521,106.697,88.718,103.632,89.901,99.86z"/>
				<path fill="#353A42" d="M80.01,89.209c0,3.261,6.301,9.982,9.895,9.982c3.588,0,9.891-6.722,9.891-9.982
					c0-1.431-0.527-2.823-1.726-3.936c-1.528-1.42-4.149-2.383-8.165-2.383c-4.018,0-6.641,0.963-8.17,2.384
					C80.537,86.387,80.01,87.779,80.01,89.209z"/>
			</g>
			<path opacity="0.3" fill="#FFFFFF" d="M146.149,132.432c-9.667-2.104-13.369,7.565-24.462-5.223
				c1.348-3.592,2.09-7.48,2.09-11.543c0-2.271-0.23-4.488-0.669-6.629c0.642-0.66,1.263-1.34,1.864-2.037
				c7.85,0.769,14.354,3.697,19.991,9.516c0.507,0.522,1.347-0.246,0.945-0.826c-4.327-6.262-12.491-9.822-20.111-9.656
				c1.644-2.009,3.113-4.162,4.405-6.432c3.879,0.034,7.711,0.452,11.594,1.4c0.509,0.123,0.788-0.695,0.291-0.883
				c-3.666-1.385-7.404-1.885-11.18-1.799c1.414-2.677,2.57-5.507,3.441-8.461c3.801-0.693,7.729-0.79,11.91-0.158
				c0.88,0.133,1.05-1.061,0.246-1.321c-3.852-1.247-7.779-1.26-11.614-0.507c0.884-3.574,1.361-7.311,1.361-11.158
				c0-7.727-1.901-15.006-5.245-21.411c4.71-9.844-0.932-37.438-8.74-33.255c-4.737,2.535-10.39,7.816-14.405,11.924
				c-5.221-2.195-10.931-3.451-16.919-3.584v118.135c3.859-0.002,7.561-0.676,11-1.9v15.018c0,2.96,2.4,5.359,5.361,5.359h5.279
				c2.96,0,5.359-2.399,5.359-5.359v-25.287c4.727,5.309,11.555,11.318,18.365,11.486
				C151.023,148.202,156.069,134.589,146.149,132.432z"/>
		</g>
	</g>
</g>
</svg>
