<?xml version="1.0" encoding="utf-8"?>
<!-- Generator: Adobe Illustrator 16.0.0, SVG Export Plug-In . SVG Version: 6.00 Build 0)  -->
<!DOCTYPE svg PUBLIC "-//W3C//DTD SVG 1.1//EN" "http://www.w3.org/Graphics/SVG/1.1/DTD/svg11.dtd">
<svg version="1.1" id="Layer_1" xmlns="http://www.w3.org/2000/svg" xmlns:xlink="http://www.w3.org/1999/xlink" x="0px" y="0px"
	 width="188px" height="188px" viewBox="0 0 188 188" enable-background="new 0 0 188 188" xml:space="preserve">
<g>
	
		<image overflow="visible" opacity="0.4" width="432" height="706" xlink:href="5BA0D4F5.png"  transform="matrix(0.24 0 0 0.24 43.2676 10.2783)">
	</image>
	<g>
		<g>
			<g>
				<path fill="#FFCB06" d="M90,156.764v10.777c0,0-13.163-1.334-13.346,3c-0.183,4.333,17.304,0.666,17.304,0.666
					s17.521,3.667,17.339-0.666c-0.184-4.334-13.297-3-13.297-3v-10.759c-1,0.164-2.596,0.259-3.926,0.259
					C92.691,157.041,91,156.94,90,156.764z"/>
				<path fill="#FFCB06" d="M65.589,114.563c-2.706,2.404-6.034,6.13-8.854,11.625c-5.882,11.459-6.88,24.037,3.916,18.233
					c0,0,0.881,9.315,8.455,4.63c0.785-0.486,1.418-1.297,1.936-2.333c-4.833-5.433-7.773-12.585-7.773-20.427
					C63.268,122.137,64.096,118.178,65.589,114.563z"/>
				<path fill="#FFCB06" d="M122.446,114.563c1.493,3.615,2.321,7.574,2.321,11.729c0,7.842-2.94,14.994-7.773,20.426
					c0.517,1.037,1.15,1.848,1.936,2.334c7.574,4.686,8.455-4.63,8.455-4.63c10.796,5.804,9.798-6.774,3.916-18.233
					C128.48,120.692,125.152,116.967,122.446,114.563z"/>
				<path fill="#FDBA12" d="M122.446,114.563c-0.533-1.291-1.154-2.536-1.852-3.732c-7.493,5.359-16.663,8.523-26.577,8.523
					s-19.084-3.164-26.577-8.523c-0.697,1.196-1.318,2.441-1.852,3.732c-1.493,3.615-2.321,7.574-2.321,11.729
					c0,7.842,2.94,14.994,7.773,20.427c4.78,5.374,11.416,9.054,18.902,10.046c1.334,0.177,2.692,0.277,4.074,0.277
					c1.331,0,2.64-0.095,3.926-0.259c7.548-0.962,14.238-4.655,19.051-10.065c4.833-5.432,7.773-12.584,7.773-20.426
					C124.768,122.137,123.939,118.178,122.446,114.563z"/>
				<path fill="#FFCB06" d="M94.018,119.354c9.914,0,19.084-3.164,26.577-8.523c11.603-8.298,19.173-21.874,19.173-37.227
					c0-24.293-18.938-44.153-42.854-45.648c0.996-2.229,2.429-4.156,3.619-6.275c0.391-0.693-0.115-1.945-1.076-1.63
					c-1.486,0.488-2.759,1.28-3.826,2.279c0.959-2.221,2.24-4.305,3.447-6.427c0.15-0.263-0.043-0.716-0.4-0.607
					c-5.371,1.645-7.879,7.086-8.648,12.742c-23.398,2.023-41.762,21.645-41.762,45.566c0,15.353,7.57,28.929,19.173,37.227
					C74.934,116.189,84.104,119.354,94.018,119.354z M114.324,65.489c5.493,0,9.944,4.452,9.944,9.943s-4.451,9.943-9.944,9.943
					c-5.49,0-9.942-4.452-9.942-9.943S108.834,65.489,114.324,65.489z M94.018,90.593c5.604,0,7.74,6.626,7.74,6.626l-7.74,5.605
					l-7.74-5.605C86.277,97.219,88.414,90.593,94.018,90.593z M63.767,75.433c0-5.491,4.451-9.943,9.944-9.943
					c5.49,0,9.942,4.452,9.942,9.943s-4.452,9.943-9.942,9.943C68.218,85.376,63.767,80.924,63.767,75.433z"/>
				<path fill="#F57F2F" d="M86.277,97.219l7.74,5.605l7.74-5.605c0,0-2.137-6.626-7.74-6.626S86.277,97.219,86.277,97.219z"/>
				<path fill="#FFFFFF" d="M83.653,75.433c0-5.491-4.452-9.943-9.942-9.943c-5.493,0-9.944,4.452-9.944,9.943
					s4.451,9.943,9.944,9.943C79.201,85.376,83.653,80.924,83.653,75.433z M69.867,77.601c-0.363-0.644-0.589-1.376-0.589-2.168
					c0-2.447,1.983-4.432,4.433-4.432c2.363,0,4.278,1.858,4.406,4.19c-0.719-0.688-1.745-1.123-3.111-1.123
					C72.414,74.068,70.649,75.667,69.867,77.601z"/>
				<path fill="#353A42" d="M78.117,75.191c-0.128-2.332-2.043-4.19-4.406-4.19c-2.449,0-4.433,1.984-4.433,4.432
					c0,0.792,0.226,1.524,0.589,2.168c0.782-1.934,2.547-3.532,5.139-3.532C76.372,74.068,77.398,74.504,78.117,75.191z"/>
				<path fill="#FFFFFF" d="M114.324,85.376c5.493,0,9.944-4.452,9.944-9.943s-4.451-9.943-9.944-9.943
					c-5.49,0-9.942,4.452-9.942,9.943S108.834,85.376,114.324,85.376z M114.324,71.001c2.449,0,4.433,1.984,4.433,4.432
					c0,0.792-0.226,1.524-0.589,2.168c-0.782-1.934-2.547-3.532-5.139-3.532c-1.366,0-2.393,0.436-3.111,1.123
					C110.046,72.859,111.961,71.001,114.324,71.001z"/>
				<path fill="#353A42" d="M118.168,77.601c0.363-0.644,0.589-1.376,0.589-2.168c0-2.447-1.983-4.432-4.433-4.432
					c-2.363,0-4.278,1.858-4.406,4.19c0.719-0.688,1.745-1.123,3.111-1.123C115.621,74.068,117.386,75.667,118.168,77.601z"/>
			</g>
			<path opacity="0.3" fill="#FFFFFF" d="M122.446,114.563c-0.533-1.291-1.154-2.536-1.852-3.732
				c11.603-8.298,19.173-21.874,19.173-37.227c0-24.293-18.938-44.153-42.854-45.648c0.996-2.229,2.429-4.156,3.619-6.275
				c0.391-0.693-0.115-1.945-1.076-1.63c-1.486,0.488-2.759,1.28-3.826,2.279c0.959-2.221,2.24-4.305,3.447-6.427
				c0.15-0.263-0.043-0.716-0.4-0.607c-1.606,0.492-2.952,1.329-4.076,2.404v153.575c2.385,0.475,17.151,3.25,16.983-0.733
				c-0.183-4.334-13.317-3-13.317-3v-10.8c7.415-1.026,13.983-4.692,18.727-10.024c0.517,1.037,1.15,1.848,1.936,2.334
				c7.574,4.686,8.455-4.63,8.455-4.63c10.796,5.804,9.798-6.774,3.916-18.233C128.48,120.691,125.152,116.967,122.446,114.563z"/>
		</g>
	</g>
</g>
</svg>
