<?xml version="1.0" encoding="utf-8"?>
<!-- Generator: Adobe Illustrator 16.0.0, SVG Export Plug-In . SVG Version: 6.00 Build 0)  -->
<!DOCTYPE svg PUBLIC "-//W3C//DTD SVG 1.1//EN" "http://www.w3.org/Graphics/SVG/1.1/DTD/svg11.dtd">
<svg version="1.1" id="Layer_1" xmlns="http://www.w3.org/2000/svg" xmlns:xlink="http://www.w3.org/1999/xlink" x="0px" y="0px"
	 width="188px" height="188px" viewBox="0 0 188 188" enable-background="new 0 0 188 188" xml:space="preserve">
<g>
	
		<image overflow="visible" opacity="0.4" width="561" height="689" xlink:href="71335E0.png"  transform="matrix(0.24 0 0 0.24 29.4282 9.7979)">
	</image>
	<g>
		<g>
			<g>
				<path fill="#FFFFFF" d="M49.294,40.373c0.339-0.096,0.682-0.179,1.028-0.247C49.976,40.195,49.633,40.276,49.294,40.373z"/>
				<path fill="#FFFFFF" d="M50.601,40.072c0.854-0.15,1.729-0.225,2.61-0.234C52.33,39.848,51.455,39.921,50.601,40.072z"/>
				<path fill="#FFFFFF" d="M53.422,39.838c0.916,0,1.838,0.064,2.754,0.185C55.26,39.902,54.338,39.838,53.422,39.838z"/>
				<path fill="#FFFFFF" d="M39.138,48.514c0.46-0.566,0.939-1.125,1.436-1.672C40.077,47.389,39.597,47.947,39.138,48.514z"/>
				<path fill="#FFFFFF" d="M40.576,46.838c0.5-0.55,1.016-1.087,1.541-1.607C41.592,45.751,41.076,46.288,40.576,46.838z"/>
				<path fill="#FFFFFF" d="M42.122,45.227c0.524-0.52,1.06-1.02,1.599-1.499C43.182,44.207,42.646,44.708,42.122,45.227z"/>
				<path fill="#FFFFFF" d="M43.729,43.719c0.541-0.479,1.084-0.937,1.627-1.367C44.813,42.782,44.27,43.24,43.729,43.719z"/>
				<path fill="#FFFFFF" d="M46.722,41.442c0.302-0.172,0.608-0.329,0.921-0.47C47.33,41.113,47.023,41.271,46.722,41.442z"/>
				<path fill="#FFFFFF" d="M47.867,40.867c0.387-0.164,0.781-0.306,1.181-0.428C48.648,40.563,48.254,40.703,47.867,40.867z"/>
				<path fill="#FFFFFF" d="M45.355,42.352c0.344-0.272,0.701-0.511,1.064-0.734C46.057,41.841,45.699,42.079,45.355,42.352z"/>
				<path fill="#FFFFFF" d="M48.842,50.648c3.298-2.092,6.137-2.661,7.374-2.809c-0.177,0.289-0.345,0.582-0.517,0.875
					c1.758-3.002,3.838-5.789,6.202-8.311c-0.232,0.248-0.466,0.495-0.692,0.748c-1.591-0.492-3.297-0.902-5.03-1.129
					C54.945,44.086,52.118,47.569,48.842,50.648z"/>
				<path fill="#414141" d="M46.582,52.293c0.768-0.633,1.523-1.188,2.26-1.656C52.118,47.558,54.945,44,56.179,40l0,0
					c-0.001,0-0.001,0-0.001,0c-0.918,0-1.84,0-2.756,0c-0.07,0-0.141,0-0.211,0c-0.881,0-1.756,0.002-2.61,0.152
					c-0.093,0.018-0.186-0.004-0.278,0.014c-0.347,0.068-0.689,0.131-1.028,0.227c-0.082,0.023-0.165,0.033-0.246,0.058
					c-0.399,0.122-0.794,0.259-1.181,0.423c-0.075,0.031-0.148,0.068-0.225,0.102c-0.313,0.142-0.619,0.297-0.921,0.469
					c-0.101,0.058-0.202,0.113-0.302,0.175c-0.363,0.224-0.721,0.462-1.064,0.733c-0.543,0.432-1.086,0.889-1.627,1.367
					c-0.002,0.004-0.006,0.006-0.008,0.009c-0.539,0.479-1.074,0.979-1.599,1.499c-0.001,0.002-0.003,0.003-0.005,0.004
					c-0.525,0.521-1.041,1.058-1.541,1.607c0,0.002-0.002,0.002-0.003,0.004c-0.496,0.547-0.976,1.105-1.436,1.672
					c-0.004,0.005-0.008,0.01-0.012,0.014l0,0C41.096,50.793,43.792,52.062,46.582,52.293z"/>
				<path fill="#FDD6BD" d="M48.842,50.648c-0.736,0.467-1.492,1.012-2.26,1.645c-1.605,1.324-3.25,3.018-4.818,5.234
					c0,0-2.369,4.125,9.438,1.654c0.068-0.238,0.137-0.479,0.209-0.717c0.063-0.207,0.133-0.41,0.199-0.615
					c0.142-0.439,0.288-0.875,0.442-1.309c0.088-0.246,0.177-0.492,0.269-0.736c0.162-0.432,0.332-0.859,0.506-1.285
					c0.083-0.201,0.16-0.403,0.245-0.603c0.239-0.56,0.49-1.111,0.75-1.659c0.127-0.268,0.259-0.531,0.392-0.795
					c0.16-0.322,0.324-0.644,0.492-0.961c0.148-0.282,0.297-0.564,0.451-0.842c0.176-0.318,0.359-0.633,0.543-0.945
					c0.172-0.293,0.34-0.586,0.517-0.875C54.979,47.987,52.14,48.557,48.842,50.648z"/>
				<path fill="#FFFFFF" d="M146.096,42.352c-4.311-3.422-10.361-2.821-15.368-1.347c1.938,2.142,3.683,4.462,5.198,6.938
					c2.632,0.465,8.611,2.306,13.762,9.584c0,0,2.29,3.975-8.768,1.794c0.471,1.645,0.853,3.327,1.141,5.041
					c2.167,0.163,4.59,0.171,7.29-0.05C163.928,63.115,154.797,49.258,146.096,42.352z"/>
				<path fill="#FDD6BD" d="M149.688,57.527c-5.15-7.278-11.13-9.119-13.762-9.584c2.148,3.511,3.838,7.332,4.994,11.378
					C151.978,61.502,149.688,57.527,149.688,57.527z"/>
				<path fill="#FFFFFF" d="M129.821,40.029c2.901-1.802,7.796-5.703,9.569-12.283c2.588-9.594-0.03-12.496-2.355-12.941
					c-1.945-0.371-6.254,14.65-15.975,18.069C124.269,34.898,127.209,37.305,129.821,40.029z"/>
				<path fill="#414141" d="M139.236,139.363c2.771,8.883,11.844-0.859,14.652-6.824
					C153.889,132.539,136.466,130.48,139.236,139.363z"/>
				<path fill="#414141" d="M77.443,155.016c-3.99,0-7.563,2.074-9.573,5.198c-1.132,1.761-1.87,3.851-1.87,6.099V168h23v-1.688
					c0-2.248-0.794-4.338-1.927-6.098C85.063,157.09,81.434,155.016,77.443,155.016z"/>
				<path fill="#414141" d="M112.939,155.016c-4.34,0-7.926,2.45-9.817,6.041c-0.827,1.57-1.122,3.357-1.122,5.256V168h22v-1.688
					c0-3.111-1.141-5.928-3.175-7.971C118.779,156.287,116.067,155.016,112.939,155.016z"/>
				<path fill="#FFFFFF" d="M59.497,116.286c-0.104-0.601-0.192-1.208-0.269-1.819C59.303,115.078,59.393,115.685,59.497,116.286z"
					/>
				<path fill="#FFFFFF" d="M126.637,118.604c-0.868-1.007-1.514-2.16-2.047-3.378c-3.768,6.901-10.77,5.427-17.396,3.1
					c-0.59,3.85-0.62,7.935-1.721,11.427c-1.559,4.949-5.611,2.824-8.803,0.67c-2.008-1.357-3.972-2.916-5.57-4.742
					c-0.813-0.93-1.03-2.416-1.047-4.027c0.046-0.227,0.082-0.453,0.105-0.684c0.058-0.564,0.042-1.148-0.029-1.73
					c0.021-0.39,0.041-0.771,0.059-1.146c1.817,0.216,3.662,0.34,5.538,0.34c3.159,0,6.243-0.318,9.226-0.92
					c-3.676-1.371-7.1-2.74-9.614-2.74c-6.965,0-20.899,10.49-27.87,2.457c-2.278,0.887-4.803,1.321-7.535,1.184
					c-0.154-0.653-0.261-1.314-0.38-1.98C60.736,123.098,64,129.141,68,134.047v26.167c2-3.124,5.51-5.198,9.5-5.198
					s7.5,2.074,9.5,5.199v-14.539c3,0.689,5.754,1.063,8.781,1.063c2.472,0,5.219-0.248,7.219-0.712v15.03
					c2-3.591,5.655-6.041,9.996-6.041c3.127,0,6.004,1.271,8.004,3.326v-21.623c4-4.021,7.539-9.047,9.502-14.702
					C128.987,122.088,127.42,119.512,126.637,118.604z M80.732,143.543c-6.412-2.875-11.833-7.549-15.67-13.363
					c1.755-2.264,4.888-5.146,7.025-2.854c1.305,1.4,2.034,3.301,3.333,4.75c1.362,1.52,3.037,2.471,4.762,3.506
					C82.374,136.898,83.458,142.313,80.732,143.543z M102.133,146.168c0.005-0.09,0.019-0.176,0.014-0.271
					c-0.018-0.361,0.028-0.736,0.114-1.119c0.33-0.547,0.599-1.117,0.791-1.688c0.057-0.168,0.1-0.334,0.144-0.502
					c3.613-5.861,15.438-12.016,18.321-6.42C116.322,141.277,109.618,144.852,102.133,146.168z"/>
				<path fill="#FFFFFF" d="M130.922,120.652c-0.098,0.326-0.206,0.647-0.314,0.969
					C130.716,121.299,130.824,120.979,130.922,120.652z"/>
				<path fill="#FFFFFF" d="M132.137,115.139c-0.033,0.241-0.068,0.482-0.106,0.721C132.068,115.62,132.104,115.38,132.137,115.139z
					"/>
				<path fill="#FFFFFF" d="M59.005,112.031c-0.039-0.687-0.062-1.378-0.062-2.074C58.943,110.653,58.967,111.344,59.005,112.031z"
					/>
				<path fill="#FFFFFF" d="M131.494,118.521c-0.116,0.488-0.242,0.973-0.379,1.453C131.251,119.494,131.378,119.01,131.494,118.521
					z"/>
				<path fill="#FFFFFF" d="M131.857,116.826c-0.046,0.242-0.088,0.486-0.139,0.727
					C131.769,117.313,131.812,117.068,131.857,116.826z"/>
				<path fill="#FFFFFF" d="M132.463,111.705c-0.008,0.193-0.023,0.386-0.036,0.578
					C132.439,112.091,132.455,111.898,132.463,111.705z"/>
				<path fill="#FFFFFF" d="M132.34,113.435c-0.021,0.228-0.047,0.456-0.072,0.683C132.293,113.891,132.318,113.663,132.34,113.435z
					"/>
				<path fill="#FFFFFF" d="M59.188,114.145c-0.064-0.559-0.111-1.123-0.15-1.688C59.076,113.022,59.124,113.586,59.188,114.145z"/>
				<path fill="#414141" d="M80.183,135.582c-1.725-1.035-3.399-1.986-4.762-3.506c-1.299-1.449-2.028-3.35-3.333-4.75
					c-2.138-2.293-5.271,0.59-7.025,2.854c3.837,5.814,9.258,10.488,15.67,13.363C83.458,142.313,82.374,136.898,80.183,135.582z"/>
				<path fill="#414141" d="M67.467,117.229c-1.543-1.777-2.75-4.449-3.459-8.355c-0.219-1.202-0.352-2.333-0.426-3.414
					c-1.291-1.243-2.516-2.552-3.656-3.936c-0.636,2.709-0.982,5.529-0.982,8.434c0,0.696,0.022,1.388,0.062,2.074
					c0.009,0.143,0.022,0.283,0.032,0.425c0.039,0.565,0.086,1.13,0.15,1.688c0.013,0.107,0.027,0.215,0.041,0.322
					c0.076,0.611,0.164,1.219,0.269,1.819c0.009,0.049,0.018,0.097,0.026,0.146c0.119,0.666,0.254,1.327,0.408,1.98
					C62.664,118.55,65.188,118.115,67.467,117.229z"/>
				<path fill="#414141" d="M95.726,118.432c-1.876,0-3.721-0.124-5.538-0.34c-0.018,0.375-0.037,0.757-0.059,1.146
					c0.071,0.582,0.087,1.166,0.029,1.73c-0.023,0.23-0.06,0.457-0.105,0.684c0.017,1.611,0.234,3.098,1.047,4.027
					c1.599,1.826,3.563,3.385,5.57,4.742c3.191,2.154,7.244,4.279,8.803-0.67c1.101-3.492,1.131-7.577,1.721-11.427
					c-0.755-0.265-1.504-0.538-2.242-0.813C101.969,118.113,98.885,118.432,95.726,118.432z"/>
				<path fill="#414141" d="M127.021,106.268c-0.082,0.838-0.189,1.697-0.354,2.605c-0.48,2.648-1.189,4.729-2.076,6.353
					c0.533,1.218,1.179,2.362,2.047,3.369c0.783,0.909,2.322,3.405,3.838,3.405c0.002,0,0.003,0,0.005,0
					c0.046,0,0.085-0.256,0.128-0.388c0.108-0.321,0.217-0.638,0.314-0.964c0.068-0.225,0.129-0.449,0.193-0.676
					c0.137-0.48,0.263-0.964,0.379-1.452c0.078-0.321,0.156-0.644,0.225-0.968c0.051-0.241,0.093-0.484,0.139-0.727
					c0.061-0.322,0.12-0.643,0.173-0.967c0.038-0.238,0.073-0.479,0.106-0.721c0.049-0.339,0.092-0.68,0.131-1.021
					c0.025-0.227,0.051-0.455,0.072-0.683c0.035-0.382,0.063-0.767,0.087-1.151c0.013-0.192,0.028-0.385,0.036-0.578
					c0.027-0.579,0.045-1.162,0.045-1.748c0-2.904-0.347-5.725-0.982-8.434C130.137,103.209,128.63,104.793,127.021,106.268z"/>
				<path fill="#414141" d="M103.195,142.588c-0.044,0.168-0.087,0.334-0.144,0.502c-0.192,0.57-0.461,1.141-0.791,1.688
					c-0.086,0.383-0.132,0.758-0.114,1.119c0.005,0.096-0.009,0.182-0.014,0.271c7.485-1.316,14.189-4.891,19.384-10
					C118.633,130.572,106.809,136.727,103.195,142.588z"/>
				<path fill="#FFFFFF" d="M50.432,81.924c-0.134-0.614-0.25-1.236-0.358-1.859C50.182,80.688,50.299,81.309,50.432,81.924z"/>
				<path fill="#FFFFFF" d="M49.971,79.49c-0.096-0.594-0.173-1.193-0.246-1.795C49.797,78.297,49.875,78.896,49.971,79.49z"/>
				<path fill="#FFFFFF" d="M49.428,69.941c0.01-0.205,0.022-0.41,0.035-0.615C49.45,69.531,49.438,69.736,49.428,69.941z"/>
				<path fill="#FFFFFF" d="M49.584,67.721c0.018-0.189,0.033-0.379,0.053-0.568C49.617,67.342,49.602,67.531,49.584,67.721z"/>
				<path fill="#FFFFFF" d="M49.898,65.098c0.02-0.125,0.043-0.249,0.063-0.374C49.941,64.849,49.918,64.973,49.898,65.098z"/>
				<path fill="#FFFFFF" d="M49.441,74.565c-0.043-0.823-0.067-1.651-0.067-2.485C49.374,72.914,49.398,73.742,49.441,74.565z"/>
				<path fill="#FFFFFF" d="M51.743,86.708c-0.226-0.676-0.433-1.36-0.628-2.049C51.31,85.349,51.519,86.031,51.743,86.708z"/>
				<path fill="#FFFFFF" d="M51.023,84.334c-0.178-0.646-0.337-1.298-0.486-1.954C50.686,83.037,50.847,83.688,51.023,84.334z"/>
				<path fill="#FFFFFF" d="M115.494,30.152c-5.998-2.833-12.696-4.424-19.769-4.424c-6.851,0-13.348,1.498-19.199,4.166
					c3.19,11.836-3.599,26.688-7.74,37.24c-3.485,8.879-8.356,17.619-15.232,24.176c1.685,3.688,3.826,7.121,6.372,10.213
					c1.141,1.384,2.365,2.692,3.656,3.936c-1.266-18.305,17.334-19.668,31.755-19.668c14.63,0,33.556,1.406,31.684,20.477
					c1.609-1.475,3.116-3.059,4.505-4.744c2.647-3.216,4.859-6.8,6.572-10.655c-6.643-6.507-11.393-15.046-14.802-23.733
					C119.184,56.658,112.468,41.945,115.494,30.152z M81.572,79.047c-4.058-0.146-7.227-3.551-7.081-7.607
					c0.146-4.055,3.55-7.225,7.605-7.079c4.054,0.144,7.225,3.55,7.078,7.604C89.03,76.02,85.627,79.189,81.572,79.047z
					 M102.276,71.965c-0.146-4.055,3.024-7.461,7.078-7.604c4.056-0.146,7.46,3.024,7.605,7.079
					c0.146,4.057-3.023,7.461-7.081,7.607C105.824,79.189,102.421,76.02,102.276,71.965z"/>
				<path fill="#FFFFFF" d="M52.589,89.039c-0.276-0.702-0.534-1.412-0.778-2.131C52.054,87.627,52.313,88.337,52.589,89.039z"/>
				<path fill="#FFFFFF" d="M53.554,91.311c-0.329-0.719-0.638-1.447-0.931-2.185C52.916,89.863,53.226,90.592,53.554,91.311z"/>
				<path fill="#FFFFFF" d="M49.641,77.035c-0.064-0.603-0.108-1.212-0.149-1.822C49.531,75.823,49.576,76.432,49.641,77.035z"/>
				<path fill="#FFFFFF" d="M51.201,59.182c-11.807,2.471-9.438-1.654-9.438-1.654c1.568-2.217,3.213-3.91,4.818-5.234
					c-2.79-0.231-5.486-1.5-7.456-3.766c-5.556,6.867-7.958,14.888,2.975,15.785c2.976,0.244,5.602,0.201,7.933-0.012
					C50.327,62.559,50.718,60.852,51.201,59.182z"/>
				<path fill="#FFFFFF" d="M52.32,55.805c-0.092,0.244-0.181,0.49-0.269,0.736C52.14,56.295,52.229,56.049,52.32,55.805z"/>
				<path fill="#FFFFFF" d="M51.609,57.85c-0.066,0.205-0.136,0.408-0.199,0.615C51.474,58.258,51.543,58.055,51.609,57.85z"/>
				<path fill="#FFFFFF" d="M53.071,53.917c-0.085,0.199-0.162,0.401-0.245,0.603C52.909,54.318,52.986,54.116,53.071,53.917z"/>
				<path fill="#FFFFFF" d="M55.156,49.66c-0.154,0.277-0.303,0.56-0.451,0.842C54.854,50.22,55.002,49.938,55.156,49.66z"/>
				<path fill="#FFFFFF" d="M54.213,51.463c-0.133,0.264-0.265,0.527-0.392,0.795C53.948,51.99,54.08,51.727,54.213,51.463z"/>
				<path fill="#FFFFFF" d="M76.511,29.901c-1.983,0.905-3.892,1.946-5.714,3.11c-10.01-3.133-14.408-18.584-16.381-18.207
					c-2.325,0.445-4.943,3.348-2.355,12.941c1.861,6.902,7.143,10.846,9.967,12.521C66.115,35.943,71.027,32.404,76.511,29.901z"/>
				<path fill="#414141" d="M76.526,29.895L76.526,29.895c-0.005,0.002-0.011,0.004-0.016,0.007
					c-5.483,2.503-10.396,6.042-14.483,10.366c-0.042,0.045-0.084,0.092-0.126,0.137c-2.364,2.521-4.444,5.309-6.202,8.311
					c-0.184,0.313-0.367,0.627-0.543,0.945c-0.154,0.277-0.303,0.56-0.451,0.842c-0.168,0.317-0.332,0.639-0.492,0.961
					c-0.133,0.264-0.265,0.527-0.392,0.795c-0.26,0.548-0.511,1.1-0.75,1.659c-0.085,0.199-0.162,0.401-0.245,0.603
					c-0.174,0.426-0.344,0.854-0.506,1.285c-0.092,0.244-0.181,0.49-0.269,0.736c-0.154,0.434-0.301,0.869-0.442,1.309
					c-0.066,0.205-0.136,0.408-0.199,0.615c-0.072,0.238-0.141,0.479-0.209,0.717c-0.483,1.67-0.874,3.377-1.168,5.119
					c-0.024,0.141-0.049,0.281-0.072,0.423c-0.02,0.125-0.043,0.249-0.063,0.374c-0.104,0.68-0.188,1.365-0.262,2.055
					c-0.02,0.189-0.035,0.379-0.053,0.568c-0.049,0.533-0.09,1.068-0.121,1.605c-0.013,0.205-0.025,0.41-0.035,0.615
					c-0.031,0.71-0.054,1.422-0.054,2.139c0,0.834,0.024,1.662,0.067,2.485c0.012,0.218,0.035,0.431,0.05,0.647
					c0.041,0.61,0.085,1.22,0.149,1.822c0.023,0.222,0.057,0.44,0.084,0.66c0.073,0.602,0.15,1.201,0.246,1.795
					c0.031,0.192,0.068,0.383,0.103,0.574c0.108,0.623,0.225,1.245,0.358,1.859c0.033,0.153,0.07,0.305,0.105,0.456
					c0.149,0.656,0.309,1.309,0.486,1.954c0.029,0.108,0.062,0.217,0.092,0.325c0.195,0.688,0.402,1.373,0.628,2.049
					c0.022,0.067,0.046,0.134,0.067,0.2c0.244,0.719,0.502,1.429,0.778,2.131c0.012,0.029,0.022,0.058,0.034,0.087
					c0.293,0.737,0.602,1.466,0.931,2.185l0,0l0,0c6.876-6.557,11.747-15.297,15.232-24.176
					C72.928,56.582,79.717,41.73,76.526,29.895z"/>
				<path fill="#414141" d="M135.926,47.943c-1.516-2.477-3.26-4.797-5.198-6.938c-0.298-0.329-0.599-0.655-0.906-0.976
					c-2.612-2.725-5.553-5.131-8.761-7.155c-1.76-1.11-3.596-2.11-5.505-2.979c-0.022,0.085-0.04,0.172-0.062,0.258
					c-3.026,11.793,3.689,26.506,7.802,36.982c3.409,8.688,8.159,17.227,14.802,23.733c0.146,0.144,0.281,0.301,0.431,0.442
					c2.677-5.859,4.18-12.367,4.18-19.23c0-2.631-0.227-5.207-0.647-7.718c-0.288-1.714-0.67-3.396-1.141-5.041
					C139.764,55.275,138.074,51.454,135.926,47.943z"/>
				<path fill="#414141" d="M116.96,71.439c-0.146-4.055-3.55-7.225-7.605-7.079c-4.054,0.144-7.225,3.55-7.078,7.604
					c0.145,4.055,3.548,7.225,7.603,7.082C113.937,78.9,117.105,75.496,116.96,71.439z M109.551,69.238
					c1.447,0.051,2.579,1.266,2.528,2.713c-0.016,0.469-0.166,0.896-0.394,1.27c-0.422-1.16-1.433-2.143-2.965-2.197
					c-0.809-0.027-1.425,0.209-1.864,0.6C106.982,70.246,108.152,69.188,109.551,69.238z"/>
				<path fill="#FFFFFF" d="M111.686,73.221c0.228-0.373,0.378-0.801,0.394-1.27c0.051-1.447-1.081-2.662-2.528-2.713
					c-1.398-0.051-2.568,1.008-2.694,2.385c0.439-0.391,1.056-0.627,1.864-0.6C110.253,71.078,111.264,72.061,111.686,73.221z"/>
				<path fill="#414141" d="M89.175,71.965c0.146-4.055-3.024-7.461-7.078-7.604c-4.056-0.146-7.46,3.024-7.605,7.079
					c-0.146,4.057,3.023,7.461,7.081,7.607C85.627,79.189,89.03,76.02,89.175,71.965z M81.9,69.238
					c1.398-0.051,2.568,1.008,2.694,2.385c-0.439-0.391-1.056-0.627-1.864-0.6c-1.532,0.055-2.543,1.037-2.965,2.197
					c-0.228-0.373-0.378-0.801-0.394-1.27C79.321,70.504,80.453,69.289,81.9,69.238z"/>
				<path fill="#FFFFFF" d="M82.73,71.023c0.809-0.027,1.425,0.209,1.864,0.6c-0.126-1.377-1.296-2.436-2.694-2.385
					c-1.447,0.051-2.579,1.266-2.528,2.713c0.016,0.469,0.166,0.896,0.394,1.27C80.188,72.061,81.198,71.078,82.73,71.023z"/>
				<path fill="#FDD6BD" d="M67.467,117.229c6.971,8.033,20.905-2.457,27.87-2.457c2.515,0,5.938,1.369,9.614,2.74
					c0.738,0.275,1.487,0.549,2.242,0.813c6.627,2.327,13.629,3.802,17.396-3.1c0.887-1.623,1.596-3.704,2.076-6.353
					c0.165-0.908,0.272-1.768,0.354-2.605c1.872-19.07-17.054-20.477-31.684-20.477c-14.421,0-33.021,1.363-31.755,19.668
					c0.074,1.081,0.207,2.212,0.426,3.414C64.717,112.779,65.924,115.451,67.467,117.229z M113.443,98c1.934,0,3.5,1.566,3.5,3.5
					s-1.566,3.5-3.5,3.5c-1.933,0-3.5-1.566-3.5-3.5S111.511,98,113.443,98z M75.443,98c1.934,0,3.5,1.566,3.5,3.5
					s-1.566,3.5-3.5,3.5c-1.933,0-3.5-1.566-3.5-3.5S73.511,98,75.443,98z"/>
				<circle fill="#E27E53" cx="75.443" cy="101.5" r="3.5"/>
				<circle fill="#E27E53" cx="113.443" cy="101.5" r="3.5"/>
			</g>
			<path opacity="0.3" fill="#FFFFFF" d="M149.351,64.313c14.577-1.197,5.446-15.055-3.255-21.961
				c-4.311-3.422-10.361-2.821-15.368-1.347c-0.298-0.329-0.599-0.655-0.906-0.976c2.901-1.802,7.796-5.703,9.569-12.283
				c2.588-9.594-0.03-12.496-2.355-12.941c-1.945-0.371-6.254,14.65-15.975,18.069c-1.76-1.11-3.596-2.11-5.505-2.979
				c-0.022,0.085-0.04,0.172-0.062,0.258c-5.998-2.833-12.696-4.424-19.769-4.424c-0.038,0-0.076,0.004-0.114,0.004v121.003
				c0.038,0,0.076,0.003,0.114,0.003c2.472,0,4.884-0.248,7.218-0.712v15.03c-0.827,1.57-1,3.357-1,5.256V168h22v-1.688
				c0-3.111-0.965-5.928-3-7.971v-21.623c0.523-0.493,1.031-1.002,1.525-1.523c2.395,4.454,5.443,7.362,8.967,8.5
				c1.061,0.343,2.146,0.513,3.246,0.513c2.109,0,4.271-0.632,6.4-1.867c3.768,2.767,10.465-4.827,12.807-9.802
				c0,0-16.732-1.971-14.779,6.321c-2.266,1.328-4.432,1.679-6.445,1.028c-2.815-0.908-5.385-3.734-7.389-8.039
				c2.203-2.968,3.963-5.85,5.199-9.85h0.005c0.046,0,0.085-0.256,0.128-0.388c0.108-0.321,0.217-0.638,0.314-0.964
				c0.068-0.225,0.129-0.449,0.193-0.676c0.136-0.48,0.263-0.964,0.379-1.452c0.078-0.321,0.156-0.644,0.225-0.968
				c0.05-0.241,0.093-0.484,0.139-0.727c0.061-0.322,0.12-0.643,0.173-0.967c0.038-0.239,0.073-0.479,0.106-0.721
				c0.049-0.339,0.092-0.68,0.131-1.021c0.025-0.227,0.051-0.454,0.072-0.683c0.035-0.382,0.063-0.767,0.087-1.151
				c0.013-0.192,0.028-0.385,0.036-0.578c0.027-0.579,0.045-1.162,0.045-1.748c0-2.904-0.347-5.725-0.982-8.434
				c2.647-3.216,4.859-6.8,6.572-10.655c0.146,0.144,0.281,0.301,0.431,0.442c2.677-5.859,4.18-12.367,4.18-19.23
				c0-2.631-0.227-5.207-0.647-7.718C144.228,64.525,146.65,64.533,149.351,64.313z"/>
		</g>
	</g>
</g>
</svg>
