<?xml version="1.0" encoding="utf-8"?>
<!-- Generator: Adobe Illustrator 16.0.0, SVG Export Plug-In . SVG Version: 6.00 Build 0)  -->
<!DOCTYPE svg PUBLIC "-//W3C//DTD SVG 1.1//EN" "http://www.w3.org/Graphics/SVG/1.1/DTD/svg11.dtd">
<svg version="1.1" id="Layer_1" xmlns="http://www.w3.org/2000/svg" xmlns:xlink="http://www.w3.org/1999/xlink" x="0px" y="0px"
	 width="188px" height="188px" viewBox="0 0 188 188" enable-background="new 0 0 188 188" xml:space="preserve">
<g>
	
		<image overflow="visible" opacity="0.4" width="473" height="688" xlink:href="30BF3A05.png"  transform="matrix(0.24 0 0 0.24 38.7813 12.0269)">
	</image>
	<g>
		<g>
			<g>
				<path fill="#583B2B" d="M62.105,37.918c-2.127-3.902-5.479-9.827-6.798-10.928c-1.93-1.608-7.404,13.695-1.067,18.516
					C56.554,42.678,59.195,40.132,62.105,37.918z"/>
				<path opacity="0.6" fill="#AA6828" d="M62.105,37.918c-2.127-3.902-5.479-9.827-6.798-10.928
					c-1.93-1.608-7.404,13.695-1.067,18.516C56.554,42.678,59.195,40.132,62.105,37.918z"/>
				<path fill="#583B2B" d="M126.025,45.506c6.337-4.819,0.862-20.124-1.067-18.516c-1.319,1.101-4.671,7.025-6.798,10.929
					C121.07,40.132,123.712,42.678,126.025,45.506z"/>
				<path opacity="0.6" fill="#AA6828" d="M126.025,45.506c6.337-4.819,0.862-20.124-1.067-18.516
					c-1.319,1.101-4.671,7.025-6.798,10.929C121.07,40.132,123.712,42.678,126.025,45.506z"/>
				<path fill="#583B2B" d="M90.133,121.182c14.419,0,27.298-6.584,35.8-16.908c6.592-8.007,10.552-18.262,10.552-29.443
					c0-8.232-2.156-15.958-5.92-22.66c10.123-8.394,3.561-38.441-4.887-34.846c-7.162,3.049-13.047,12.831-14.828,16.044
					c-6.236-3.122-13.269-4.89-20.717-4.89s-14.48,1.768-20.717,4.889c-1.781-3.213-7.666-12.995-14.828-16.043
					c-8.447-3.596-15.01,26.451-4.887,34.846c-3.764,6.701-5.92,14.428-5.92,22.66c0,11.182,3.96,21.438,10.552,29.443
					C62.834,114.598,75.714,121.182,90.133,121.182z M105.037,113.788c-6.759,0-12.432-3.923-14.1-9.241
					c-1.667,5.318-7.34,9.241-14.101,9.241c-8.067,0-14.61-5.581-14.61-12.465c0-6.885,6.543-12.466,14.61-12.466
					c0.652,0,1.29,0.049,1.92,0.119c-0.013-0.119-0.04-0.246-0.04-0.359c0-4.023,3.373-7.807,12.223-7.807
					c8.847,0,12.221,3.783,12.221,7.807c0,0.113-0.027,0.24-0.04,0.359c0.629-0.07,1.266-0.119,1.917-0.119
					c8.07,0,14.612,5.581,14.612,12.466C119.649,108.207,113.107,113.788,105.037,113.788z M124.958,26.99
					c1.93-1.608,7.404,13.696,1.067,18.516c-2.313-2.828-4.955-5.374-7.865-7.587C120.287,34.016,123.639,28.091,124.958,26.99z
					 M106.245,55.072c5.373-0.193,9.882,4.006,10.076,9.379c0.19,5.371-4.007,9.883-9.382,10.075
					c-5.371,0.189-9.88-4.009-10.07-9.381C96.675,59.773,100.875,55.262,106.245,55.072z M55.308,26.99
					c1.319,1.101,4.671,7.025,6.798,10.928c-2.91,2.214-5.552,4.76-7.865,7.588C47.903,40.686,53.378,25.382,55.308,26.99z
					 M57.491,58.42c5.68-13.12,15.701-12.922,22.512-10.938c8.257,2.405,10.988,13.06,8.927,22.339
					C86.867,79.1,62.467,87.348,57.491,84.941S51.813,71.538,57.491,58.42z"/>
				<path fill="#AA6828" d="M57.491,84.941C62.467,87.348,86.867,79.1,88.93,69.82c2.062-9.279-0.67-19.934-8.927-22.339
					C73.192,45.498,63.171,45.3,57.491,58.42C51.813,71.538,52.516,82.535,57.491,84.941z M73.714,55.072
					c5.369,0.189,9.568,4.701,9.375,10.073c-0.191,5.372-4.7,9.57-10.071,9.381c-5.374-0.192-9.572-4.704-9.381-10.075
					C63.83,59.078,68.339,54.879,73.714,55.072z"/>
				<path fill="#FFFFFF" d="M73.018,74.526c5.371,0.189,9.88-4.009,10.071-9.381c0.193-5.372-4.006-9.884-9.375-10.073
					c-5.375-0.193-9.884,4.006-10.077,9.379C63.445,69.822,67.644,74.334,73.018,74.526z M74.4,60.941
					c2.815,0.672,3.473,3.185,2.718,5.305c-0.436-0.602-1.121-1.075-2.105-1.311c-2.657-0.633-4.701,1.178-5.313,3.218
					C67.204,65.511,69.815,59.848,74.4,60.941z"/>
				<path fill="#353A42" d="M75.013,64.936c0.984,0.235,1.67,0.709,2.105,1.311c0.755-2.12,0.098-4.633-2.718-5.305
					c-4.585-1.094-7.196,4.569-4.701,7.212C70.312,66.113,72.355,64.303,75.013,64.936z"/>
				<path fill="#FFFFFF" d="M106.939,74.526c5.375-0.192,9.572-4.704,9.382-10.075c-0.194-5.373-4.703-9.572-10.076-9.379
					c-5.37,0.189-9.57,4.701-9.376,10.073C97.06,70.518,101.568,74.716,106.939,74.526z M105.559,60.941
					c4.583-1.094,7.193,4.569,4.7,7.212c-0.613-2.04-2.656-3.851-5.313-3.218c-0.986,0.235-1.671,0.709-2.106,1.311
					C102.085,64.126,102.742,61.613,105.559,60.941z"/>
				<path fill="#353A42" d="M104.945,64.936c2.657-0.633,4.7,1.178,5.313,3.218c2.493-2.643-0.117-8.306-4.7-7.212
					c-2.816,0.672-3.474,3.185-2.72,5.305C103.274,65.645,103.959,65.171,104.945,64.936z"/>
				<path fill="#AA6828" d="M105.037,88.857c-0.651,0-1.288,0.049-1.917,0.119c-0.415,4.138-7.871,11.973-12.181,11.973
					c-4.313,0-11.768-7.834-12.183-11.973c-0.63-0.07-1.268-0.119-1.92-0.119c-8.067,0-14.61,5.581-14.61,12.466
					c0,6.884,6.543,12.465,14.61,12.465c6.761,0,12.434-3.923,14.101-9.241c1.668,5.318,7.341,9.241,14.1,9.241
					c8.07,0,14.612-5.581,14.612-12.465C119.649,94.438,113.107,88.857,105.037,88.857z"/>
				<path fill="#181310" d="M90.939,100.949c4.31,0,11.766-7.835,12.181-11.973c0.013-0.119,0.04-0.246,0.04-0.359
					c0-4.023-3.374-7.807-12.221-7.807c-8.85,0-12.223,3.783-12.223,7.807c0,0.113,0.027,0.24,0.04,0.359
					C79.172,93.115,86.627,100.949,90.939,100.949z"/>
				<path fill="#432D20" d="M143.447,91.323c-1.596,12.233-12.309,17.839-16.577,19.606c-0.108-2.281-0.433-4.504-0.938-6.656
					c-8.502,10.324-21.381,16.908-35.8,16.908s-27.299-6.584-35.8-16.908c-0.636,2.709-0.954,5.529-0.954,8.434
					c0,8.418,2.621,16.171,7.621,22.37V164c0,3.313,2.63,6,5.943,6h6c3.313,0,6.057-2.687,6.057-6v-16.25
					c3,1.126,7.287,1.738,11.189,1.738c4.133,0,7.811-0.691,11.811-1.949V164c0,3.313,2.63,6,5.943,6h6c3.313,0,6.057-2.687,6.057-6
					v-29.759c3-4.876,5.858-10.648,6.644-16.913c5.786-2.088,13.157-6.08,16.151-11.338
					C147.559,97.625,143.447,91.323,143.447,91.323z"/>
			</g>
			<path opacity="0.3" fill="#FFFFFF" d="M143.447,91.323c-1.596,12.233-12.309,17.839-16.577,19.606
				c-0.108-2.281-0.433-4.504-0.938-6.656c6.593-8.007,10.553-18.262,10.553-29.443c0-8.232-2.156-15.958-5.92-22.66
				c10.123-8.394,3.561-38.441-4.887-34.846c-7.162,3.049-13.047,12.831-14.828,16.044c-6.236-3.122-13.268-4.89-20.717-4.89
				c-0.063,0-0.126,0.006-0.189,0.006v121c0.063,0.001,0.126,0.004,0.189,0.004c4.133,0,8.102-0.691,11.811-1.949V164
				c0,3.313,2.687,6,6,6h6c3.313,0,6-2.687,6-6v-29.759c3.528-4.876,5.887-10.648,6.672-16.913
				c5.787-2.088,13.171-6.08,16.165-11.338C147.545,97.625,143.447,91.323,143.447,91.323z"/>
		</g>
	</g>
</g>
</svg>
