<?xml version="1.0" encoding="utf-8"?>
<!-- Generator: Adobe Illustrator 16.0.0, SVG Export Plug-In . SVG Version: 6.00 Build 0)  -->
<!DOCTYPE svg PUBLIC "-//W3C//DTD SVG 1.1//EN" "http://www.w3.org/Graphics/SVG/1.1/DTD/svg11.dtd">
<svg version="1.1" id="Layer_1" xmlns="http://www.w3.org/2000/svg" xmlns:xlink="http://www.w3.org/1999/xlink" x="0px" y="0px"
	 width="188px" height="188px" viewBox="0 0 188 188" enable-background="new 0 0 188 188" xml:space="preserve">
<g>
	
		<image overflow="visible" opacity="0.4" width="439" height="756" xlink:href="B481256.png"  transform="matrix(0.24 0 0 0.24 45.1768 4.7002)">
	</image>
	<g>
		<g>
			<g>
				<path fill="#6C90A3" d="M130.442,153.318c-0.049-0.156-0.078-0.302-0.113-0.45c-2.021,1.187-3.956,1.501-5.757,0.92
					c-2.515-0.813-4.81-3.329-6.6-7.174c4.058-5.466,6.46-12.233,6.46-19.563c0-2.592-0.31-5.112-0.878-7.532
					c-2.167,2.633-4.656,4.989-7.402,7.019c-0.009,3.919-2.553,13.054-15.223,16.042c-0.052,1.089-0.104,2.179-0.156,3.268
					c-0.118,2.526-1.971,4.472-4.509,4.413C93.74,150.201,92,148.158,92,145.629v0.584c0,2.375-2.188,4.293-4.563,4.346
					c-0.178,0.004-0.426,0.006-0.607,0.011c-2.373,0.06-4.433-1.768-4.546-4.138c-0.063-1.342-0.15-2.684-0.215-4.025
					c-11.665-3.056-14.339-11.459-14.506-15.48c-2.961-2.115-5.645-4.603-7.954-7.407c-0.567,2.421-0.852,4.94-0.852,7.532
					c0,8.33,3.243,15.931,8.243,21.722v23.169c2-2.79,4.935-4.644,8.5-4.644c3.563,0,6.5,1.854,8.5,4.644v-12.945
					c3,0.589,4.882,0.91,7.522,0.91c2.269,0,4.478-0.23,6.478-0.668v12.069c2-2.431,4.714-4.01,8-4.01s7,1.579,8,4.011v-20.521
					c0-0.388,0.94-0.786,1.326-1.194c2.139,3.979,4.932,6.577,8.078,7.594c0.947,0.306,1.952,0.457,2.936,0.457
					c1.884,0,3.832-0.563,5.734-1.668C131.404,155.485,130.854,154.636,130.442,153.318z"/>
				<path fill="#86A1B0" d="M130.329,152.868c0.035,0.148,0.064,0.294,0.113,0.45c0.411,1.317,0.979,2.167,1.649,2.658
					c3.363,2.471,9.346-4.311,11.438-8.754C143.53,147.223,128.586,145.462,130.329,152.868z"/>
				<path fill="#FDD6BD" d="M75.425,167.298c-3.565,0-6.857,1.854-8.652,4.644C65.762,173.514,65,175.38,65,177.389V179h21v-1.611
					c0-2.009-0.836-3.875-1.848-5.447C82.357,169.151,78.989,167.298,75.425,167.298z"/>
				<path fill="#FDD6BD" d="M106.24,167.298c-3.285,0-6.271,1.579-8.113,4.01C96.844,173,96,175.102,96,177.389V179h20v-1.611
					c0-2.287-0.604-4.389-1.887-6.08C112.271,168.877,109.526,167.298,106.24,167.298z"/>
				<path fill="#86A1B0" d="M67.549,126.926c-0.005-0.143-0.01-0.281-0.01-0.41c0-12.231,14.613-17.645,24.23-17.645
					c9.615,0,24.23,5.413,24.23,17.645c0,0.007,0,0.014,0,0.021c3-2.029,5.313-4.386,7.479-7.019
					c5.889-7.151,9.463-16.313,9.463-26.298c0-15.183-8.157-28.449-20.342-35.655c2.078-3.046,6.707-10.213,8.551-16.253
					c2.414-7.906,2.577-29.583-3.81-31.495c-6.135-1.836-19.32,18.04-17.331,42.863c-2.122-0.439-4.304-0.714-6.531-0.814
					c1.024-0.918,2.213-1.662,3.451-2.46c0.627-0.405,0.394-1.378-0.436-1.224C94.446,48.563,92.76,50,91.613,52
					c-0.012,0-0.022,0-0.035,0c-0.356,0-0.709-0.073-1.063-0.063c0.623-1.963,1.338-3.851,2.45-5.658
					c0.355-0.576-0.386-1.294-0.907-0.817c-1.874,1.719-2.866,3.976-3.028,6.454c-0.145,0.008-0.287,0.017-0.432,0.026
					c-0.623-3.072-0.237-5.818,0.56-8.95c0.253-0.991-0.994-1.674-1.622-0.805c-2.083,2.888-2.345,6.7-1.093,9.96
					c-1.436,0.178-2.848,0.428-4.233,0.749c2.246-23.681-9.385-42.922-15.416-41.443c-6.475,1.588-7.404,23.247-5.389,31.263
					c1.438,5.725,5.246,12.552,7.309,15.992c-11.17,7.414-18.536,20.101-18.536,34.513c0,9.985,3.537,19.146,9.425,26.298
					C61.911,122.323,64.589,124.811,67.549,126.926z M115.678,97.941c0.167,4.654-3.47,8.563-8.127,8.728
					c-4.653,0.166-8.56-3.474-8.726-8.126c-0.167-4.654,3.471-8.562,8.124-8.728C111.604,89.647,115.511,93.287,115.678,97.941z
					 M112.758,23.929c2.761,1.054,1.768,10.78,0.894,15.677c-0.874,4.893-7.076,16.023-7.076,16.023l-2.255-1.432
					C104.241,46.168,109.995,22.875,112.758,23.929z M68.989,41.387c-0.628-4.933-1.132-14.698,1.68-15.611
					c2.812-0.914,7.39,22.637,6.907,30.653l-2.324,1.317C75.252,57.747,69.615,46.32,68.989,41.387z M75.087,89.815
					c4.653,0.166,8.291,4.074,8.124,8.728c-0.166,4.652-4.072,8.292-8.726,8.126c-4.656-0.165-8.294-4.073-8.127-8.728
					C66.525,93.287,70.432,89.647,75.087,89.815z"/>
				<path fill="#FFFFFF" d="M98.825,98.543c0.166,4.652,4.072,8.292,8.726,8.126c4.657-0.165,8.294-4.073,8.127-8.728
					c-0.167-4.655-4.073-8.294-8.729-8.126C102.296,89.981,98.658,93.889,98.825,98.543z M110.076,98.527
					c-0.019,0.537-0.19,1.029-0.452,1.457c-0.484-1.332-1.645-2.46-3.402-2.521c-0.928-0.033-1.635,0.239-2.14,0.688
					c0.145-1.58,1.487-2.795,3.093-2.737C108.835,95.471,110.135,96.867,110.076,98.527z"/>
				<path fill="#353A42" d="M104.082,98.15c0.505-0.448,1.212-0.721,2.14-0.688c1.758,0.062,2.918,1.189,3.402,2.521
					c0.262-0.428,0.434-0.92,0.452-1.457c0.059-1.66-1.241-3.057-2.901-3.114C105.569,95.355,104.227,96.57,104.082,98.15z"/>
				<path fill="#FFFFFF" d="M74.485,106.669c4.653,0.166,8.56-3.474,8.726-8.126c0.167-4.654-3.471-8.562-8.124-8.728
					c-4.655-0.167-8.562,3.472-8.729,8.126C66.191,102.596,69.829,106.504,74.485,106.669z M74.861,95.413
					c1.605-0.058,2.948,1.157,3.093,2.737c-0.505-0.448-1.211-0.721-2.139-0.688c-1.759,0.062-2.919,1.189-3.403,2.521
					c-0.262-0.428-0.433-0.92-0.452-1.457C71.901,96.867,73.201,95.471,74.861,95.413z"/>
				<path fill="#353A42" d="M75.815,97.463c0.928-0.033,1.634,0.239,2.139,0.688c-0.145-1.58-1.487-2.795-3.093-2.737
					c-1.66,0.058-2.96,1.454-2.901,3.114c0.02,0.537,0.19,1.029,0.452,1.457C72.896,98.652,74.057,97.524,75.815,97.463z"/>
				<path fill="#FFFFFF" d="M91.846,143.549c-3.822,0-7.061-0.425-9.804-1.143c0.063,1.342,0.126,2.684,0.189,4.025
					c0.112,2.37,2.12,4.197,4.492,4.138c0.181-0.005,0.535-0.007,0.713-0.011c2.375-0.053,4.563-1.971,4.563-4.346v-0.584
					c0,2.529,1.74,4.572,4.265,4.631c2.538,0.059,4.496-1.887,4.615-4.413c0.05-1.089,0.05-2.179,0.103-3.268
					C98.396,143.188,95.343,143.549,91.846,143.549z"/>
				<path fill="#B6C6D0" d="M91.77,108.871c-9.617,0-24.269,5.413-24.269,17.645c0,0.129,0.023,0.268,0.028,0.41
					c0.167,4.021,2.838,12.425,14.504,15.48c2.742,0.718,5.985,1.143,9.809,1.143c3.496,0,6.423-0.36,9.011-0.97
					c12.67-2.988,15.147-12.123,15.147-16.042c0-0.008,0-0.015,0-0.021C116,114.284,101.385,108.871,91.77,108.871z M105.088,128.6
					c0.621,3.822-6.547,6.466-6.547,6.466C97.293,126.96,104.463,124.779,105.088,128.6z M78.069,128.6
					c0.624-3.82,7.795-1.64,6.547,6.466C84.616,135.065,77.447,132.422,78.069,128.6z"/>
				<path fill="#3F4A50" d="M98.541,135.065c0,0,7.168-2.644,6.547-6.466C104.463,124.779,97.293,126.96,98.541,135.065z"/>
				<path fill="#3F4A50" d="M78.069,128.6c-0.622,3.822,6.547,6.466,6.547,6.466C85.864,126.96,78.693,124.779,78.069,128.6z"/>
				<path fill="#FDD6BD" d="M77.576,56.43c0.482-8.016-4.096-31.567-6.907-30.653c-2.812,0.913-2.308,10.678-1.68,15.611
					c0.626,4.933,6.263,16.36,6.263,16.36L77.576,56.43z"/>
				<path fill="#FDD6BD" d="M106.575,55.629c0,0,6.202-11.13,7.076-16.023c0.874-4.896,1.867-14.623-0.894-15.677
					c-2.763-1.054-8.517,22.239-8.438,30.268L106.575,55.629z"/>
			</g>
			<path opacity="0.3" fill="#FFFFFF" d="M130.329,152.868c-2.022,1.187-3.957,1.501-5.757,0.92c-2.515-0.813-4.81-3.329-6.6-7.174
				c4.058-5.466,6.46-12.233,6.46-19.563c0-2.592-0.31-5.112-0.878-7.532c5.889-7.151,9.426-16.313,9.426-26.298
				c0-15.183-8.177-28.449-20.362-35.655c2.078-3.046,6.698-10.213,8.542-16.253c2.414-7.906,2.572-29.583-3.814-31.495
				c-6.135-1.836-19.322,18.04-17.333,42.863c-2.122-0.439-4.305-0.714-6.532-0.814c1.024-0.918,2.211-1.662,3.449-2.46
				c0.628-0.405,0.394-1.296-0.436-1.142c-2.026,0.376-3.698,2.079-4.843,3.845v107.795c2.243-0.006,4.435-0.234,6.55-0.666v12.051
				c-0.847,1.478-2.018,3.447-2.018,5.271l-0.033,1.852l20.258,0.178v-1.611c0-2.685-0.419-3.877-2.129-5.684v-20.507
				c0.406-0.388,0.801-0.786,1.187-1.194c2.139,3.979,4.861,6.577,8.009,7.594c0.947,0.306,1.918,0.457,2.899,0.457
				c1.885,0,3.815-0.563,5.718-1.668c3.365,2.471,9.347-4.311,11.438-8.754C143.53,147.223,128.585,145.462,130.329,152.868z"/>
			<path fill="#C6772A" d="M91.651,48.902c0.375-0.881,0.799-1.746,1.313-2.582c0.355-0.576-0.386-1.315-0.907-0.837
				c-0.145,0.132-0.272,0.272-0.406,0.41V48.902z"/>
		</g>
	</g>
</g>
</svg>
