<?xml version="1.0" encoding="utf-8"?>
<!-- Generator: Adobe Illustrator 16.0.0, SVG Export Plug-In . SVG Version: 6.00 Build 0)  -->
<!DOCTYPE svg PUBLIC "-//W3C//DTD SVG 1.1//EN" "http://www.w3.org/Graphics/SVG/1.1/DTD/svg11.dtd">
<svg version="1.1" id="Layer_1" xmlns="http://www.w3.org/2000/svg" xmlns:xlink="http://www.w3.org/1999/xlink" x="0px" y="0px"
	 width="188px" height="188px" viewBox="0 0 188 188" enable-background="new 0 0 188 188" xml:space="preserve">
<g>
	
		<image overflow="visible" opacity="0.4" width="432" height="706" xlink:href="F4C05ACF.png"  transform="matrix(0.24 0 0 0.24 41.3926 10.1636)">
	</image>
	<g>
		<g>
			<g>
				<path fill="#FDBA12" d="M88,156.633v10.793c0,0-13.163-1.334-13.347,3c-0.182,4.333,17.304,0.666,17.304,0.666
					s17.521,3.667,17.338-0.666c-0.182-4.334-13.295-3-13.295-3v-10.742c-1,0.153-2.513,0.242-3.801,0.242
					C90.773,156.926,89,156.82,88,156.633z"/>
				<path fill="#AA6828" d="M63.714,114.447c-2.706,2.404-6.034,6.129-8.854,11.625c-5.883,11.459-6.881,24.037,3.916,18.233
					c0,0,0.881,9.315,8.455,4.63c0.786-0.486,1.419-1.297,1.936-2.333c-4.833-5.433-7.773-12.585-7.773-20.427
					C61.393,122.021,62.221,118.063,63.714,114.447z"/>
				<path fill="#AA6828" d="M120.571,114.447c1.493,3.615,2.321,7.574,2.321,11.729c0,7.842-2.94,14.994-7.773,20.427
					c0.517,1.036,1.149,1.847,1.936,2.333c7.574,4.686,8.455-4.63,8.455-4.63c10.795,5.804,9.797-6.774,3.916-18.233
					C126.605,120.576,123.277,116.852,120.571,114.447z"/>
				<path fill="#C6772A" d="M120.571,114.447c-0.533-1.291-1.154-2.536-1.852-3.732c-0.003,0.003-0.006,0.005-0.009,0.007
					c0.82,1.409,1.541,2.884,2.133,4.423c-0.996,0.611-2.012,1.199-3.041,1.764c-1.123,0.507-2.288,1.037-3.537,1.559
					c-0.261,0.594-0.556,1.197-0.902,1.815c-2.072,3.688-7.305,8.477-20.971,8.477c-13.668,0-19.174-4.788-21.246-8.477
					c-0.547-0.974-0.977-1.917-1.318-2.831c-2.021-0.822-4.063-1.697-6.23-2.586c0.566-1.432,1.238-2.809,2.003-4.125
					c-0.012-0.008-0.023-0.017-0.035-0.025c-0.697,1.196-1.318,2.441-1.852,3.732c-1.493,3.615-2.321,7.574-2.321,11.729
					c0,7.842,2.94,14.994,7.773,20.427c4.754,5.344,11.342,9.014,18.777,10.03c1.374,0.188,2.773,0.293,4.199,0.293
					c1.288,0,2.555-0.089,3.801-0.242c7.599-0.938,14.337-4.643,19.176-10.081c4.833-5.433,7.773-12.585,7.773-20.427
					C122.893,122.021,122.064,118.063,120.571,114.447z"/>
				<path fill="#FFFFFF" d="M65.601,110.74c-0.765,1.316-1.437,2.693-2.003,4.125c2.168,0.889,4.21,1.764,6.23,2.586
					c-0.61-1.635-0.921-3.174-1.026-4.616C67.703,112.182,66.638,111.48,65.601,110.74z"/>
				<path fill="#FFFFFF" d="M115.687,112.718c-0.101,1.771-0.517,3.688-1.421,5.749c1.249-0.521,2.414-1.052,3.537-1.559
					c1.029-0.564,2.045-1.152,3.041-1.764c-0.592-1.539-1.313-3.014-2.133-4.423C117.729,111.424,116.724,112.094,115.687,112.718z"
					/>
				<path fill="#6BB38A" d="M68.802,112.835c-0.508-7.009,3.807-11.735,1.806-14.048c-4.031-4.664-11.486-5.855-10.436-10.414
					c1.053-4.559,18.998-1.053,22.855-2.455c3.818-1.391,5.234-9.295,9.002-9.455c0.039-0.002,0.074-0.014,0.113-0.014
					s0.074,0.012,0.111,0.014c3.77,0.16,5.186,8.064,9.004,9.455c3.857,1.402,21.803-2.104,22.855,2.455
					c1.051,4.559-6.383,5.75-10.414,10.414c-1.989,2.301,2.384,6.985,1.987,13.931c1.037-0.624,2.043-1.294,3.024-1.996
					c0.003-0.002,0.006-0.004,0.009-0.007c11.603-8.298,19.173-21.874,19.173-37.227c0-24.293-18.938-44.153-42.854-45.648
					c0.996-2.229,2.428-4.156,3.619-6.275c0.391-0.693-0.115-1.945-1.076-1.63c-1.486,0.488-2.76,1.28-3.826,2.279
					c0.959-2.221,2.24-4.305,3.447-6.427c0.15-0.263-0.043-0.716-0.4-0.607c-5.371,1.645-7.879,7.086-8.648,12.742
					c-23.398,2.023-41.762,21.645-41.762,45.566c0,15.353,7.57,28.929,19.173,37.227c0.012,0.009,0.023,0.018,0.035,0.025
					C66.638,111.48,67.703,112.182,68.802,112.835z M109.039,70.268c3.342,0,6.051,2.709,6.051,6.05c0,3.342-2.709,6.05-6.051,6.05
					c-3.34,0-6.049-2.708-6.049-6.05C102.99,72.977,105.699,70.268,109.039,70.268z M75.021,70.268c3.34,0,6.049,2.709,6.049,6.05
					c0,3.342-2.709,6.05-6.049,6.05c-3.344,0-6.053-2.708-6.053-6.05C68.969,72.977,71.678,70.268,75.021,70.268z"/>
				<path fill="#FFFFFF" d="M75.021,82.367c3.34,0,6.049-2.708,6.049-6.05c0-3.341-2.709-6.05-6.049-6.05
					c-3.344,0-6.053,2.709-6.053,6.05C68.969,79.659,71.678,82.367,75.021,82.367z M75.021,73.621c1.438,0,2.602,1.131,2.68,2.55
					c-0.438-0.419-1.063-0.685-1.893-0.685c-1.578,0-2.65,0.974-3.127,2.15c-0.221-0.393-0.357-0.838-0.357-1.319
					C72.324,74.828,73.529,73.621,75.021,73.621z"/>
				<path fill="#353A42" d="M75.809,75.486c0.83,0,1.455,0.266,1.893,0.685c-0.078-1.419-1.242-2.55-2.68-2.55
					c-1.492,0-2.697,1.207-2.697,2.696c0,0.481,0.137,0.927,0.357,1.319C73.158,76.46,74.23,75.486,75.809,75.486z"/>
				<path fill="#FFFFFF" d="M109.039,82.367c3.342,0,6.051-2.708,6.051-6.05c0-3.341-2.709-6.05-6.051-6.05
					c-3.34,0-6.049,2.709-6.049,6.05C102.99,79.659,105.699,82.367,109.039,82.367z M109.039,73.621c1.49,0,2.697,1.207,2.697,2.696
					c0,0.481-0.137,0.927-0.357,1.319c-0.477-1.177-1.551-2.15-3.127-2.15c-0.832,0-1.457,0.266-1.895,0.685
					C106.436,74.752,107.602,73.621,109.039,73.621z"/>
				<path fill="#353A42" d="M111.379,77.637c0.221-0.393,0.357-0.838,0.357-1.319c0-1.489-1.207-2.696-2.697-2.696
					c-1.438,0-2.604,1.131-2.682,2.55c0.438-0.419,1.063-0.685,1.895-0.685C109.828,75.486,110.902,76.46,111.379,77.637z"/>
				<path fill="#FDBA12" d="M115.687,112.718c0.396-6.945-3.977-11.63-1.987-13.931c4.031-4.664,11.465-5.855,10.414-10.414
					c-1.053-4.559-18.998-1.053-22.855-2.455c-3.818-1.391-5.234-9.295-9.004-9.455c-0.037-0.002-0.072-0.014-0.111-0.014
					s-0.074,0.012-0.113,0.014c-3.768,0.16-5.184,8.064-9.002,9.455c-3.857,1.402-21.803-2.104-22.855,2.455
					c-1.051,4.559,6.404,5.75,10.436,10.414c2.001,2.313-2.313,7.039-1.806,14.048c0.105,1.442,0.416,2.981,1.026,4.616
					c0.342,0.914,0.771,1.857,1.318,2.831c2.072,3.688,7.578,8.477,21.246,8.477c13.666,0,18.898-4.788,20.971-8.477
					c0.347-0.618,0.642-1.222,0.902-1.815C115.17,116.405,115.586,114.488,115.687,112.718z M78.07,102.26
					c3.273,3.778,0.67,5.96-0.588,4.953C75.5,105.627,78.07,102.26,78.07,102.26z M105.99,102.26c0,0,2.57,3.367,0.588,4.953
					C105.318,108.22,102.715,106.038,105.99,102.26z"/>
				<path fill="#C6772A" d="M77.482,107.213c1.258,1.007,3.861-1.175,0.588-4.953C78.07,102.26,75.5,105.627,77.482,107.213z"/>
				<path fill="#C6772A" d="M106.578,107.213c1.982-1.586-0.588-4.953-0.588-4.953C102.715,106.038,105.318,108.22,106.578,107.213z
					"/>
			</g>
			<path opacity="0.3" fill="#FFFFFF" d="M120.571,114.447c-0.533-1.291-1.154-2.536-1.852-3.732
				c11.603-8.298,19.173-21.874,19.173-37.227c0-24.293-18.938-44.153-42.854-45.648c0.996-2.229,2.428-4.156,3.619-6.275
				c0.391-0.693-0.115-1.945-1.076-1.63c-1.486,0.488-2.76,1.28-3.826,2.279c0.959-2.221,2.24-4.305,3.447-6.427
				c0.15-0.263-0.043-0.716-0.4-0.607c-1.997,0.611-3.597,1.749-4.859,3.226v152.687c0,0,17.5,3.667,17.316-0.666
				c-0.182-4.334-13.316-3-13.316-3v-10.742c7.599-0.938,14.337-4.643,19.176-10.081c0.517,1.036,1.149,1.847,1.936,2.333
				c7.574,4.686,8.455-4.63,8.455-4.63c10.795,5.804,9.797-6.774,3.916-18.233C126.605,120.576,123.277,116.852,120.571,114.447z"/>
		</g>
	</g>
</g>
</svg>
