<?xml version="1.0" encoding="utf-8"?>
<!-- Generator: Adobe Illustrator 16.0.0, SVG Export Plug-In . SVG Version: 6.00 Build 0)  -->
<!DOCTYPE svg PUBLIC "-//W3C//DTD SVG 1.1//EN" "http://www.w3.org/Graphics/SVG/1.1/DTD/svg11.dtd">
<svg version="1.1" id="Layer_1" xmlns="http://www.w3.org/2000/svg" xmlns:xlink="http://www.w3.org/1999/xlink" x="0px" y="0px"
	 width="188px" height="188px" viewBox="0 0 188 188" enable-background="new 0 0 188 188" xml:space="preserve">
<g>
	
		<image overflow="visible" opacity="0.4" width="662" height="689" xlink:href="604CCAFF.png"  transform="matrix(0.24 0 0 0.24 16.6611 13.772)">
	</image>
	<g>
		<g>
			<g>
				<path fill="#3C6372" d="M59.236,105.798c-6.592-8.007-10.552-18.263-10.552-29.443c0-17.014,9.171-31.877,22.835-39.94
					c-5.201-2.227-11.256-3.672-18.028-3.365c-25.632,1.158-32.741,38.776-20.284,68.452c5.238,12.48,15.234,14.78,25.061,13.256
					c-0.003-0.176-0.014-0.35-0.014-0.526C58.254,111.327,58.601,108.507,59.236,105.798z"/>
				<path fill="#86A1B0" d="M141.685,28.18c-14.468-0.877-25.565,1.864-32.087,4.169c-3.938-1.302-8.105-2.097-12.432-2.293
					c1.146-1.027,2.475-1.861,3.861-2.754c0.703-0.454,0.44-1.646-0.487-1.474C98.247,26.254,96.358,28,95.076,30
					c-0.014,0-0.027,0-0.04,0c-0.399,0-0.794,0.021-1.19,0.031c0.697-2.196,1.497-4.26,2.743-6.281
					c0.397-0.645-0.433-1.425-1.017-0.889c-2.098,1.924-3.208,4.463-3.391,7.236c-0.162,0.01-0.321,0.025-0.482,0.037
					c-0.697-3.439-0.266-6.511,0.626-10.018c0.283-1.109-1.112-1.872-1.815-0.898c-2.332,3.233-2.625,7.501-1.224,11.151
					c-3.046,0.377-5.998,1.047-8.831,1.985c-6.52-2.307-17.624-5.054-32.104-4.176c-25.666,1.557-33.165,43.647-21,76.668
					c6.399,17.37,20.134,19.222,31.716,17.077c-0.493-2.315-0.765-4.713-0.799-7.168c-9.826,1.524-19.822-0.775-25.061-13.256
					C20.75,71.825,27.859,34.207,53.491,33.049c6.772-0.307,12.827,1.139,18.028,3.365c-13.664,8.063-22.835,22.927-22.835,39.94
					c0,11.181,3.96,21.437,10.552,29.443c2.637,3.201,5.701,6.033,9.094,8.431l-0.017,0.002c0,0,10.804,13.118,15.945,26.988
					c1.408,3.799,3.433,6.954,5.868,9.458c3.59,3.689,8.078,5.945,12.816,6.767c6.041,1.048,12.48-0.262,18-3.996
					c2.582-1.746,4.963-4.011,7.002-6.825c0.76-1.051,1.465-2.188,2.125-3.389c1.73-3.154,3.098-6.81,3.947-11.008
					c0,0,0.218-2.45-4.885-4.198c-0.347-0.119-0.717-0.235-1.115-0.347c-8-2.5-8.973,1.051-8.973,1.051s-5.694,11.615-12.694,11.699
					s-5.918-13.916,6.041-20.583c1.419-0.791,2.745-1.579,3.994-2.354c4.581-2.383,8.712-5.506,12.237-9.214
					c1.074-1.008,1.619-1.606,1.619-1.606l-0.182,0.022c0.26-0.299,0.523-0.593,0.775-0.898
					c6.592-8.006,10.552-18.262,10.552-29.442c0-17.02-9.179-31.889-22.851-39.949c5.196-2.222,11.243-3.662,18.007-3.356
					c25.632,1.158,32.741,38.776,20.284,68.452c-5.232,12.465-15.21,14.773-25.023,13.261c-0.035,2.456-0.307,4.854-0.801,7.17
					c11.575,2.134,25.287,0.269,31.681-17.084C174.85,71.827,167.351,29.736,141.685,28.18z M76.573,72.542
					c5.209,0.186,9.282,4.561,9.095,9.771c-0.186,5.21-4.559,9.283-9.769,9.099c-5.213-0.187-9.285-4.562-9.099-9.772
					C66.988,76.429,71.361,72.356,76.573,72.542z M121.608,128.997c0.227-0.713,2.848-0.517,5.856,0.438
					c3.007,0.956,5.261,2.309,5.034,3.021c-0.227,0.714-2.849,0.518-5.855-0.438C123.636,131.064,121.382,129.71,121.608,128.997z
					 M122.017,81.64c0.188,5.211-3.885,9.586-9.099,9.772c-5.21,0.185-9.583-3.889-9.769-9.099
					c-0.188-5.211,3.886-9.586,9.095-9.771C117.456,72.356,121.83,76.429,122.017,81.64z"/>
				<path fill="#3C6372" d="M131.805,114.762c9.813,1.513,19.791-0.796,25.023-13.261c12.457-29.676,5.348-67.294-20.284-68.452
					c-6.764-0.306-12.811,1.135-18.007,3.356c13.672,8.061,22.851,22.93,22.851,39.949c0,11.181-3.96,21.437-10.552,29.442
					c0.636,2.71,0.982,5.53,0.982,8.434C131.818,114.409,131.808,114.584,131.805,114.762z"/>
				<path fill="#6C90A3" d="M130.746,147.97c1.061,0.342,2.146,0.512,3.246,0.512c2.109,0,4.271-0.631,6.4-1.866
					c-0.75-0.551-1.386-1.503-1.846-2.978c-0.055-0.175-0.088-0.337-0.127-0.504c-2.265,1.329-4.432,1.681-6.445,1.029
					c-0.649-0.21-1.285-0.522-1.904-0.93c-0.66,1.2-1.365,2.338-2.125,3.389C128.84,147.2,129.773,147.656,130.746,147.97z"/>
				<path fill="#86A1B0" d="M140.393,146.615c3.768,2.766,10.465-4.827,12.807-9.802c0,0-16.732-1.972-14.779,6.32
					c0.039,0.167,0.072,0.329,0.127,0.504C139.007,145.112,139.643,146.064,140.393,146.615z"/>
				<path fill="#FDD6BD" d="M77.443,159.289c-3.99,0-7.563,2.074-9.573,5.198c-1.132,1.761-1.87,3.851-1.87,6.099V172h23v-1.414
					c0-2.248-0.794-4.338-1.927-6.098C85.063,161.363,81.434,159.289,77.443,159.289z"/>
				<path fill="#5A839A" d="M103,157.443v6.744c2-2.957,5.443-4.898,9.307-4.898c3.496,0,6.693,1.59,8.693,4.086v-9.928
					C115,157.182,109,158.491,103,157.443z"/>
				<path fill="#FDD6BD" d="M112.25,159.289c-3.863,0-7.246,1.941-9.283,4.898c-1.253,1.819-1.967,4.021-1.967,6.398V172h23v-1.414
					c0-2.742-1.205-5.255-2.83-7.211C119.098,160.879,115.746,159.289,112.25,159.289z"/>
				<path fill="#5A839A" d="M131.818,114.23c0-2.903-0.347-5.724-0.982-8.434c-0.252,0.306-0.516,0.6-0.775,0.898l0.182-0.022
					c0,0-0.545,0.599-1.619,1.606c-3.525,3.708-7.656,6.831-12.237,9.214c-1.249,0.775-2.575,1.563-3.994,2.354
					c-11.959,6.667-13.041,20.667-6.041,20.583s12.694-11.699,12.694-11.699s0.973-3.551,8.973-1.051
					c0.398,0.111,0.769,0.228,1.115,0.347c0.792-1.955,1.424-3.991,1.871-6.096c0.494-2.316,0.766-4.714,0.801-7.17
					C131.808,114.584,131.818,114.409,131.818,114.23z"/>
				<path fill="#5A839A" d="M84.259,141.219c-5.142-13.87-15.945-26.988-15.945-26.988l0.017-0.002
					c-3.393-2.397-6.457-5.229-9.094-8.431c-0.636,2.709-0.982,5.529-0.982,8.433c0,0.177,0.011,0.351,0.014,0.526
					c0.034,2.455,0.334,4.853,0.827,7.168C60.486,128.463,64,134.356,68,139.103v25.385c2-3.124,5.51-5.198,9.5-5.198
					s7.5,2.074,9.5,5.199v-14.38c1,0.235,2.078,0.425,3.155,0.568C87.719,148.173,85.667,145.018,84.259,141.219z"/>
				<path fill="#FFFFFF" d="M103.149,82.313c0.186,5.21,4.559,9.283,9.769,9.099c5.214-0.187,9.286-4.562,9.099-9.772
					c-0.187-5.211-4.561-9.283-9.772-9.098C107.035,72.728,102.962,77.103,103.149,82.313z M115.745,82.296
					c-0.021,0.602-0.213,1.152-0.506,1.632c-0.542-1.491-1.841-2.755-3.81-2.823c-1.038-0.037-1.83,0.268-2.395,0.77
					c0.161-1.77,1.665-3.129,3.462-3.064C114.355,78.874,115.811,80.437,115.745,82.296z"/>
				<path fill="#353A42" d="M109.035,81.874c0.564-0.502,1.356-0.807,2.395-0.77c1.969,0.068,3.268,1.332,3.81,2.823
					c0.293-0.479,0.485-1.03,0.506-1.632c0.065-1.859-1.39-3.422-3.248-3.486C110.7,78.745,109.196,80.104,109.035,81.874z"/>
				<path fill="#FFFFFF" d="M75.899,91.412c5.21,0.185,9.583-3.889,9.769-9.099c0.188-5.211-3.886-9.586-9.095-9.771
					c-5.212-0.186-9.585,3.887-9.772,9.098C66.614,86.851,70.687,91.226,75.899,91.412z M76.32,78.81
					c1.797-0.064,3.301,1.295,3.463,3.064c-0.565-0.502-1.356-0.807-2.395-0.77c-1.97,0.068-3.268,1.332-3.811,2.823
					c-0.293-0.479-0.484-1.03-0.506-1.632C73.007,80.437,74.462,78.874,76.32,78.81z"/>
				<path fill="#353A42" d="M77.389,81.104c1.038-0.037,1.829,0.268,2.395,0.77c-0.162-1.77-1.666-3.129-3.463-3.064
					c-1.858,0.064-3.313,1.627-3.248,3.486c0.021,0.602,0.213,1.152,0.506,1.632C74.121,82.437,75.419,81.173,77.389,81.104z"/>
				
					<ellipse transform="matrix(-0.3029 0.953 -0.953 -0.3029 290.1257 49.2405)" fill="#526D7A" cx="127.054" cy="130.728" rx="1.356" ry="5.713"/>
			</g>
			<path opacity="0.3" fill="#FFFFFF" d="M141.685,28.18c-14.468-0.877-25.565,1.864-32.087,4.169
				c-3.938-1.302-8.105-2.097-12.432-2.293c1.146-1.027,2.475-1.861,3.861-2.754c0.703-0.454,0.44-1.646-0.487-1.474
				C98.247,26.254,96.357,28,95.076,30h-0.04c-0.255,0-0.507,0.011-0.759,0.02v124.043c2.671,1.719,5.615,2.852,8.666,3.381v6.744
				c-1.253,1.819-2,4.021-2,6.398V172h23v-1.414c0-2.742-1.375-5.255-3-7.211v-9.928c2.582-1.746,4.963-4.011,7.002-6.825
				c0.895,0.578,1.828,1.034,2.801,1.348c1.061,0.342,2.146,0.512,3.246,0.512c2.109,0,4.271-0.631,6.4-1.866
				c3.768,2.766,10.465-4.827,12.807-9.802c0,0-16.732-1.972-14.779,6.32c-2.265,1.329-4.43,1.681-6.445,1.029
				c-0.649-0.21-1.285-0.522-1.904-0.93c1.73-3.154,3.098-6.81,3.947-11.008c0,0,0.218-2.45-4.885-4.198
				c0.792-1.955,1.424-3.991,1.871-6.096c11.575,2.134,25.287,0.269,31.681-17.084C174.85,71.827,167.351,29.736,141.685,28.18z"/>
		</g>
	</g>
</g>
</svg>
