<?xml version="1.0" encoding="utf-8"?>
<!-- Generator: Adobe Illustrator 16.0.0, SVG Export Plug-In . SVG Version: 6.00 Build 0)  -->
<!DOCTYPE svg PUBLIC "-//W3C//DTD SVG 1.1//EN" "http://www.w3.org/Graphics/SVG/1.1/DTD/svg11.dtd">
<svg version="1.1" id="Layer_1" xmlns="http://www.w3.org/2000/svg" xmlns:xlink="http://www.w3.org/1999/xlink" x="0px" y="0px"
	 width="188px" height="188px" viewBox="0 0 188 188" enable-background="new 0 0 188 188" xml:space="preserve">
<g>
	
		<image overflow="visible" opacity="0.4" width="432" height="731" xlink:href="2D22F09C.png"  transform="matrix(0.24 0 0 0.24 41.9756 7.0664)">
	</image>
	<g>
		<g>
			<g>
				<path fill="#FDBA12" d="M92.781,159.676c-1.281,0-2.781-0.088-3.781-0.24v10.74c0,0-13.163-1.334-13.346,3
					s17.304,0.666,17.304,0.666s17.521,3.668,17.339-0.666c-0.184-4.334-13.297-3-13.297-3v-10.795
					C96,159.57,94.214,159.676,92.781,159.676z"/>
				<path fill="#FFFFFF" d="M121.154,117.198c-0.533-1.291-1.154-2.536-1.852-3.732c11.603-8.298,19.173-21.874,19.173-37.228
					c0-23.539-17.78-42.914-40.64-45.456c-2.045,1.885-4.801,3.578-7.86,4.394c0,0-0.962-1.785-1.738-4.447
					c-23.158,2.258-41.262,21.76-41.262,45.51c0,15.354,7.57,28.93,19.173,37.228c-0.697,1.196-1.318,2.441-1.852,3.732
					c-2.707,2.404-6.033,6.129-8.854,11.625c-5.882,11.458-6.88,24.036,3.916,18.233c0,0,0.881,9.314,8.455,4.63
					c0.786-0.486,1.419-1.297,1.936-2.334c4.843,5.443,11.589,9.149,19.194,10.083c1.24,0.152,2.501,0.24,3.782,0.24
					c1.433,0,2.839-0.105,4.218-0.295c7.429-1.021,14.009-4.688,18.759-10.028c0.517,1.037,1.149,1.848,1.936,2.334
					c7.574,4.685,8.455-4.63,8.455-4.63c10.796,5.803,9.798-6.775,3.916-18.233C127.188,123.327,123.861,119.603,121.154,117.198z
					 M93.255,133.266c-10.169,0-18.412-8.242-18.412-18.412c0-3.648,1.075-7.039,2.905-9.9c-1.633,0.657-3.413,1.028-5.281,1.028
					c-7.824,0-14.168-6.343-14.168-14.168c0-6.205,3.996-11.465,9.549-13.382c-3.385-2.589-5.577-6.657-5.577-11.248
					c0-7.824,6.344-14.168,14.169-14.168c7.823,0,14.169,6.344,14.169,14.168c0,1.925-0.388,3.758-1.083,5.431
					c0.91-0.166,1.844-0.266,2.802-0.266c1.271,0,2.499,0.17,3.681,0.458c-0.746-1.724-1.165-3.624-1.165-5.623
					c0-7.824,6.345-14.168,14.169-14.168c7.825,0,14.167,6.344,14.167,14.168c0,4.591-2.192,8.658-5.575,11.248
					c5.553,1.917,9.549,7.177,9.549,13.382c0,7.825-6.344,14.168-14.169,14.168c-1.369,0-2.688-0.205-3.941-0.567
					c1.655,2.763,2.625,5.984,2.625,9.439C111.667,125.023,103.424,133.266,93.255,133.266z"/>
				<path fill="#D65228" d="M111.667,114.854c0-3.455-0.97-6.677-2.625-9.439c1.253,0.362,2.572,0.567,3.941,0.567
					c7.825,0,14.169-6.343,14.169-14.168c0-6.205-3.996-11.465-9.549-13.382c3.383-2.59,5.575-6.657,5.575-11.248
					c0-7.824-6.342-14.168-14.167-14.168c-7.824,0-14.169,6.344-14.169,14.168c0,1.999,0.419,3.899,1.165,5.623
					c-1.182-0.288-2.41-0.458-3.681-0.458c-0.958,0-1.892,0.1-2.802,0.266c0.695-1.673,1.083-3.506,1.083-5.431
					c0-7.824-6.346-14.168-14.169-14.168c-7.825,0-14.169,6.344-14.169,14.168c0,4.591,2.192,8.659,5.577,11.248
					c-5.553,1.917-9.549,7.177-9.549,13.382c0,7.825,6.344,14.168,14.168,14.168c1.868,0,3.648-0.371,5.281-1.028
					c-1.83,2.861-2.905,6.252-2.905,9.9c0,10.17,8.243,18.412,18.412,18.412S111.667,125.023,111.667,114.854z M105.901,65.199
					c3.317-1.102,6.901,0.695,8.004,4.014c1.102,3.318-0.696,6.901-4.014,8.003c-3.318,1.103-6.902-0.694-8.005-4.013
					C100.785,69.886,102.583,66.301,105.901,65.199z M93.167,80.437c0,0,5.932,6.591,11.986,6.618
					c4.102,0.018,4.896,2.773,4.49,4.806c-0.66,3.295-14.5,12.522-16.477,16.257C91.189,104.383,77.35,95.155,76.69,91.86
					c-0.406-2.032,0.389-4.788,4.489-4.806C87.234,87.027,93.167,80.437,93.167,80.437z M71.937,69.213
					c1.104-3.318,4.687-5.115,8.004-4.014c3.318,1.102,5.116,4.687,4.015,8.004c-1.104,3.318-4.686,5.115-8.005,4.013
					C72.632,76.114,70.836,72.531,71.937,69.213z"/>
				<path fill="#FFFFFF" d="M75.95,77.216c3.319,1.103,6.901-0.694,8.005-4.013c1.102-3.317-0.696-6.902-4.015-8.004
					c-3.317-1.102-6.9,0.695-8.004,4.014C70.836,72.531,72.632,76.114,75.95,77.216z M74.152,69.948
					c0.695-2.097,2.958-3.231,5.054-2.536c2.095,0.697,3.23,2.959,2.533,5.056c-0.087,0.268-0.202,0.519-0.338,0.753
					c-0.416-0.732-1.138-1.346-2.232-1.711c-1.975-0.655-3.741-0.001-4.935,1.184C73.896,71.846,73.841,70.881,74.152,69.948z"/>
				<path fill="#353A42" d="M79.169,71.51c1.095,0.365,1.816,0.979,2.232,1.711c0.136-0.234,0.251-0.485,0.338-0.753
					c0.697-2.097-0.438-4.358-2.533-5.056c-2.096-0.695-4.358,0.439-5.054,2.536c-0.312,0.933-0.257,1.897,0.082,2.745
					C75.428,71.509,77.194,70.854,79.169,71.51z"/>
				<path fill="#FFFFFF" d="M109.892,77.216c3.317-1.102,5.115-4.685,4.014-8.003c-1.103-3.318-4.687-5.115-8.004-4.014
					c-3.318,1.102-5.116,4.687-4.015,8.004C102.989,76.521,106.573,78.318,109.892,77.216z M106.636,67.412
					c2.096-0.695,4.357,0.439,5.054,2.536c0.312,0.933,0.257,1.897-0.083,2.745c-1.192-1.185-2.96-1.839-4.934-1.184
					c-1.096,0.365-1.816,0.979-2.232,1.711c-0.136-0.234-0.25-0.485-0.339-0.753C103.405,70.371,104.541,68.109,106.636,67.412z"/>
				<path fill="#353A42" d="M104.44,73.221c0.416-0.732,1.137-1.346,2.232-1.711c1.974-0.655,3.741-0.001,4.934,1.184
					c0.34-0.848,0.395-1.813,0.083-2.745c-0.696-2.097-2.958-3.231-5.054-2.536c-2.095,0.697-3.23,2.959-2.534,5.056
					C104.19,72.735,104.305,72.986,104.44,73.221z"/>
				<path fill="#FDBA12" d="M81.18,87.055c-4.101,0.018-4.896,2.773-4.489,4.806c0.659,3.295,14.499,12.522,16.477,16.257
					c1.977-3.734,15.816-12.962,16.477-16.257c0.405-2.032-0.389-4.788-4.49-4.806c-6.055-0.027-11.986-6.618-11.986-6.618
					S87.234,87.027,81.18,87.055z M101.949,89.424c1.496,1.196-0.598,3.438-2.69,3.438C99.257,90.175,100.454,88.228,101.949,89.424
					z M84.385,89.424c1.495-1.196,2.691,0.751,2.691,3.438C84.982,92.861,82.89,90.62,84.385,89.424z"/>
				<path fill="#CF7228" d="M84.385,89.424c-1.495,1.196,0.598,3.438,2.691,3.438C87.076,90.175,85.88,88.228,84.385,89.424z"/>
				<path fill="#CF7228" d="M101.949,89.424c-1.495-1.196-2.692,0.751-2.69,3.438C101.352,92.861,103.445,90.62,101.949,89.424z"/>
				<path fill="#D65228" d="M97.836,30.782c2.967-2.736,4.424-5.88,3.021-7.366c-1.896-2.01-3.563-0.803-4.151-0.241
					c4.891-5.13,0.909-16.372-6.098-8.249c-4.375,5.071-3.61,11.556-2.371,15.803c0.776,2.662,1.738,4.447,1.738,4.447
					C93.035,34.36,95.791,32.667,97.836,30.782z"/>
			</g>
			<path opacity="0.3" fill="#FFFFFF" d="M121.154,117.198c-0.533-1.291-1.154-2.536-1.852-3.732
				c11.603-8.298,19.173-21.874,19.173-37.228c0-23.539-17.78-42.914-40.64-45.456c2.967-2.736,4.424-5.88,3.021-7.366
				c-1.896-2.01-3.563-0.803-4.151-0.241c4.315-4.526,1.722-13.804-3.763-10.345v161.012c0,0,17.5,3.668,17.318-0.666
				c-0.184-4.334-13.318-3-13.318-3v-10.795c7.429-1.021,14.009-4.688,18.759-10.028c0.517,1.037,1.149,1.848,1.936,2.334
				c7.574,4.685,8.455-4.63,8.455-4.63c10.796,5.803,9.798-6.775,3.916-18.233C127.188,123.327,123.861,119.603,121.154,117.198z"/>
		</g>
	</g>
</g>
</svg>
