<?xml version="1.0" encoding="utf-8"?>
<!-- Generator: Adobe Illustrator 16.0.0, SVG Export Plug-In . SVG Version: 6.00 Build 0)  -->
<!DOCTYPE svg PUBLIC "-//W3C//DTD SVG 1.1//EN" "http://www.w3.org/Graphics/SVG/1.1/DTD/svg11.dtd">
<svg version="1.1" id="Layer_1" xmlns="http://www.w3.org/2000/svg" xmlns:xlink="http://www.w3.org/1999/xlink" x="0px" y="0px"
	 width="188px" height="188px" viewBox="0 0 188 188" enable-background="new 0 0 188 188" xml:space="preserve">
<g>
	
		<image overflow="visible" opacity="0.4" width="522" height="685" xlink:href="2D23E4E2.png"  transform="matrix(0.24 0 0 0.24 34.8135 12.6191)">
	</image>
	<g>
		<g>
			<g>
				<path fill="#E37C28" d="M138.435,140.779c-0.06-0.187-0.097-0.361-0.138-0.538c-2.266,1.331-4.434,1.684-6.451,1.032
					c-2.733-0.883-5.236-3.559-7.214-7.651c-0.881,1.135-1.823,2.219-2.826,3.244c2.37,4.294,5.363,7.101,8.811,8.214
					c1.061,0.342,2.146,0.512,3.247,0.512c2.109,0,4.27-0.631,6.399-1.866C139.523,143.175,138.895,142.231,138.435,140.779z"/>
				<path fill="#865529" d="M138.297,140.241c0.041,0.177,0.078,0.352,0.138,0.538c0.46,1.452,1.089,2.396,1.828,2.946
					c3.773,2.814,10.467-4.839,12.792-9.839C153.055,133.887,136.36,131.999,138.297,140.241z"/>
				<path fill="#FDBA12" d="M125.896,131.899c-8.829,6.815-19.497,10.804-30.989,10.804s-22.131-3.988-30.961-10.803
					c1.203,1.746,2.054,3.383,4.054,4.898v24.947c0-2.069,1.621-3.746,3.69-3.746h0.506c1.09,0,2.063,0.473,2.747,1.215
					C75.628,158.473,76.6,158,77.689,158h0.508c0.847,0,1.619,0.291,2.246,0.765c0.628-0.474,1.4-0.765,2.247-0.765h0.506
					c2.069,0,3.804,1.677,3.804,3.746v-14.401c3,0.554,5.229,0.853,7.963,0.853c2.76,0,5.037-0.306,8.037-0.869v11.887
					c1-0.742,1.601-1.215,2.69-1.215h0.506c1.09,0,2.063,0.473,2.747,1.215c0.685-0.742,1.656-1.215,2.746-1.215h0.508
					c0.847,0,1.619,0.291,2.246,0.765c0.628-0.474,1.4-0.765,2.247-0.765h0.506c2.069,0,3.804,1.677,3.804,3.746v-24.029
					c0-0.279,0.552-0.562,0.834-0.851c1.003-1.025,1.932-2.109,2.813-3.244C125.082,133.06,125.492,132.487,125.896,131.899z"/>
				<path fill="#FDBA12" d="M67.943,167h0.075c-0.049-0.241-0.075-0.49-0.075-0.746V167z"/>
				<path fill="#FDBA12" d="M86.943,167v-0.746c0,0.256-0.026,0.505-0.075,0.746H86.943z"/>
				<path fill="#FDBA12" d="M120.943,167v-0.746c0,0.256-0.026,0.505-0.075,0.746H120.943z"/>
				<path fill="#865529" d="M71.422,40.518c2.201-1.572,4.565-2.928,7.063-4.039c1.081,2.804,3.217,5.938,7.423,7.813
					c8.98,4,10.48,13.158,6.48,15.329c0,0,16.706-7.469,19.344-22.959c2.341,1.072,4.561,2.359,6.636,3.839
					c3.384-4.492,7.924-8.348,12.647-7.271c-8.356-8.222-18.913-13.651-30.546-14.972c-1.627-0.4-3.472-0.639-5.581-0.639
					c-3.278,0-5.988,0.379-8.219,1.019c-10.57,1.795-20.148,6.998-27.857,14.578C63.523,32.177,68.049,36.034,71.422,40.518z"/>
				<path fill="#865529" d="M94.907,142.703c11.492,0,22.16-3.988,30.989-10.804c14.549-11.229,24.104-30.138,24.104-51.577
					c0-13.603-3.856-26.178-10.384-36.429c0.191,5.348-4.75,9.486-8.32,11.852c2.611,5.352,4.08,11.363,4.08,17.72
					c0,1.113-0.058,2.213-0.146,3.304c-0.005,0.056-0.008,0.111-0.013,0.167c-0.274,3.227-0.927,6.343-1.913,9.309
					c-0.024,0.071-0.048,0.142-0.072,0.212c-5.414,15.975-20.521,27.478-38.326,27.478s-32.911-11.502-38.326-27.476
					c-0.024-0.072-0.049-0.145-0.073-0.216c-0.253-0.764-0.488-1.534-0.697-2.316c-0.003-0.011-0.007-0.021-0.01-0.031
					c0,0,0,0,0.001,0c-0.599-2.249-1.003-4.574-1.206-6.959c-0.005-0.056-0.008-0.111-0.013-0.167
					c-0.088-1.091-0.146-2.19-0.146-3.304c0-6.349,1.465-12.354,4.07-17.701c-3.558-2.354-8.501-6.477-8.351-11.808
					c-6.503,10.24-10.344,22.792-10.344,36.366c0,21.439,9.555,40.35,24.104,51.578C72.748,138.715,83.415,142.703,94.907,142.703z"
					/>
				<path fill="#BA6B28" d="M128.547,50.965c5.187-3.188,6.696-7.144,2.869-9.67c-2.449-1.616-5.576,0.185-8.488,2.986
					C125.029,46.299,126.919,48.536,128.547,50.965z"/>
				<path fill="#FDBA12" d="M58.508,55.764c-2.605,5.348-4.07,11.353-4.07,17.701c0,1.113,0.058,2.213,0.146,3.304
					c-0.064-0.814-0.107-1.635-0.124-2.462l14.239,2.499l-13.825,2.577c-0.118-0.808-0.209-1.624-0.277-2.447
					c0.203,2.385,0.607,4.71,1.206,6.959c3.622-0.426,11.765-1.56,11.765-1.56l-10.142,6.392c-0.304-0.745-0.583-1.503-0.844-2.269
					c5.415,15.974,20.521,27.476,38.326,27.476s32.912-11.503,38.326-27.478c-0.261,0.767-0.54,1.525-0.844,2.271l-10.142-6.392
					c0,0,8.144,1.134,11.765,1.56c-0.211,0.793-0.449,1.576-0.707,2.35c0.986-2.966,1.639-6.082,1.913-9.309
					c-0.068,0.823-0.159,1.64-0.277,2.447l-13.825-2.577l14.239-2.499c-0.017,0.827-0.06,1.647-0.124,2.462
					c0.088-1.091,0.146-2.19,0.146-3.304c0-6.356-1.469-12.368-4.08-17.72c3.57-2.365,8.512-6.504,8.32-11.852
					c-0.067-1.91-0.781-3.973-2.459-6.166c-2.028-2.651-4.103-4.033-6.143-4.498c-4.724-1.077-9.264,2.778-12.647,7.271
					c-2.075-1.479-4.295-2.767-6.636-3.839c-2.638,15.49-19.344,22.959-19.344,22.959c4-2.171,2.5-11.329-6.48-15.329
					c-4.206-1.874-6.342-5.009-7.423-7.813c-2.498,1.111-4.862,2.467-7.063,4.039c-3.373-4.483-7.898-8.341-12.609-7.302
					c-2.057,0.453-4.147,1.838-6.193,4.512c-1.696,2.218-2.407,4.301-2.462,6.229C50.007,49.287,54.95,53.41,58.508,55.764z
					 M54.617,69.723c0.132-1.439,0.335-2.856,0.613-4.247c3.305,1.54,15.506,7.366,15.506,7.366L54.617,69.723z M116,92.07
					c0,4.932-4.055,8.93-8.986,8.93h-1.855c-1.776,2.874-4.701,5-7.962,5h-3.615c-3.629,0-6.796-2.631-8.439-6h-1.463
					C78.824,100,75,95.448,75,90.709v-0.836C75,85.134,78.824,82,83.679,82h0.876c0.368-3.013,3.214-5.68,9.924-5.68
					c6.708,0,9.554,2.667,9.922,5.68h2.613c4.932,0,8.986,3.998,8.986,8.93V92.07z M135.197,69.723l-16.119,3.119
					c0,0,12.201-5.826,15.506-7.366C134.862,66.866,135.065,68.283,135.197,69.723z M131.416,41.295
					c3.827,2.526,2.317,6.481-2.869,9.67c-1.628-2.429-3.518-4.666-5.619-6.684C125.84,41.479,128.967,39.679,131.416,41.295z
					 M106.924,64.894c2.847-0.118,5.252,2.094,5.37,4.942c0.12,2.848-2.094,5.254-4.941,5.372c-2.85,0.118-5.254-2.094-5.372-4.942
					C101.861,67.418,104.076,65.013,106.924,64.894z M86.962,70.266c-0.117,2.849-2.522,5.061-5.371,4.942
					c-2.848-0.118-5.062-2.524-4.942-5.372c0.119-2.849,2.523-5.061,5.37-4.942C84.867,65.013,87.082,67.418,86.962,70.266z
					 M66.868,44.299c-2.099,2.018-3.985,4.254-5.611,6.683c-5.208-3.191-6.729-7.155-2.896-9.687
					C60.815,39.675,63.951,41.487,66.868,44.299z"/>
				<path fill="#BA6B28" d="M61.257,50.981c1.626-2.429,3.513-4.665,5.611-6.683c-2.917-2.812-6.053-4.624-8.507-3.004
					C54.527,43.826,56.049,47.79,61.257,50.981z"/>
				<path fill="#FDBA12" d="M56.508,86.242c-0.254-0.763-0.488-1.534-0.697-2.316C56.02,84.708,56.255,85.479,56.508,86.242z"/>
				<path fill="#E37C28" d="M67.566,82.335c0,0-8.143,1.134-11.765,1.56c-0.001,0-0.001,0-0.001,0
					c0.003,0.011,0.007,0.021,0.01,0.031c0.209,0.782,0.443,1.554,0.697,2.316c0.024,0.071,0.049,0.144,0.073,0.216
					c0.261,0.766,0.54,1.523,0.844,2.269L67.566,82.335z"/>
				<path fill="#E37C28" d="M68.698,76.806l-14.239-2.499c0.017,0.827,0.06,1.647,0.124,2.462c0.005,0.056,0.008,0.111,0.013,0.167
					c0.068,0.823,0.159,1.64,0.277,2.447L68.698,76.806z"/>
				<path fill="#E37C28" d="M55.23,65.476c-0.278,1.391-0.481,2.808-0.613,4.247l16.119,3.119
					C70.736,72.842,58.535,67.016,55.23,65.476z"/>
				<path fill="#E37C28" d="M122.248,82.335l10.142,6.392c0.304-0.745,0.583-1.504,0.844-2.271c0.024-0.07,0.048-0.141,0.072-0.212
					c0.258-0.773,0.496-1.557,0.707-2.35C130.392,83.469,122.248,82.335,122.248,82.335z"/>
				<path fill="#E37C28" d="M121.116,76.806l13.825,2.577c0.118-0.808,0.209-1.624,0.277-2.447c0.005-0.056,0.008-0.111,0.013-0.167
					c0.064-0.814,0.107-1.635,0.124-2.462L121.116,76.806z"/>
				<path fill="#E37C28" d="M135.197,69.723c-0.132-1.439-0.335-2.856-0.613-4.247c-3.305,1.54-15.506,7.366-15.506,7.366
					L135.197,69.723z"/>
				<path fill="#FFFFFF" d="M76.648,69.836c-0.119,2.848,2.095,5.254,4.942,5.372c2.849,0.118,5.254-2.094,5.371-4.942
					c0.12-2.848-2.095-5.253-4.943-5.372C79.172,64.775,76.768,66.987,76.648,69.836z M82.217,66.837
					c1.771,0.123,3.109,1.659,2.986,3.432c-0.018,0.227-0.055,0.444-0.113,0.655c-0.473-0.488-1.154-0.822-2.082-0.886
					c-1.67-0.116-2.916,0.747-3.607,1.908c-0.436-0.591-0.672-1.333-0.615-2.122C78.908,68.052,80.443,66.715,82.217,66.837z"/>
				<path fill="#353A42" d="M83.008,70.038c0.928,0.063,1.609,0.397,2.082,0.886c0.059-0.211,0.096-0.429,0.113-0.655
					c0.123-1.772-1.215-3.309-2.986-3.432c-1.773-0.122-3.309,1.215-3.432,2.987c-0.057,0.789,0.18,1.531,0.615,2.122
					C80.092,70.785,81.338,69.922,83.008,70.038z"/>
				<path fill="#FFFFFF" d="M107.353,75.208c2.848-0.118,5.062-2.524,4.941-5.372c-0.118-2.849-2.523-5.061-5.37-4.942
					c-2.848,0.119-5.063,2.524-4.943,5.372C102.099,73.114,104.503,75.326,107.353,75.208z M107.598,66.837
					c1.773-0.122,3.311,1.215,3.432,2.987c0.057,0.789-0.18,1.531-0.615,2.122c-0.689-1.161-1.938-2.024-3.605-1.908
					c-0.928,0.063-1.611,0.397-2.082,0.886c-0.061-0.211-0.098-0.429-0.115-0.655C104.488,68.496,105.826,66.96,107.598,66.837z"/>
				<path fill="#353A42" d="M106.809,70.038c1.668-0.116,2.916,0.747,3.605,1.908c0.436-0.591,0.672-1.333,0.615-2.122
					c-0.121-1.772-1.658-3.109-3.432-2.987c-1.771,0.123-3.109,1.659-2.986,3.432c0.018,0.227,0.055,0.444,0.115,0.655
					C105.197,70.436,105.881,70.102,106.809,70.038z"/>
				<path fill="#BA6B28" d="M107.014,82H104.4c0.027,0.229,0.045,0.457,0.045,0.688c0,3.284-6.351,10.058-9.967,10.058
					c-3.618,0-9.969-6.773-9.969-10.058c0-0.231,0.018-0.46,0.045-0.688h-0.876C78.824,82,75,85.134,75,89.873v0.836
					c0,4.739,3.824,9.291,8.679,9.291h1.463c1.644,3.369,4.811,6,8.439,6h3.615c3.261,0,6.186-2.126,7.962-5h1.855
					c4.932,0,8.986-3.998,8.986-8.93V90.93C116,85.998,111.945,82,107.014,82z"/>
				<path fill="#583B2B" d="M94.479,92.746c3.616,0,9.967-6.773,9.967-10.058c0-0.231-0.018-0.46-0.045-0.688
					c-0.368-3.013-3.214-5.68-9.922-5.68c-6.71,0-9.556,2.667-9.924,5.68c-0.027,0.229-0.045,0.457-0.045,0.688
					C84.51,85.973,90.86,92.746,94.479,92.746z"/>
				<path fill="#FDD6BD" d="M83.196,158H82.69c-0.847,0-1.619,0.291-2.247,0.765c-0.627-0.474-1.399-0.765-2.246-0.765h-0.508
					c-1.09,0-2.062,0.473-2.746,1.215c-0.685-0.742-1.657-1.215-2.747-1.215H71.69c-2.069,0-3.69,1.677-3.69,3.746v4.508
					c0,0.256-0.002,0.505,0.047,0.746c0.346,1.712,1.83,3,3.644,3h0.506c1.09,0,2.063-0.473,2.747-1.215
					C75.628,169.527,76.6,170,77.689,170h0.508c0.847,0,1.619-0.291,2.246-0.765c0.628,0.474,1.4,0.765,2.247,0.765h0.506
					c1.813,0,3.354-1.288,3.7-3c0.049-0.241,0.104-0.49,0.104-0.746v-4.508C87,159.677,85.266,158,83.196,158z"/>
				<path fill="#FDD6BD" d="M117.196,158h-0.506c-0.847,0-1.619,0.291-2.247,0.765c-0.627-0.474-1.399-0.765-2.246-0.765h-0.508
					c-1.09,0-2.062,0.473-2.746,1.215c-0.685-0.742-1.657-1.215-2.747-1.215h-0.506c-1.09,0-2.034,0.473-2.719,1.215
					c-0.615,0.668-0.972,1.552-0.972,2.531v4.508c0,2.069,1.621,3.746,3.69,3.746h0.506c1.09,0,2.063-0.473,2.747-1.215
					c0.685,0.742,1.656,1.215,2.746,1.215h0.508c0.847,0,1.619-0.291,2.246-0.765c0.628,0.474,1.4,0.765,2.247,0.765h0.506
					c1.813,0,3.354-1.288,3.7-3c0.049-0.241,0.104-0.49,0.104-0.746v-4.508C121,159.677,119.266,158,117.196,158z"/>
			</g>
			<path opacity="0.3" fill="#FFFFFF" d="M138.297,140.241c-2.268,1.331-4.436,1.683-6.451,1.032
				c-2.733-0.883-5.236-3.559-7.213-7.651c0.436-0.563,0.859-1.136,1.264-1.723c14.549-11.229,24.104-30.138,24.104-51.577
				c0-13.603-3.856-26.178-10.384-36.429c-0.068-1.91-0.781-3.973-2.459-6.166c-2.029-2.651-4.103-4.033-6.143-4.498
				c-8.356-8.222-18.912-13.651-30.546-14.972c-1.612-0.396-3.44-0.633-5.526-0.637v130.575c2.747-0.003,5.422-0.308,8-0.868v11.887
				c-0.615,0.668-1,1.552-1,2.531v4.508c0,2.069,1.678,3.746,3.747,3.746h0.506c1.09,0,2.062-0.473,2.747-1.215
				c0.684,0.742,1.656,1.215,2.746,1.215h0.508c0.847,0,1.619-0.291,2.246-0.765c0.628,0.474,1.4,0.765,2.247,0.765h0.506
				c1.813,0,3.325-1.288,3.672-3h0.075v-29.283c0.291-0.279,0.58-0.562,0.862-0.851c2.37,4.294,5.363,7.101,8.812,8.214
				c1.061,0.342,2.146,0.512,3.246,0.512c2.109,0,4.27-0.631,6.398-1.866c3.774,2.814,10.468-4.839,12.793-9.839
				C153.055,133.887,136.36,131.999,138.297,140.241z"/>
		</g>
	</g>
</g>
</svg>
