<?xml version="1.0" encoding="utf-8"?>
<!-- Generator: Adobe Illustrator 16.0.0, SVG Export Plug-In . SVG Version: 6.00 Build 0)  -->
<!DOCTYPE svg PUBLIC "-//W3C//DTD SVG 1.1//EN" "http://www.w3.org/Graphics/SVG/1.1/DTD/svg11.dtd">
<svg version="1.1" id="Layer_1" xmlns="http://www.w3.org/2000/svg" xmlns:xlink="http://www.w3.org/1999/xlink" x="0px" y="0px"
	 width="1634.14px" height="841.28px" viewBox="-213.501 -342.504 1634.14 841.28"
	 enable-background="new -213.501 -342.504 1634.14 841.28" xml:space="preserve">
<g>
	<g>
		<linearGradient id="SVGID_1_" gradientUnits="userSpaceOnUse" x1="1372.905" y1="-270.5645" x2="1372.905" y2="-253.9443">
			<stop  offset="0" style="stop-color:#FFFFFF"/>
			<stop  offset="0.6223" style="stop-color:#CAE8E3"/>
			<stop  offset="1" style="stop-color:#FBD9DA"/>
		</linearGradient>
		<linearGradient id="SVGID_2_" gradientUnits="userSpaceOnUse" x1="1360.9988" y1="-262.1494" x2="1385.1511" y2="-262.1494">
			<stop  offset="0.21" style="stop-color:#FFFFFF"/>
			<stop  offset="0.5523" style="stop-color:#CAE8E3"/>
			<stop  offset="1" style="stop-color:#FBD9DA"/>
		</linearGradient>
		<path fill="url(#SVGID_1_)" stroke="url(#SVGID_2_)" d="M1384.716-270.564c-2.5,4.44-5.62,8.181-9.181,10.99
			c-1.779,1.399-3.649,2.569-5.63,3.47h-0.01c-2.73,1.27-5.63,2-8.66,2.16h-0.14
			C1370.265-255.755,1378.475-261.774,1384.716-270.564z"/>
		<linearGradient id="SVGID_3_" gradientUnits="userSpaceOnUse" x1="-130.4148" y1="-341.5049" x2="-130.4148" y2="-336.1543">
			<stop  offset="0" style="stop-color:#FFFFFF"/>
			<stop  offset="0.6223" style="stop-color:#CAE8E3"/>
			<stop  offset="1" style="stop-color:#FBD9DA"/>
		</linearGradient>
		<linearGradient id="SVGID_4_" gradientUnits="userSpaceOnUse" x1="-138.4241" y1="-338.8623" x2="-122.5852" y2="-338.8623">
			<stop  offset="0.21" style="stop-color:#FFFFFF"/>
			<stop  offset="0.5523" style="stop-color:#CAE8E3"/>
			<stop  offset="1" style="stop-color:#FBD9DA"/>
		</linearGradient>
		<path fill="url(#SVGID_3_)" stroke="url(#SVGID_4_)" d="M-122.695-341.505c-5.35,0.631-10.471,2.42-15.221,5.221h-0.01
			c-0.06,0.04-0.14,0.09-0.21,0.13c0.07-0.05,0.12-0.09,0.181-0.13c4.42-3.34,9.489-5.221,14.869-5.221H-122.695z"/>
	</g>
	<g>
		<linearGradient id="SVGID_5_" gradientUnits="userSpaceOnUse" x1="1362.1697" y1="-112.7246" x2="1362.1697" y2="-111.9043">
			<stop  offset="0" style="stop-color:#FFFFFF"/>
			<stop  offset="0.6223" style="stop-color:#CAE8E3"/>
			<stop  offset="1" style="stop-color:#FBD9DA"/>
		</linearGradient>
		<linearGradient id="SVGID_6_" gradientUnits="userSpaceOnUse" x1="1357.8816" y1="-112.3145" x2="1366.4294" y2="-112.3145">
			<stop  offset="0.21" style="stop-color:#FFFFFF"/>
			<stop  offset="0.5523" style="stop-color:#CAE8E3"/>
			<stop  offset="1" style="stop-color:#FBD9DA"/>
		</linearGradient>
		<path fill="url(#SVGID_5_)" stroke="url(#SVGID_6_)" d="M1366.295-112.725c-1.93,0.54-3.939,0.82-5.989,0.82h-2.261
			c1.57-0.54,3.2-0.82,4.881-0.82H1366.295z"/>
	</g>
	<g>
		<linearGradient id="SVGID_7_" gradientUnits="userSpaceOnUse" x1="1368.5203" y1="-112.874" x2="1368.5203" y2="-112.7246">
			<stop  offset="0" style="stop-color:#FFFFFF"/>
			<stop  offset="0.6223" style="stop-color:#CAE8E3"/>
			<stop  offset="1" style="stop-color:#FBD9DA"/>
		</linearGradient>
		<linearGradient id="SVGID_8_" gradientUnits="userSpaceOnUse" x1="1366.1863" y1="-112.7993" x2="1370.7869" y2="-112.7993">
			<stop  offset="0.21" style="stop-color:#FFFFFF"/>
			<stop  offset="0.5523" style="stop-color:#CAE8E3"/>
			<stop  offset="1" style="stop-color:#FBD9DA"/>
		</linearGradient>
		<path fill="url(#SVGID_7_)" stroke="url(#SVGID_8_)" d="M1370.745-112.725h-4.45c0.181-0.04,0.36-0.08,0.54-0.149h1.061
			C1368.855-112.874,1369.795-112.805,1370.745-112.725z"/>
	</g>
	<g>
		<linearGradient id="SVGID_9_" gradientUnits="userSpaceOnUse" x1="603.5701" y1="-342.0049" x2="603.57" y2="498.2759">
			<stop  offset="0" style="stop-color:#FFFFFF"/>
			<stop  offset="0.1351" style="stop-color:#FDFEFE"/>
			<stop  offset="0.2073" style="stop-color:#F5FBFA"/>
			<stop  offset="0.2647" style="stop-color:#E7F5F2"/>
			<stop  offset="0.3139" style="stop-color:#D4ECE8"/>
			<stop  offset="0.33" style="stop-color:#CCE9E4"/>
			<stop  offset="0.86" style="stop-color:#CCE6E1"/>
			<stop  offset="1" style="stop-color:#FBD9DA"/>
		</linearGradient>
		<linearGradient id="SVGID_10_" gradientUnits="userSpaceOnUse" x1="-213.5007" y1="78.1353" x2="1420.6404" y2="78.1353">
			<stop  offset="0.21" style="stop-color:#FFFFFF"/>
			<stop  offset="0.5523" style="stop-color:#CAE8E3"/>
			<stop  offset="1" style="stop-color:#FBD9DA"/>
		</linearGradient>
		<path fill="url(#SVGID_9_)" stroke="url(#SVGID_10_)" d="M1369.961,144.177h-36.012c-9.09-1.436-15.75-6.141-15.75-11.729
			c0-5.232,5.852-9.701,14.061-11.424h49.24c8.42,0,16.039-1.887,21.551-4.934c5.51-3.051,8.92-7.258,8.92-11.908
			c0-9.299-13.641-16.838-30.471-16.838h-135.369c-18.432,0-33.371-8.143-33.371-18.195c0-10.041,14.939-18.189,33.371-18.189
			h86.068c2.711,0,5.33-0.193,7.83-0.564c39.291-2.723,38.211-51.148-2.1-51.148h-2.91v-0.24
			c-18.129-0.557-32.609-12.689-32.609-27.58c0-7.627,3.789-14.535,9.93-19.531c6.141-4.992,14.621-8.084,23.99-8.084h-4.65
			c15.4,0,27.9-10.172,27.9-22.713v-5.783c0-12.602-12.561-22.824-28.041-22.824h-20.01c-8.039-2.693-13.729-9.402-13.729-17.24
			c0-5.115,2.42-9.742,6.33-13.094c2.809-2.408,6.398-4.16,10.408-4.95c1.57-0.316,3.201-0.48,4.881-0.48h3.369
			c0.182-0.023,0.361-0.047,0.541-0.087c1.449-0.253,2.85-0.586,4.221-1.002c4.26-1.301,8.09-3.346,11.238-5.941
			c5.621-4.65,9.102-11.061,9.102-18.143c0-11.957-9.91-22.004-23.311-24.846h-0.01c-0.48-0.105-0.961-0.205-1.451-0.287
			c-2.039-0.339-4.148-0.526-6.318-0.526h-17.191c-5.77-1.378-10.539-4.364-13.32-8.249c-1.059-1.477-1.828-3.063-2.26-4.745
			c-0.27-1.031-0.41-2.085-0.41-3.175c0-4.693,2.58-8.939,6.781-12.021c1.879-1.383,4.1-2.531,6.561-3.374h14.809
			c1.971,0,3.9-0.118,5.801-0.335c0.01,0,0.01,0,0.02,0c9.17-1.061,17.381-4.586,23.621-9.736c6.27-5.19,10.549-12.01,11.789-19.631
			c0.26-1.523,0.391-3.075,0.391-4.657v-47.628c0-18.969-18.641-34.348-41.621-34.348H-133.98c-10.94,0-20.84,3.604-28,9.443
			c-7.17,5.829-11.601,13.891-11.601,22.795c0,17.804,17.721,32.244,39.601,32.244h9.86v0.223h-10.69v-0.158H-161.8
			c-1.48,0-2.951,0.053-4.4,0.158c-5.35,0.369-10.471,1.418-15.221,3.059h-0.01c-0.06,0.023-0.14,0.053-0.21,0.076
			c-0.08,0.029-0.17,0.059-0.26,0.094c-16.03,5.646-27.84,17.85-30.53,32.525c-0.08,0.463-0.15,0.926-0.22,1.399
			c-0.229,1.617-0.351,3.275-0.351,4.95v50.143c0,23.344,22.931,42.261,51.201,42.261h36.729
			c9.271,2.192,16.069,9.362,16.069,17.874c0,7.979-5.97,14.787-14.35,17.41h-50.23c-8.59,0-16.359,2.877-21.979,7.516
			c-5.62,4.641-9.101,11.063-9.101,18.145c0,14.17,13.91,25.66,31.08,25.66h138.11c18.8,0,34.04,12.406,34.04,27.721
			c0,15.309-15.24,27.715-34.04,27.715h-87.81c-8.58,0-16.35,2.871-21.98,7.518c-5.619,4.645-9.1,11.055-9.1,18.143
			c0,14.166,13.91,25.652,31.08,25.652c0,0,5.51,0,15.859,0c2.28,0.26,4.721,0.4,7.33,0.4h2.851v0.156
			c17.77,0.369,31.96,8.332,31.96,18.104c0,5.008-3.71,9.537-9.73,12.818c-6.02,3.273-14.33,5.307-23.51,5.307h4.55
			c-15.09,0-27.35,6.674-27.35,14.904v3.795c0,8.273,12.319,14.98,27.489,14.98h19.61c7.88,1.764,13.46,6.168,13.46,11.318
			c0,3.352-2.369,6.391-6.199,8.588c-2.761,1.582-6.271,2.73-10.211,3.246c-1.529,0.211-3.129,0.316-4.779,0.316h-3.301
			c-0.18,0.018-0.35,0.029-0.529,0.059c-1.42,0.17-2.801,0.387-4.141,0.656c-4.17,0.855-7.93,2.197-11.01,3.9
			c-5.51,3.047-8.92,7.26-8.92,11.904c0,7.852,9.71,14.441,22.84,16.311h0.01c0.48,0.07,0.94,0.135,1.42,0.188
			c2,0.223,4.07,0.346,6.201,0.346h16.85c5.65,0.902,10.33,2.865,13.06,5.412c1.03,0.967,1.79,2.01,2.21,3.117
			c0.271,0.674,0.4,1.371,0.4,2.086c0,3.068-2.53,5.863-6.641,7.879c-1.85,0.914-4.02,1.67-6.43,2.227h-14.52
			c-1.93,0-3.82,0.064-5.68,0.217c-0.011,0-0.011,0-0.021,0c-8.99,0.691-17.04,3.004-23.16,6.391
			c-6.149,3.398-10.34,7.879-11.55,12.877c-0.26,0.996-0.391,2.027-0.391,3.059v31.26c0,12.447,18.28,22.535,40.801,22.535H21.4
			c14.311,2.051,24.85,9.146,24.85,17.593c0,10.047-14.93,18.189-33.359,18.189h-135.38c-16.83,0-30.47,7.539-30.47,16.843
			c0,4.645,3.42,8.857,8.93,11.904c5.5,3.045,13.119,4.932,21.54,4.932h49.239c8.211,1.729,14.061,6.193,14.061,11.43
			c0,5.582-6.66,10.287-15.75,11.729h-36c-27.71,0-50.189,12.42-50.189,27.732v32.912c0,1.102,0.119,2.186,0.34,3.246
			c0.069,0.311,0.14,0.615,0.22,0.92c2.63,9.631,14.21,17.639,29.92,21.348c0.09,0.018,0.18,0.041,0.26,0.059
			c0.07,0.018,0.15,0.041,0.2,0.053h0.01c4.66,1.072,9.68,1.764,14.92,2.004c1.43,0.07,2.87,0.111,4.32,0.111h26.45v-0.111h10.479
			v0.146h-9.66c-21.449,0-38.819,9.479-38.819,21.16c0,5.846,4.34,11.137,11.37,14.961c7.02,3.832,16.72,6.199,27.449,6.199
			h1417.131c22.529,0,40.799-10.094,40.799-22.543v-31.254c0-1.037-0.129-2.063-0.379-3.059c-1.221-5.002-5.42-9.479-11.561-12.883
			c-2.451-1.711-5.51-3.145-9-4.229c-1.74-0.539-3.58-0.984-5.52-1.336h-0.012c-2.67-0.48-5.52-0.768-8.488-0.826h-0.131
			c-0.01,0-0.01,0-0.02,0c-1.861-0.141-3.76-0.223-5.689-0.223h-14.512c-2.42-0.551-4.59-1.307-6.43-2.215
			c-4.119-2.021-6.65-4.811-6.65-7.885c0-0.715,0.141-1.412,0.4-2.086c0.42-1.102,1.18-2.15,2.221-3.111
			c2.721-2.547,7.4-4.516,13.049-5.418h16.852c2.129,0,4.199-0.117,6.199-0.346c0.48-0.053,0.949-0.117,1.42-0.188h0.01
			c13.131-1.863,22.85-8.459,22.85-16.305c0-4.65-3.408-8.857-8.92-11.904c-3.09-1.703-6.84-3.045-11.02-3.9
			c-1.34-0.275-2.719-0.492-4.141-0.656c-0.17-0.029-0.35-0.047-0.529-0.059h-3.299c-1.65,0-3.24-0.111-4.781-0.316
			c-3.93-0.516-7.459-1.67-10.209-3.246c-3.83-2.201-6.201-5.242-6.201-8.6c0-5.143,5.58-9.549,13.461-11.313h19.609
			c15.18,0,27.49-6.701,27.49-14.98v-3.795c0-8.23-12.26-14.904-27.35-14.904h4.559c-9.189,0-17.5-2.033-23.52-5.307
			c-6.02-3.275-9.73-7.811-9.73-12.818c0-9.771,14.191-17.734,31.961-18.101v-0.152h2.85c33.061,0,39.201-22.232,17.801-30.559
			c-6.551-6.643-19.42-11.154-34.211-11.154h-9.67v-0.15h10.48v0.104h26.461c1.449,0,2.889-0.033,4.309-0.104
			c5.24-0.24,10.26-0.932,14.92-2.004h0.01c0.051-0.018,0.131-0.041,0.201-0.053c0.08-0.018,0.17-0.041,0.26-0.059
			c15.709-3.709,27.279-11.717,29.92-21.348c0.08-0.311,0.15-0.609,0.221-0.92c0.229-1.061,0.34-2.15,0.34-3.252v-32.906
			C1420.14,156.597,1397.67,144.177,1369.961,144.177z M-81.95,399.803h-3.301c-0.18,0.012-0.35,0.035-0.529,0.059h-1.04
			c-0.94,0-1.86-0.023-2.79-0.059h4.359c1.891-0.211,3.86-0.316,5.871-0.316h2.209C-78.7,399.697-80.3,399.803-81.95,399.803z"/>
	</g>
</g>
</svg>
