<?xml version="1.0" encoding="utf-8"?>
<!-- Generator: Adobe Illustrator 16.0.0, SVG Export Plug-In . SVG Version: 6.00 Build 0)  -->
<!DOCTYPE svg PUBLIC "-//W3C//DTD SVG 1.1//EN" "http://www.w3.org/Graphics/SVG/1.1/DTD/svg11.dtd">
<svg version="1.1" id="Layer_1" xmlns="http://www.w3.org/2000/svg" xmlns:xlink="http://www.w3.org/1999/xlink" x="0px" y="0px"
	 width="1204.341px" height="625.332px" viewBox="0 0 1204.341 625.332" enable-background="new 0 0 1204.341 625.332"
	 xml:space="preserve">
<g>
	<g>
		<linearGradient id="SVGID_1_" gradientUnits="userSpaceOnUse" x1="1175.1655" y1="618.1294" x2="1175.1655" y2="620.8032">
			<stop  offset="0" style="stop-color:#FFFFFF"/>
			<stop  offset="0.225" style="stop-color:#CDEAE4"/>
			<stop  offset="0.4323" style="stop-color:#CAE8E3"/>
			<stop  offset="0.86" style="stop-color:#CDE6E2"/>
			<stop  offset="1" style="stop-color:#FCD9DA"/>
		</linearGradient>
		<path fill="url(#SVGID_1_)" d="M1180.928,618.129c-0.051,0.024-0.089,0.047-0.135,0.068c-3.299,1.666-7.082,2.605-11.101,2.605
			h-0.29c3.993-0.313,7.817-1.208,11.361-2.605h0.007C1180.817,618.176,1180.877,618.149,1180.928,618.129z"/>
	</g>
	<g>
		<linearGradient id="SVGID_2_" gradientUnits="userSpaceOnUse" x1="60.8711" y1="506.0366" x2="60.8711" y2="506.4468">
			<stop  offset="0" style="stop-color:#FFFFFF"/>
			<stop  offset="0.225" style="stop-color:#CDEAE4"/>
			<stop  offset="0.4323" style="stop-color:#CAE8E3"/>
			<stop  offset="0.86" style="stop-color:#CDE6E2"/>
			<stop  offset="1" style="stop-color:#FCD9DA"/>
		</linearGradient>
		<path fill="url(#SVGID_2_)" d="M63.95,506.037c-1.173,0.271-2.39,0.41-3.644,0.41h-2.515c1.44-0.271,2.943-0.41,4.473-0.41H63.95z
			"/>
	</g>
	<g>
		<linearGradient id="SVGID_3_" gradientUnits="userSpaceOnUse" x1="56.1304" y1="506.4468" x2="56.1304" y2="506.5249">
			<stop  offset="0" style="stop-color:#FFFFFF"/>
			<stop  offset="0.225" style="stop-color:#CDEAE4"/>
			<stop  offset="0.4323" style="stop-color:#CAE8E3"/>
			<stop  offset="0.86" style="stop-color:#CDE6E2"/>
			<stop  offset="1" style="stop-color:#FCD9DA"/>
		</linearGradient>
		<path fill="url(#SVGID_3_)" d="M57.792,506.447c-0.134,0.022-0.268,0.042-0.402,0.078h-0.792c-0.718,0-1.421-0.036-2.129-0.078
			H57.792z"/>
	</g>
	<g>
		<linearGradient id="SVGID_4_" gradientUnits="userSpaceOnUse" x1="602.1704" y1="0" x2="602.1704" y2="625.332">
			<stop  offset="0" style="stop-color:#FFFFFF"/>
			<stop  offset="0.225" style="stop-color:#CDEAE4"/>
			<stop  offset="0.4323" style="stop-color:#CAE8E3"/>
			<stop  offset="0.86" style="stop-color:#CDE6E2"/>
			<stop  offset="1" style="stop-color:#FCD9DA"/>
		</linearGradient>
		<path fill="url(#SVGID_4_)" d="M1204.341,201.035v42.783c0,1.432-0.091,2.841-0.263,4.224c-0.051,0.404-0.104,0.792-0.164,1.195
			c-2.008,12.519-10.823,22.931-22.792,27.751c-0.067,0.028-0.133,0.057-0.194,0.076c-0.051,0.021-0.111,0.05-0.157,0.071h-0.007
			c-3.544,1.395-7.368,2.291-11.361,2.604c-1.082,0.091-2.18,0.139-3.285,0.139h-20.152v-0.139h-7.979v0.196h7.359
			c11.276,0,21.07,5.868,26.057,14.503c16.304,10.822,11.624,39.728-13.55,39.728h-2.172v0.2
			c-13.535,0.48-24.345,10.83-24.345,23.537c0,6.508,2.828,12.398,7.411,16.663c4.587,4.257,10.914,6.897,17.911,6.897h-3.473
			c11.498,0,20.83,8.677,20.83,19.383v4.93c0,10.755-9.377,19.473-20.934,19.473h-14.938c-6.001,2.301-10.249,8.024-10.249,14.714
			c0,4.36,1.805,8.312,4.726,11.17c2.098,2.055,4.777,3.549,7.771,4.222c1.171,0.272,2.391,0.409,3.644,0.409h2.515
			c0.135,0.022,0.269,0.043,0.403,0.079c1.084,0.214,2.128,0.5,3.15,0.852c3.183,1.112,6.039,2.857,8.393,5.071
			c4.193,3.967,6.794,9.436,6.794,15.478c0,10.204-7.397,18.776-17.401,21.201h-0.009c-0.358,0.091-0.717,0.175-1.082,0.242
			c-1.523,0.294-3.099,0.452-4.719,0.452h-12.834c-4.309,1.174-7.868,3.725-9.944,7.037c-0.791,1.259-1.366,2.614-1.688,4.05
			c-0.199,0.875-0.305,1.779-0.305,2.711c0,3.999,1.926,7.625,5.063,10.252c1.404,1.18,3.06,2.16,4.898,2.882h11.056
			c1.472,0,2.909,0.098,4.33,0.285c0.009,0,0.009,0,0.013,0h0.106c2.26,0.076,4.426,0.445,6.465,1.077h0.007
			c1.479,0.45,2.875,1.037,4.202,1.737c2.66,1.402,4.988,3.273,6.854,5.494c4.683,4.423,7.879,10.245,8.803,16.749
			c0.193,1.296,0.292,2.625,0.292,3.974v40.636c0,16.185-13.915,29.309-31.071,29.309H58.995c-8.168,0-15.561-3.076-20.905-8.057
			c-5.352-4.977-8.659-11.853-8.659-19.452c0-15.192,13.23-27.507,29.564-27.507h7.359v-0.197h-7.978v0.142H38.223
			c-1.104,0-2.202-0.051-3.284-0.142c-3.994-0.311-7.816-1.209-11.362-2.604H23.57c-0.045-0.02-0.106-0.048-0.157-0.07
			c-0.061-0.02-0.127-0.049-0.195-0.075c-11.969-4.819-20.784-15.232-22.792-27.75c-0.06-0.396-0.113-0.794-0.165-1.196
			C0.091,537.041,0,535.629,0,534.199v-42.781c0-19.918,17.118-36.063,38.223-36.063h27.421c6.922-1.868,11.999-7.988,11.999-15.245
			c0-6.811-4.458-12.616-10.713-14.86h-37.5c-6.414,0-12.214-2.452-16.41-6.412c-4.194-3.959-6.793-9.436-6.793-15.478
			c0-12.095,10.386-21.896,23.203-21.896h103.106c14.034,0,25.414-10.587,25.414-23.651c0-10.978-8.035-20.203-18.926-22.869H66.018
			c-17.156,0-31.071-13.114-31.071-29.301v-40.638c0-1.347,0.099-2.681,0.291-3.973c0.928-6.503,4.121-12.323,8.804-16.749
			c4.657-4.396,10.788-7.405,17.634-8.308c0.005,0,0.005,0,0.013,0c1.421-0.194,2.859-0.284,4.331-0.284h11.056
			c1.838-0.723,3.494-1.703,4.897-2.889c3.138-2.62,5.063-6.254,5.063-10.248c0-0.93-0.106-1.833-0.306-2.709
			c-0.321-1.438-0.897-2.793-1.689-4.049c-2.076-3.313-5.635-5.864-9.943-7.038H62.264c-1.621,0-3.196-0.159-4.718-0.453
			c-0.366-0.068-0.726-0.151-1.084-0.242h-0.008c-10.004-2.424-17.401-10.995-17.401-21.2c0-6.045,2.599-11.518,6.793-15.484
			c2.354-2.209,5.213-3.953,8.394-5.063c1.021-0.355,2.065-0.64,3.15-0.855c0.134-0.043,0.268-0.055,0.402-0.077h2.515
			c1.254,0,2.471-0.139,3.644-0.409c2.993-0.674,5.673-2.168,7.771-4.224c2.92-2.856,4.726-6.809,4.726-11.171
			c0-6.689-4.248-12.413-10.25-14.713H51.259c-11.556,0-20.933-8.718-20.933-19.47v-4.933c0-10.705,9.331-19.381,20.83-19.381
			h-3.471c6.995,0,13.326-2.639,17.909-6.898c4.584-4.264,7.413-10.155,7.413-16.664c0-12.706-10.811-23.056-24.346-23.535v-0.201
			h-2.172c-30.459,0-30.915-42.327-0.493-43.716C47.027,0.021,1137.36,0,1137.36,0c12.818,0,23.204,9.802,23.204,21.889
			c0,6.043-2.599,11.517-6.797,15.484c-4.2,3.96-10,6.413-16.407,6.413h-65.555c-14.034,0-25.413,10.586-25.413,23.646
			c0,13.066,11.379,23.652,25.413,23.652h103.106c12.817,0,23.203,9.802,23.203,21.89c0,6.049-2.599,11.517-6.793,15.484
			c-4.197,3.959-9.996,6.411-16.41,6.411h-37.498c-6.258,2.244-10.715,8.052-10.715,14.859c0,7.26,5.077,13.378,11.997,15.248
			h27.422C1187.223,164.975,1204.341,181.118,1204.341,201.035z"/>
	</g>
</g>
</svg>
