<?xml version="1.0" encoding="utf-8"?>
<!-- Generator: Adobe Illustrator 16.0.0, SVG Export Plug-In . SVG Version: 6.00 Build 0)  -->
<!DOCTYPE svg PUBLIC "-//W3C//DTD SVG 1.1//EN" "http://www.w3.org/Graphics/SVG/1.1/DTD/svg11.dtd">
<svg version="1.1" id="Layer_1" xmlns="http://www.w3.org/2000/svg" xmlns:xlink="http://www.w3.org/1999/xlink" x="0px" y="0px"
	 width="188px" height="188px" viewBox="0 0 188 188" enable-background="new 0 0 188 188" xml:space="preserve">
<g>
	
		<image overflow="visible" opacity="0.4" width="572" height="693" xlink:href="D9118BDA.png"  transform="matrix(0.24 0 0 0.24 34.1426 6.8311)">
	</image>
	<g>
		<g>
			<g>
				<path fill="#DB8538" d="M154.61,86.88c-12.462-4.576-24.185,10.802-29.307,18.853c0.729,1.46,1.431,3.111,2.07,4.996
					c0.773,2.282,1.391,4.74,1.868,7.352c3.36-5.432,8.905-13.951,13.034-18.08c6.333-6.334,9.667-3,15-0.5S171.276,93,154.61,86.88
					z"/>
				<path fill="#FDD6BD" d="M42.943,51.5c0,2.977,2.367,5.396,5.321,5.491c0.777-3.466,1.938-6.785,3.452-9.903
					C50.801,46.407,49.671,46,48.443,46C45.406,46,42.943,48.463,42.943,51.5z"/>
				<path fill="#FDD6BD" d="M142.943,51.5c0-3.037-2.463-5.5-5.5-5.5c-1.261,0-2.419,0.429-3.347,1.143
					c1.502,3.104,2.652,6.407,3.426,9.854C140.522,56.953,142.943,54.511,142.943,51.5z"/>
				<path fill="#CF7228" d="M68.407,155.779c-0.262-0.88-0.407-1.797-0.407-2.727v-7.119c0-4.228,0.48-7.912,1.345-10.953
					c-2.261-3.961-3.573-8.541-3.573-13.428c0-5.467,1.615-10.552,4.397-14.812c-2.576-1.478-4.996-3.198-7.225-5.132
					c-1.569,2.201-3.189,5.158-4.532,9.119c-3.66,10.796-4.016,25.313-1.054,43.149c0.609,3.671,3.786,6.272,7.389,6.272
					c0.408,0,0.85-0.033,1.266-0.103c0.696-0.116,0.987-0.33,1.987-0.616v-2.145C68,156.714,68.154,156.214,68.407,155.779z"/>
				<path fill="#CF7228" d="M125.304,105.732c-0.803-1.607-1.637-2.969-2.459-4.122c-2.229,1.934-4.646,3.653-7.223,5.132
					c2.781,4.26,4.403,9.344,4.403,14.811c0,4.828-1.238,9.357-3.448,13.285c0.879,3.067,1.423,6.803,1.423,11.096v7.119
					c0,0.902-0.136,1.791-0.375,2.646c0.233,0.453,0.375,0.979,0.375,1.588v2.19c1,0.262,1.171,0.462,1.829,0.571
					c0.416,0.068,0.815,0.102,1.224,0.102c3.602,0,6.772-2.603,7.382-6.273c2.335-14.065,2.596-26.057,0.812-35.797
					c-0.478-2.611-1.097-5.069-1.87-7.352C126.736,108.844,126.032,107.192,125.304,105.732z"/>
				<path fill="#FDD6BD" d="M83.395,154h-0.506c-0.847,0-1.652,0.214-2.319,0.597c-0.588-0.383-1.326-0.597-2.173-0.597h-0.508
					c-1.09,0-2.117,0.346-2.854,0.967c-0.633-0.621-1.551-0.967-2.641-0.967h-0.506c-1.495,0-2.852,0.645-3.51,1.779
					c-0.253,0.435-0.379,0.935-0.379,1.508v2.145v2.362c0,2.069,1.82,4.206,3.889,4.206h0.506c1.09,0,2.008-0.6,2.641-1.463
					C75.771,165.4,76.799,166,77.889,166h0.508c0.847,0,1.585-0.369,2.173-0.934c0.667,0.564,1.473,0.934,2.319,0.934h0.506
					c2.07,0,3.605-2.137,3.605-4.206v-4.507c0-0.063-0.042-0.118-0.045-0.18C86.868,155.152,85.401,154,83.395,154z"/>
				<path fill="#DB8538" d="M101.889,154h0.508c1.089,0,2.006,0.346,2.639,0.967c0.736-0.621,1.764-0.967,2.854-0.967h0.508
					c1.089,0,2.006,0.346,2.639,0.967c0.736-0.621,1.764-0.967,2.854-0.967h0.508c1.459,0,2.64,0.616,3.2,1.699
					c0.239-0.855,0.403-1.744,0.403-2.646v-7.119c0-4.293-0.544-8.028-1.423-11.096c2.21-3.928,3.462-8.457,3.462-13.285
					c0-5.467-1.629-10.551-4.41-14.811c2.576-1.479,4.99-3.198,7.22-5.132c9.672-8.389,15.796-20.759,15.796-34.566
					c0-2.218-0.167-4.396-0.473-6.53c4.999-0.275,8.971-4.404,8.971-9.473c0-5.247-4.254-9.5-9.5-9.5
					c-2.094,0-4.023,0.686-5.593,1.832c-7.666-12.654-21.293-21.291-36.987-22.024c0.717-0.849,1.655-1.6,2.521-2.19
					c0.664-0.453-0.082-1.353-0.734-1.102c-1.693,0.65-3.003,1.803-3.82,3.24c-0.046,0-0.091-0.003-0.137-0.003
					c-0.148,0-0.295,0.01-0.443,0.011c0.02-0.516,0.046-1.031,0.086-1.548c0.071-0.929,0.283-1.854,0.408-2.774
					c0.06-0.438,0.639-2.555,0.625-3.67c-0.015-1.223-0.625-1.431-0.625-1.431c-0.397-0.138-0.893-0.002-1.133,0.489
					c-1.186,2.422-1.588,5.813-1.471,8.998c-15.43,0.848-28.818,9.341-36.448,21.756c-1.505-1-3.308-1.584-5.249-1.584
					c-5.248,0-9.5,4.253-9.5,9.5c0,4.9,3.71,8.932,8.476,9.442c-0.308,2.144-0.476,4.332-0.476,6.561
					c0,13.808,6.126,26.177,15.798,34.565c2.229,1.934,4.646,3.654,7.222,5.132c-2.782,4.26-4.404,9.345-4.404,14.812
					c0,4.887,1.326,9.467,3.587,13.428C68.48,138.021,68,141.706,68,145.934v7.119c0,0.93,0.117,1.847,0.379,2.727
					c0.658-1.135,2.015-1.779,3.51-1.779h0.506c1.09,0,2.008,0.346,2.641,0.967c0.736-0.621,1.764-0.967,2.854-0.967h0.508
					c0.847,0,1.585,0.214,2.173,0.597c0.667-0.383,1.473-0.597,2.319-0.597h0.506c2.007,0,3.474,1.152,3.561,3.107
					c0.64-1.264,1.045-2.643,1.045-4.055v-4.824c2,0.297,3.258,0.459,4.949,0.459c1.727,0,3.051-0.168,5.051-0.477v4.842
					c0,0.908,0.136,1.803,0.421,2.663C99.094,154.622,100.421,154,101.889,154z M137.443,46c3.037,0,5.5,2.463,5.5,5.5
					c0,3.011-2.421,5.453-5.421,5.496c-0.773-3.446-1.924-6.75-3.426-9.854C135.024,46.429,136.183,46,137.443,46z M48.265,56.991
					c-2.954-0.096-5.321-2.515-5.321-5.491c0-3.037,2.463-5.5,5.5-5.5c1.228,0,2.357,0.407,3.273,1.088
					C50.202,50.206,49.042,53.525,48.265,56.991z M67.82,82.836c1.117-3.207,3.646-5.758,6.947-7.683
					c-6.6-1.91-11.428-7.986-11.428-15.2c0-8.745,7.088-15.834,15.834-15.834c5.924,0,11.076,3.254,13.793,8.068
					c2.717-4.814,7.869-8.068,13.793-8.068c8.744,0,15.836,7.089,15.836,15.834c0,6.949-4.482,12.836-10.709,14.969
					c3.498,1.949,6.182,4.579,7.344,7.914c2.246,6.462,3.633,15.129-10.441,18.549c-0.84,2.256-3.93,6.584-15.262,6.584
					c-11.404,0-14.568-4.382-15.441-6.625C64.197,97.893,65.586,89.271,67.82,82.836z M92.893,137.216
					c-10.113,0-18.311-8.198-18.311-18.31c0-3.264,0.863-6.322,2.36-8.975c4.967,1.848,10.339,2.862,15.95,2.862
					c5.61,0,10.982-1.015,15.949-2.862c1.496,2.653,2.359,5.711,2.359,8.975C111.201,129.018,103.004,137.216,92.893,137.216z"/>
				<path fill="#FDD6BD" d="M117.597,155.699c-0.561-1.083-1.741-1.699-3.2-1.699h-0.508c-1.09,0-2.117,0.346-2.854,0.967
					c-0.633-0.621-1.55-0.967-2.639-0.967h-0.508c-1.09,0-2.117,0.346-2.854,0.967c-0.633-0.621-1.55-0.967-2.639-0.967h-0.508
					c-1.468,0-2.795,0.622-3.468,1.716c-0.276,0.448-0.421,0.969-0.421,1.571v4.507c0,2.069,1.818,4.206,3.889,4.206h0.508
					c1.089,0,2.006-0.6,2.639-1.463c0.736,0.863,1.764,1.463,2.854,1.463h0.508c1.089,0,2.006-0.6,2.639-1.463
					c0.736,0.863,1.764,1.463,2.854,1.463h0.508c2.068,0,3.604-2.137,3.604-4.206v-2.316v-2.19
					C118,156.678,117.83,156.152,117.597,155.699z"/>
				<path fill="#FDD6BD" d="M111.201,118.906c0-3.264-0.863-6.321-2.359-8.975c-4.967,1.848-10.339,2.862-15.949,2.862
					c-5.611,0-10.983-1.015-15.95-2.862c-1.497,2.652-2.36,5.711-2.36,8.975c0,10.111,8.197,18.31,18.311,18.31
					C103.004,137.216,111.201,129.018,111.201,118.906z"/>
				<path fill="#F7956B" d="M78.086,101.344c0.873,2.243,4.037,6.625,15.441,6.625c11.332,0,14.422-4.328,15.262-6.584
					c-3.838,0.933-8.826,1.477-15.262,1.477C86.99,102.861,81.947,102.303,78.086,101.344z"/>
				<path fill="#FDD6BD" d="M93.527,102.861c6.436,0,11.424-0.544,15.262-1.477c14.074-3.42,12.688-12.087,10.441-18.549
					c-1.162-3.335-3.846-5.965-7.344-7.914c6.227-2.133,10.709-8.02,10.709-14.969c0-8.745-7.092-15.834-15.836-15.834
					c-5.924,0-11.076,3.254-13.793,8.068c-2.717-4.814-7.869-8.068-13.793-8.068c-8.746,0-15.834,7.089-15.834,15.834
					c0,7.214,4.828,13.29,11.428,15.2c-3.301,1.925-5.83,4.476-6.947,7.683c-2.234,6.436-3.623,15.057,10.266,18.508
					C81.947,102.303,86.99,102.861,93.527,102.861z M107.895,51.401c4.338,0,7.852,3.517,7.852,7.852
					c0,4.337-3.514,7.852-7.852,7.852c-4.336,0-7.85-3.515-7.85-7.852C100.045,54.918,103.559,51.401,107.895,51.401z
					 M93.527,69.382c4.932,0,9.176,0.647,10.971,2.741c0.154,0.182,0.355,0.375,0.467,0.578c1.41,2.556-5.027,2.043-3.15,3.832
					c0,0-0.539,3.32-8.287,3.32c-7.75,0-8.289-3.32-8.289-3.32c1.875-1.789-4.561-1.276-3.15-3.832
					c0.111-0.203,0.313-0.396,0.469-0.578C84.35,70.029,88.596,69.382,93.527,69.382z M70.797,59.253
					c0-4.335,3.514-7.852,7.85-7.852c4.338,0,7.852,3.517,7.852,7.852c0,4.337-3.514,7.852-7.852,7.852
					C74.311,67.104,70.797,63.59,70.797,59.253z"/>
				<path fill="#583B2B" d="M82.557,72.123c-0.156,0.182-0.357,0.375-0.469,0.578c-1.41,2.556,5.025,2.043,3.15,3.832
					c0,0,0.539,3.32,8.289,3.32c7.748,0,8.287-3.32,8.287-3.32c-1.877-1.789,4.561-1.276,3.15-3.832
					c-0.111-0.203-0.313-0.396-0.467-0.578c-1.795-2.094-6.039-2.741-10.971-2.741S84.35,70.029,82.557,72.123z"/>
				<path fill="#FFFFFF" d="M86.498,59.253c0-4.335-3.514-7.852-7.852-7.852c-4.336,0-7.85,3.517-7.85,7.852
					c0,4.337,3.514,7.852,7.85,7.852C82.984,67.104,86.498,63.59,86.498,59.253z M75.846,62.053
					c-0.793-0.746-1.291-1.802-1.291-2.978c0-2.261,1.83-4.095,4.092-4.095s4.096,1.834,4.096,4.095
					c0,0.873-0.275,1.681-0.744,2.347c-0.277-1.121-1.154-2.008-2.721-2.008C77.449,59.414,76.26,60.654,75.846,62.053z"/>
				<path fill="#353A42" d="M81.998,61.422c0.469-0.666,0.744-1.474,0.744-2.347c0-2.261-1.834-4.095-4.096-4.095
					s-4.092,1.834-4.092,4.095c0,1.176,0.498,2.231,1.291,2.978c0.414-1.398,1.604-2.639,3.432-2.639
					C80.844,59.414,81.721,60.301,81.998,61.422z"/>
				<path fill="#FFFFFF" d="M107.895,67.104c4.338,0,7.852-3.515,7.852-7.852c0-4.335-3.514-7.852-7.852-7.852
					c-4.336,0-7.85,3.517-7.85,7.852C100.045,63.59,103.559,67.104,107.895,67.104z M107.895,54.98c2.264,0,4.094,1.834,4.094,4.095
					c0,1.176-0.498,2.231-1.291,2.978c-0.414-1.398-1.604-2.639-3.432-2.639c-1.566,0-2.445,0.887-2.725,2.008
					c-0.465-0.666-0.74-1.474-0.74-2.347C103.801,56.814,105.635,54.98,107.895,54.98z"/>
				<path fill="#353A42" d="M107.266,59.414c1.828,0,3.018,1.24,3.432,2.639c0.793-0.746,1.291-1.802,1.291-2.978
					c0-2.261-1.83-4.095-4.094-4.095c-2.26,0-4.094,1.834-4.094,4.095c0,0.873,0.275,1.681,0.74,2.347
					C104.82,60.301,105.699,59.414,107.266,59.414z"/>
			</g>
			<path opacity="0.3" fill="#FFFFFF" d="M154.61,86.88c-12.462-4.576-24.185,10.802-29.308,18.854
				c-0.802-1.604-1.636-2.97-2.458-4.123c9.672-8.389,15.798-20.759,15.798-34.566c0-2.218-0.166-4.396-0.472-6.53
				c4.999-0.275,8.972-4.404,8.972-9.473c0-5.247-4.254-9.5-9.5-9.5c-2.094,0-4.023,0.686-5.594,1.832
				c-7.666-12.654-21.292-21.291-36.986-22.024c0.717-0.849,1.656-1.6,2.521-2.19c0.664-0.453-0.082-1.353-0.734-1.102
				c-1.693,0.65-3.003,1.803-3.82,3.24c-0.029,0-0.058,0-0.086-0.002v127.392c1.709-0.003,3.379-0.171,5-0.476v4.842
				c0,0.908,0.164,1.803,0.449,2.663c-0.276,0.448-0.449,0.969-0.449,1.571v4.507c0,2.069,1.875,4.206,3.945,4.206h0.508
				c1.089,0,2.006-0.6,2.639-1.463c0.736,0.863,1.764,1.463,2.854,1.463h0.508c1.089,0,2.006-0.6,2.639-1.463
				c0.736,0.863,1.764,1.463,2.854,1.463h0.508c2.068,0,3.547-2.137,3.547-4.206v-2.317c0.58,0.263,1.199,0.463,1.857,0.572
				c0.416,0.068,0.829,0.102,1.238,0.102c3.602,0,6.779-2.603,7.389-6.273c2.335-14.065,2.599-26.057,0.814-35.797
				c3.36-5.432,8.905-13.951,13.034-18.08c6.333-6.334,9.667-3,15-0.5S171.276,93,154.61,86.88z"/>
		</g>
	</g>
</g>
</svg>
