<?xml version="1.0" encoding="utf-8"?>
<!-- Generator: Adobe Illustrator 16.0.0, SVG Export Plug-In . SVG Version: 6.00 Build 0)  -->
<!DOCTYPE svg PUBLIC "-//W3C//DTD SVG 1.1//EN" "http://www.w3.org/Graphics/SVG/1.1/DTD/svg11.dtd">
<svg version="1.1" id="Layer_1" xmlns="http://www.w3.org/2000/svg" xmlns:xlink="http://www.w3.org/1999/xlink" x="0px" y="0px"
	 width="188px" height="188px" viewBox="0 0 188 188" enable-background="new 0 0 188 188" xml:space="preserve">
<g>
	
		<image overflow="visible" opacity="0.4" width="573" height="648" xlink:href="506DBE2A.png"  transform="matrix(0.24 0 0 0.24 26.7856 25.7197)">
	</image>
	<g>
		<g>
			<g>
				<path fill="#353A42" d="M155.164,129.247c-6.165-19.549-14.322-31.646-19.436-37.86c-2.813-17.327-6.045-34.11-6.76-36.156
					c-4.982-14.271-18.563-24.511-34.535-24.511c-16.725,0-30.826,11.227-35.182,26.555c-0.483,1.702-3.474,17.524-6.15,34.159
					c-5.117,6.229-13.249,18.314-19.398,37.813c-7.745,24.562,10.142,13.369,15.172,2.769c1.27,14.328,9.139,26.751,20.553,34.217
					c7.188,4.702,15.774,7.445,25.006,7.445s17.817-2.743,25.006-7.445c11.414-7.467,19.283-19.89,20.553-34.217
					C145.022,142.616,162.909,153.809,155.164,129.247z M94.434,165.678c-20.814,0-37.75-16.934-37.75-37.75
					c0-13.536,8.904-64.211,10.283-68.537c2.717-8.516,10.736-12.517,18.385-8.85c5.758,2.762,9.082,10.334,9.082,10.334
					s2.406-7.389,8.008-10c8.576-4,17.623,1.943,19.656,10.316c1.125,4.631,10.086,53.022,10.086,66.736
					C132.184,148.744,115.25,165.678,94.434,165.678z"/>
				<path fill="#F57F2F" d="M69.428,166.232c-4.061,0.31-7.655,2.136-7.434,7.768h18.379h28.121h18.379
					c0.223-5.632-3.372-7.458-7.434-7.768c-7.188,4.702-15.774,7.445-25.006,7.445S76.616,170.935,69.428,166.232z"/>
				<path fill="#FFFFFF" d="M102.441,50.875c-5.602,2.611-8.008,10-8.008,10s-3.324-7.572-9.082-10.334
					c-7.648-3.667-15.668,0.334-18.385,8.85c-1.379,4.326-10.283,55.001-10.283,68.537c0,20.816,16.936,37.75,37.75,37.75
					c20.816,0,37.75-16.934,37.75-37.75c0-13.714-8.961-62.105-10.086-66.736C120.064,52.818,111.018,46.875,102.441,50.875z
					 M95.434,73.594c5.604,0,7.74,6.625,7.74,6.625l-7.74,5.605l-7.74-5.605C87.693,80.219,89.83,73.594,95.434,73.594z
					 M75.33,66.158c0.65-2.729,3.391-4.414,6.121-3.764c2.73,0.648,4.416,3.391,3.764,6.121c-0.648,2.729-3.389,4.416-6.119,3.766
					S74.68,68.891,75.33,66.158z M109.771,72.281c-2.729,0.65-5.469-1.036-6.119-3.766c-0.652-2.73,1.033-5.473,3.764-6.121
					c2.73-0.65,5.471,1.035,6.123,3.764C114.189,68.891,112.504,71.631,109.771,72.281z"/>
				<path fill="#F57F2F" d="M103.174,80.219c0,0-2.137-6.625-7.74-6.625s-7.74,6.625-7.74,6.625l7.74,5.605L103.174,80.219z"/>
				<path fill="#353A42" d="M107.416,62.395c-2.73,0.648-4.416,3.391-3.764,6.121c0.65,2.729,3.391,4.416,6.119,3.766
					c2.732-0.65,4.418-3.391,3.768-6.123C112.887,63.43,110.146,61.744,107.416,62.395z M110.92,68.419
					c-0.641-1.055-1.826-1.819-3.338-1.571c-0.799,0.132-1.357,0.485-1.711,0.955c-0.146-1.375,0.791-2.643,2.172-2.869
					c1.43-0.234,2.779,0.733,3.014,2.163C111.133,67.559,111.07,68.008,110.92,68.419z"/>
				<path fill="#FFFFFF" d="M108.043,64.934c-1.381,0.227-2.318,1.494-2.172,2.869c0.354-0.47,0.912-0.823,1.711-0.955
					c1.512-0.248,2.697,0.517,3.338,1.571c0.15-0.411,0.213-0.86,0.137-1.322C110.822,65.667,109.473,64.699,108.043,64.934z"/>
				<path fill="#353A42" d="M79.096,72.281c2.73,0.65,5.471-1.036,6.119-3.766c0.652-2.73-1.033-5.473-3.764-6.121
					c-2.73-0.65-5.471,1.035-6.121,3.764C74.68,68.891,76.365,71.631,79.096,72.281z M77.811,67.097
					c0.236-1.43,1.584-2.397,3.014-2.163c1.381,0.227,2.32,1.494,2.172,2.869c-0.354-0.47-0.91-0.823-1.709-0.955
					c-1.514-0.248-2.697,0.517-3.34,1.571C77.799,68.008,77.734,67.559,77.811,67.097z"/>
				<path fill="#FFFFFF" d="M81.287,66.848c0.799,0.132,1.355,0.485,1.709,0.955c0.148-1.375-0.791-2.643-2.172-2.869
					c-1.43-0.234-2.777,0.733-3.014,2.163c-0.076,0.462-0.012,0.911,0.137,1.322C78.59,67.364,79.773,66.6,81.287,66.848z"/>
			</g>
			<path opacity="0.3" fill="#FFFFFF" d="M155.164,129.247c-6.165-19.549-14.322-31.646-19.436-37.86
				c-2.813-17.327-6.045-34.11-6.76-36.156c-4.982-14.271-18.563-24.511-34.535-24.511c-0.053,0-0.104,0.003-0.157,0.003V174h32.597
				c0.223-5.632-3.372-7.458-7.434-7.768c11.414-7.467,19.283-19.89,20.553-34.217C145.022,142.616,162.909,153.809,155.164,129.247
				z"/>
		</g>
	</g>
</g>
</svg>
