<?xml version="1.0" encoding="utf-8"?>
<!-- Generator: Adobe Illustrator 16.0.0, SVG Export Plug-In . SVG Version: 6.00 Build 0)  -->
<!DOCTYPE svg PUBLIC "-//W3C//DTD SVG 1.1//EN" "http://www.w3.org/Graphics/SVG/1.1/DTD/svg11.dtd">
<svg version="1.1" id="Layer_1" xmlns="http://www.w3.org/2000/svg" xmlns:xlink="http://www.w3.org/1999/xlink" x="0px" y="0px"
	 width="188px" height="188px" viewBox="0 0 188 188" enable-background="new 0 0 188 188" xml:space="preserve">
<g>
	
		<image overflow="visible" opacity="0.4" width="526" height="649" xlink:href="9321CF4A.png"  transform="matrix(0.24 0 0 0.24 32.062 25.3633)">
	</image>
	<g>
		<g>
			<g>
				<path fill="#FABCA3" d="M136.396,54.962c0.981,0.047,1.993-0.238,2.847-0.913c2.981-2.357,2.226-9.064,4.56-11.58
					c0,0-9.779,0.688-11.131,6.19c-0.046,0.188-0.067,0.361-0.099,0.541C133.979,51.022,135.257,52.946,136.396,54.962z"/>
				<path fill="#FABCA3" d="M44.64,44.088c2.532,2.316,2.325,9.063,5.489,11.169c0.482,0.321,1.003,0.52,1.53,0.627
					c1.294-2.41,2.792-4.692,4.461-6.836C54.062,43.982,44.64,44.088,44.64,44.088z"/>
				<path fill="#FDD6BD" d="M147.372,136.746c-2.555-1.561-5.576-1.964-8.505-1.181c-0.561-0.532-1.22-1.011-1.977-1.429
					c-1.421-0.784-3.036-1.25-4.639-1.426c-0.277,0.652-0.573,1.294-0.883,1.929c1.56,0.085,3.19,0.494,4.555,1.248
					c0.243,0.134,0.506,0.295,0.772,0.486c-2.412,1.166-4.21,2.988-4.531,4.626c-0.539,2.752,1.434,4.991,3.652,5.567
					c0.355,0.092,0.726,0.141,1.097,0.141c1.528,0,3.083-0.826,3.745-2.867c0.793-2.443,0.628-4.686-0.42-6.534
					c1.708-0.302,3.877-0.207,6.09,1.146c0.473,0.288,1.087,0.139,1.375-0.332C147.992,137.649,147.844,137.034,147.372,136.746z
					 M138.757,143.224c-0.551,1.697-1.888,1.55-2.438,1.407c-1.323-0.343-2.504-1.651-2.191-3.246
					c0.151-0.774,1.426-2.332,3.783-3.368c0.097-0.043,0.199-0.086,0.306-0.129C139.066,139.107,139.531,140.837,138.757,143.224z"
					/>
				<path fill="#FDD6BD" d="M76.443,161.649c-3.991,0-7.563,2.074-9.573,5.198c-1.132,1.761-1.87,3.851-1.87,6.099V174h9.973
					l1.471-5.75l2.561,5.75H88v-1.054c0-2.248-0.795-4.338-1.927-6.098C84.063,163.724,80.434,161.649,76.443,161.649z"/>
				<path fill="#FABCA3" d="M135.523,116.591c0-3.642-0.477-7.171-1.363-10.534c-8.715,12.686-23.32,21.01-39.874,21.01
					c-16.555,0-31.159-8.324-39.874-21.009c-0.887,3.362-1.335,6.892-1.335,10.533c0,12.282,4.923,23.303,13.923,30.857v19.399
					c2-3.124,5.509-5.198,9.5-5.198c3.99,0,7.5,2.074,9.5,5.199v-9.865c3,0.553,5.484,0.845,8.343,0.845
					c2.618,0,4.657-0.255,7.657-0.721v9.203c2-2.82,5.372-4.661,9.129-4.661c3.602,0,6.871,1.691,8.871,4.317v-17.104
					c5-3.813,8.688-8.665,11.397-14.223c0.31-0.635,0.591-1.276,0.868-1.929C134.371,127.759,135.523,122.312,135.523,116.591z"/>
				<path fill="#FCD6CD" d="M94.286,127.066c16.554,0,31.159-8.324,39.874-21.01c5.344-7.777,8.478-17.192,8.478-27.342
					c0-5.425-0.907-10.636-2.555-15.504c16.141-9.084,9.983-30.873,9.983-30.873s-0.8,1.863-11.552,2.311
					c-8.116,0.339-12.435,4.346-14.065,6.29c-8.271-6.612-18.751-10.575-30.163-10.575c-11.507,0-22.069,4.026-30.371,10.738
					c-1.688-1.756-6.335-5.572-14.644-5.24C38.52,36.291,37.57,34.5,37.57,34.5s-4.063,20.701,10.787,29.1
					c-1.564,4.757-2.423,9.834-2.423,15.115c0,10.149,3.134,19.564,8.478,27.343C63.127,118.742,77.731,127.066,94.286,127.066z
					 M94.286,114.102c-14.143,0-25.608-7.164-25.608-16.002c0-8.836,11.466-15.999,25.608-15.999s25.608,7.163,25.608,15.999
					C119.895,106.938,108.429,114.102,94.286,114.102z M143.802,42.469c-2.334,2.516-1.578,9.223-4.56,11.58
					c-0.854,0.675-1.865,0.96-2.847,0.913c-1.139-2.016-2.417-3.939-3.823-5.762c0.031-0.18,0.053-0.354,0.099-0.541
					C134.022,43.156,143.802,42.469,143.802,42.469z M116.88,73.123c0.328-2.674,2.764-4.576,5.442-4.248
					c2.672,0.328,4.574,2.764,4.244,5.438c-0.326,2.675-2.763,4.579-5.438,4.249C118.452,78.234,116.55,75.799,116.88,73.123z
					 M71.692,73.123c0.33,2.676-1.574,5.111-4.249,5.439c-2.675,0.33-5.111-1.574-5.438-4.249c-0.329-2.675,1.573-5.11,4.246-5.438
					C68.928,68.547,71.364,70.449,71.692,73.123z M50.129,55.257c-3.164-2.106-2.957-8.853-5.489-11.169c0,0,9.422-0.105,11.48,4.96
					c-1.669,2.144-3.167,4.426-4.461,6.836C51.132,55.776,50.611,55.578,50.129,55.257z"/>
				<path fill="#F7956B" d="M94.286,82.101c-14.143,0-25.608,7.163-25.608,15.999c0,8.838,11.466,16.002,25.608,16.002
					s25.608-7.164,25.608-16.002C119.895,89.264,108.429,82.101,94.286,82.101z M86.036,103.506c-2.985,0-5.404-2.42-5.404-5.404
					s2.419-5.405,5.404-5.405s5.405,2.421,5.405,5.405S89.021,103.506,86.036,103.506z M102.537,103.506
					c-2.986,0-5.405-2.42-5.405-5.404s2.419-5.405,5.405-5.405c2.984,0,5.403,2.421,5.403,5.405S105.521,103.506,102.537,103.506z"
					/>
				<circle fill="#CF7228" cx="86.036" cy="98.101" r="5.405"/>
				<circle fill="#CF7228" cx="102.537" cy="98.101" r="5.405"/>
				<path fill="#FFFFFF" d="M121.129,78.563c2.675,0.33,5.111-1.574,5.438-4.249c0.33-2.675-1.572-5.11-4.244-5.438
					c-2.679-0.328-5.114,1.574-5.442,4.248C116.55,75.799,118.452,78.234,121.129,78.563z M118.662,73.342
					c0.209-1.688,1.748-2.891,3.438-2.683c1.69,0.208,2.892,1.745,2.683,3.437c-0.091,0.751-0.447,1.406-0.965,1.884
					c-0.44-1.22-1.453-2.259-3.045-2.454c-0.886-0.108-1.587,0.08-2.121,0.453C118.636,73.771,118.639,73.558,118.662,73.342z"/>
				<path fill="#353A42" d="M120.772,73.525c1.592,0.195,2.604,1.234,3.045,2.454c0.518-0.478,0.874-1.133,0.965-1.884
					c0.209-1.691-0.992-3.229-2.683-3.437c-1.689-0.208-3.229,0.994-3.438,2.683c-0.023,0.216-0.026,0.429-0.011,0.637
					C119.186,73.605,119.887,73.417,120.772,73.525z"/>
				<path fill="#FFFFFF" d="M62.005,74.313c0.327,2.675,2.764,4.579,5.438,4.249c2.675-0.328,4.579-2.764,4.249-5.439
					c-0.328-2.674-2.765-4.576-5.441-4.248C63.578,69.203,61.676,71.639,62.005,74.313z M66.472,70.659
					c1.69-0.208,3.229,0.994,3.437,2.683c0.026,0.216,0.028,0.429,0.013,0.637c-0.534-0.373-1.237-0.562-2.121-0.453
					c-1.592,0.195-2.606,1.234-3.046,2.454c-0.517-0.478-0.873-1.133-0.964-1.884C63.582,72.404,64.781,70.867,66.472,70.659z"/>
				<path fill="#353A42" d="M64.754,75.979c0.439-1.22,1.454-2.259,3.046-2.454c0.884-0.108,1.587,0.08,2.121,0.453
					c0.016-0.208,0.014-0.421-0.013-0.637c-0.207-1.688-1.746-2.891-3.437-2.683s-2.89,1.745-2.682,3.437
					C63.881,74.847,64.237,75.502,64.754,75.979z"/>
				<path fill="#FDD6BD" d="M111.072,161.649c-3.757,0-6.963,1.841-9.017,4.661c-1.357,1.864-2.056,4.153-2.056,6.636V174h9.602
					l1.471-5.75l2.561,5.75H122v-1.054c0-2.638-0.727-5.058-2.241-6.979C117.69,163.341,114.674,161.649,111.072,161.649z"/>
			</g>
			<path opacity="0.3" fill="#FFFFFF" d="M147.372,136.746c-2.554-1.56-5.571-1.964-8.505-1.181
				c-0.561-0.532-1.221-1.011-1.977-1.429c-1.42-0.784-3.036-1.25-4.639-1.426c2.105-4.952,3.271-10.399,3.271-16.12
				c0-3.642-0.477-7.171-1.363-10.534c5.344-7.777,8.478-17.192,8.478-27.342c0-5.425-0.907-10.636-2.555-15.504
				c16.141-9.084,9.983-30.873,9.983-30.873s-0.8,1.863-11.552,2.311c-8.116,0.339-12.435,4.346-14.065,6.29
				c-8.111-6.484-18.35-10.411-29.506-10.561v127.435c2.389-0.039,4.727-0.278,7-0.705v9.203c-1.357,1.864-2,4.153-2,6.636V174
				h9.658l1.471-5.75l2.561,5.75h8.311v-1.054c0-2.638-0.485-5.058-2-6.979v-17.104c4.791-3.813,8.717-8.665,11.426-14.223
				c1.559,0.085,3.189,0.494,4.555,1.248c0.242,0.134,0.506,0.295,0.773,0.486c-2.412,1.166-4.211,2.988-4.532,4.626
				c-0.54,2.752,1.433,4.991,3.652,5.567c0.355,0.092,0.726,0.141,1.097,0.141c1.529,0,3.083-0.826,3.745-2.867
				c0.793-2.443,0.628-4.686-0.42-6.534c1.707-0.3,3.876-0.207,6.09,1.146c0.47,0.288,1.087,0.139,1.374-0.332
				C147.992,137.649,147.844,137.034,147.372,136.746z M138.757,143.224c-0.551,1.697-1.888,1.55-2.438,1.407
				c-1.323-0.343-2.505-1.651-2.191-3.246c0.151-0.774,1.426-2.332,3.784-3.368c0.096-0.043,0.197-0.086,0.305-0.129
				C139.066,139.107,139.531,140.837,138.757,143.224z"/>
		</g>
	</g>
</g>
</svg>
