<?xml version="1.0" encoding="utf-8"?>
<!-- Generator: Adobe Illustrator 16.0.0, SVG Export Plug-In . SVG Version: 6.00 Build 0)  -->
<!DOCTYPE svg PUBLIC "-//W3C//DTD SVG 1.1//EN" "http://www.w3.org/Graphics/SVG/1.1/DTD/svg11.dtd">
<svg version="1.1" id="Layer_1" xmlns="http://www.w3.org/2000/svg" xmlns:xlink="http://www.w3.org/1999/xlink" x="0px" y="0px"
	 width="188px" height="188px" viewBox="0 0 188 188" enable-background="new 0 0 188 188" xml:space="preserve">
<g>
	
		<image overflow="visible" opacity="0.4" width="530" height="650" xlink:href="33FC6E59.png"  transform="matrix(0.24 0 0 0.24 43.1318 16.6777)">
	</image>
	<g>
		<g>
			<g>
				<path fill="#3F4A50" d="M162.776,120.791c-3-5.584-14.333,0-14.333,0s-1-15.084-9-13.084s1,18.334,1,18.334
					c-2.281,5.928-8.771,8.58-12.646,9.665c1.182,7.43,3.712,15.582,9.104,18.493c0.396,0.214,0.779,0.414,1.15,0.607
					c8.723-5.668,8.724-24.433,8.724-24.433C155.776,132.041,165.776,126.374,162.776,120.791z"/>
				<path fill="#525E66" d="M127.798,135.706c-0.62-3.901-0.869-7.603-0.966-10.242c-0.017-1.118-0.036-2.229-0.058-3.284
					c0.002-0.41,0.007-0.639,0.007-0.639l-0.02,0.047c-0.063-2.938-0.143-5.319-0.238-5.894c-0.687-4.112-2.189-7.948-4.336-11.337
					c11.367-8.323,18.756-21.761,18.756-36.93c0-25.268-20.483-45.75-45.75-45.75c-25.268,0-45.75,20.482-45.75,45.75
					c0,15.454,7.67,29.107,19.402,37.391c-0.367-3.949-0.456-7.556-0.445-10.219c-0.406-0.808-0.76-1.639-1.063-2.487
					c-1.373-1.567-2.453-3.825-3.106-7.022c-2.507-12.266,4.815-19.266,14.403-22.707c-2.076-1.004-3.443-3.193-3.273-5.636
					c0.221-3.203,2.997-5.619,6.199-5.397c3.203,0.223,5.621,2.999,5.398,6.201c-0.076,1.094-0.455,2.092-1.041,2.928
					c3.209-0.566,6.461-0.829,9.524-0.829c2.821,0,5.804,0.22,8.767,0.697c-0.534-0.809-0.877-1.76-0.947-2.796
					c-0.223-3.202,2.195-5.979,5.398-6.201c3.201-0.222,5.977,2.194,6.199,5.397c0.162,2.333-1.08,4.435-3.003,5.493
					c9.782,3.391,17.339,10.416,14.796,22.85c-0.505,2.476-1.268,4.387-2.221,5.855c-0.748,2.564-1.982,4.969-3.619,7.146
					c-0.194,7.04-1.154,17.301-4.711,25.062l-4.047-17.585c-4.686,2.582-10.308,4.09-16.357,4.09c-6.885,0-13.213-1.953-18.237-5.22
					l-4.307,18.715c-2.315-5.051-3.526-11.154-4.146-16.743c-1.709,3.223-2.862,6.785-3.33,10.561
					c-0.098,0.791-0.166,7.581-0.203,12.799c-0.689,8.35-2.891,20.688-9.824,24.43c-6.695,3.613-9.793,3.898-5.633,8.107
					c3.835,3.88,23.529,3.23,30.447-0.827c4.602,2.595,9.979,4.062,15.729,4.062c5.783,0,11.193-1.484,15.814-4.109
					c6.845,4.1,26.678,4.77,30.527,0.875c3.914-3.959,1.402-4.448-4.482-7.5c-0.371-0.193-0.754-0.394-1.15-0.607
					C131.51,151.288,128.979,143.136,127.798,135.706z"/>
				<path fill="#FFFFFF" d="M86.959,57.551c0.223-3.202-2.195-5.979-5.398-6.201c-3.202-0.222-5.979,2.194-6.199,5.397
					c-0.17,2.442,1.197,4.632,3.273,5.636c2.331-0.838,4.793-1.464,7.283-1.904C86.504,59.643,86.883,58.645,86.959,57.551z
					 M84.416,58.15c-0.537-0.558-1.317-0.939-2.375-1.012c-1.906-0.133-3.328,0.854-4.117,2.179
					c-0.496-0.675-0.766-1.521-0.701-2.422c0.139-2.022,1.891-3.55,3.915-3.409c2.022,0.141,3.55,1.893,3.409,3.916
					C84.527,57.661,84.483,57.91,84.416,58.15z"/>
				<path fill="#353A42" d="M81.138,53.486c-2.024-0.141-3.776,1.387-3.915,3.409c-0.064,0.9,0.205,1.747,0.701,2.422
					c0.789-1.325,2.211-2.312,4.117-2.179c1.058,0.072,1.838,0.454,2.375,1.012c0.067-0.24,0.111-0.489,0.131-0.748
					C84.688,55.379,83.16,53.627,81.138,53.486z"/>
				<path fill="#FFFFFF" d="M114.859,56.747c-0.223-3.203-2.998-5.619-6.199-5.397c-3.203,0.223-5.621,2.999-5.398,6.201
					c0.07,1.036,0.413,1.987,0.947,2.796c2.607,0.421,5.195,1.044,7.647,1.894C113.779,61.182,115.021,59.08,114.859,56.747z
					 M105.969,58.15c-0.066-0.24-0.109-0.489-0.131-0.748c-0.139-2.023,1.389-3.775,3.41-3.916c2.023-0.141,3.775,1.387,3.916,3.409
					c0.064,0.9-0.207,1.747-0.701,2.422c-0.79-1.325-2.213-2.312-4.118-2.179C107.287,57.211,106.507,57.593,105.969,58.15z"/>
				<path fill="#353A42" d="M112.463,59.317c0.494-0.675,0.766-1.521,0.701-2.422c-0.141-2.022-1.893-3.55-3.916-3.409
					c-2.021,0.141-3.549,1.893-3.41,3.916c0.021,0.259,0.064,0.508,0.131,0.748c0.538-0.558,1.318-0.939,2.376-1.012
					C110.25,57.006,111.673,57.992,112.463,59.317z"/>
				<path fill="#BFA18D" d="M95.442,90.311c-3.874,0-9.913,2.895-15.702,4.217l-2.28,9.911c5.024,3.267,11.353,5.22,18.237,5.22
					c6.05,0,11.672-1.508,16.357-4.09l-2.641-11.475C104.178,92.66,98.932,90.311,95.442,90.311z"/>
				<path fill="#BFA18D" d="M67.338,92.112c0.303,0.849,0.656,1.68,1.063,2.487c0.003-0.518,0.008-1,0.016-1.441
					C68.039,92.852,67.68,92.503,67.338,92.112z"/>
				<path fill="#BFA18D" d="M120.852,94.188c0.009,1.13,0.001,2.448-0.039,3.904c1.637-2.178,2.871-4.582,3.619-7.146
					C123.434,92.486,122.218,93.523,120.852,94.188z"/>
				<path fill="#FFFFFF" d="M77.46,104.438l2.28-9.911c-4.223,0.965-8.307,1.082-11.324-1.369C68.408,93.6,68.403,94.082,68.4,94.6
					c-0.011,2.663,0.078,6.27,0.445,10.219c0.049,0.525,0.102,1.055,0.162,1.592c0.619,5.589,1.83,11.692,4.146,16.743
					L77.46,104.438z"/>
				<path fill="#FFFFFF" d="M120.852,94.188c-3.242,1.576-7.334,1.028-11.438-0.094l2.641,11.475l4.047,17.585
					c3.557-7.761,4.517-18.021,4.711-25.062C120.853,96.636,120.86,95.317,120.852,94.188z"/>
				<path fill="#FDD6BD" d="M68.416,93.158c3.018,2.451,7.102,2.334,11.324,1.369c5.789-1.322,11.828-4.217,15.702-4.217
					c3.489,0,8.735,2.35,13.972,3.783c4.104,1.122,8.195,1.67,11.438,0.094c1.366-0.664,2.582-1.701,3.58-3.242
					c0.953-1.469,1.716-3.38,2.221-5.855c2.543-12.434-5.014-19.459-14.796-22.85c-2.452-0.85-5.04-1.473-7.647-1.894
					c-2.963-0.478-5.945-0.697-8.767-0.697c-3.063,0-6.315,0.263-9.524,0.829c-2.49,0.44-4.952,1.066-7.283,1.904
					c-9.588,3.441-16.91,10.441-14.403,22.707c0.653,3.197,1.733,5.455,3.106,7.022C67.68,92.503,68.039,92.852,68.416,93.158z
					 M95.442,63.211c5.708,0,7.884,2.043,7.884,4.219c0,2.174-2.176,6.658-7.884,6.658s-7.883-4.484-7.883-6.658
					C87.56,65.254,89.734,63.211,95.442,63.211z"/>
				<path fill="#3F4A50" d="M95.442,74.088c5.708,0,7.884-4.484,7.884-6.658c0-2.176-2.176-4.219-7.884-4.219
					s-7.883,2.043-7.883,4.219C87.56,69.604,89.734,74.088,95.442,74.088z"/>
			</g>
			<path opacity="0.3" fill="#FFFFFF" d="M162.776,120.791c-3-5.584-14.333,0-14.333,0s-1-15.084-9-13.084s1,18.334,1,18.334
				c-2.281,5.928-8.771,8.58-12.646,9.665c-0.62-3.901-0.869-7.603-0.966-10.242c-0.017-1.118-0.036-2.229-0.058-3.284
				c0.002-0.41,0.007-0.639,0.007-0.639l-0.02,0.047c-0.063-2.938-0.143-5.319-0.238-5.894c-0.687-4.112-2.189-7.948-4.336-11.337
				c11.367-8.323,18.756-21.761,18.756-36.93c0-24.568-19.367-44.607-43.666-45.697v143.775c5.374-0.174,10.4-1.615,14.73-4.074
				c6.845,4.1,26.678,4.77,30.527,0.875c3.914-3.959,1.402-4.448-4.482-7.5c8.723-5.668,8.724-24.433,8.724-24.433
				C155.776,132.041,165.776,126.374,162.776,120.791z"/>
		</g>
	</g>
</g>
</svg>
