<?xml version="1.0" encoding="utf-8"?>
<!-- Generator: Adobe Illustrator 16.0.0, SVG Export Plug-In . SVG Version: 6.00 Build 0)  -->
<!DOCTYPE svg PUBLIC "-//W3C//DTD SVG 1.1//EN" "http://www.w3.org/Graphics/SVG/1.1/DTD/svg11.dtd">
<svg version="1.1" id="Layer_1" xmlns="http://www.w3.org/2000/svg" xmlns:xlink="http://www.w3.org/1999/xlink" x="0px" y="0px"
	 width="188px" height="188px" viewBox="0 0 188 188" enable-background="new 0 0 188 188" xml:space="preserve">
<g>
	
		<image overflow="visible" opacity="0.4" width="486" height="723" xlink:href="B70D1544.png"  transform="matrix(0.24 0 0 0.24 35.8848 7.5137)">
	</image>
	<g>
		<g>
			<g>
				<path fill="#B1B1B3" d="M130.747,145.638c-0.055-0.175-0.088-0.338-0.127-0.504c-2.264,1.328-4.428,1.681-6.445,1.029
					c-2.815-0.909-5.385-3.727-7.389-8.031c-0.868,1.17-1.809,2.28-2.807,3.337c2.395,4.455,5.442,7.363,8.966,8.501
					c1.061,0.342,2.146,0.512,3.247,0.512c2.11,0,4.271-0.631,6.4-1.866C131.843,148.064,131.207,147.112,130.747,145.638z"/>
				<path fill="#414141" d="M130.62,145.134c0.039,0.166,0.072,0.329,0.127,0.504c0.46,1.475,1.096,2.427,1.846,2.978
					c3.767,2.766,10.464-4.827,12.807-9.802C145.399,138.813,128.668,136.843,130.62,145.134z"/>
				<path fill="#414141" d="M70.022,161.289c-4.409,0-8.08,2.531-9.941,6.215c-0.773,1.528-1.081,3.252-1.081,5.082V174h22v-1.414
					c0-2.607-0.733-5.001-2.216-6.913C76.718,163.01,73.653,161.289,70.022,161.289z"/>
				<path fill="#414141" d="M104.45,161.289c-3.995,0-7.574,2.079-9.584,5.21c-1.127,1.758-1.866,3.843-1.866,6.087V174h23v-1.414
					c0-2.85-1.19-5.445-2.931-7.432C110.999,162.789,107.84,161.289,104.45,161.289z"/>
				<path fill="#FFFFFF" d="M53.729,131.398c-0.304-0.667-0.587-1.345-0.851-2.032C53.143,130.054,53.427,130.73,53.729,131.398z"/>
				<path fill="#FFFFFF" d="M55.02,133.982c-0.4-0.726-0.774-1.468-1.127-2.222C54.245,132.515,54.619,133.257,55.02,133.982z"/>
				<path fill="#FFFFFF" d="M51.812,126.125c-0.149-0.534-0.285-1.074-0.411-1.618C51.525,125.051,51.662,125.59,51.812,126.125z"/>
				<path fill="#FFFFFF" d="M52.754,129.048c-0.271-0.727-0.516-1.468-0.741-2.215C52.237,127.581,52.482,128.32,52.754,129.048z"/>
				<path fill="#FFFFFF" d="M119.352,134.158l-9.043,3.762l12.809-13.609c0.584-2.602,0.901-5.303,0.901-8.08
					c0-2.903-0.347-5.725-0.982-8.434c2.944-3.576,5.355-7.606,7.131-11.963l-11.616-7.32c0,0,9.327,1.299,13.475,1.786
					c0.449-1.687,0.807-3.41,1.064-5.167l-15.835-2.952l16.309-2.861c0.007-0.322,0.024-0.642,0.024-0.966
					c0-3.119-0.313-6.164-0.9-9.11c0.314,1.581,0.545,3.19,0.695,4.825l-18.462,3.572c0,0,13.974-6.673,17.76-8.437
					c-1.417-7.076-4.45-13.565-8.691-19.079L106.255,63.35l14.25-17.254c-1.646-1.697-3.417-3.272-5.306-4.703
					c0.602-0.479,1.201-0.993,1.782-1.545c2.244-2.128,16.902-15.667,6.569-24.334c-10.333-8.666-19,5.907-21.666,14.489
					c-0.462,1.486-0.927,2.788-1.379,3.938c-1.262-0.376-2.543-0.708-3.848-0.978l-0.041,0.287
					c-5.286,0.736-9.381,19.681-9.381,19.681s-4.095-18.944-9.381-19.681l-0.041-0.287c-1.316,0.272-2.608,0.606-3.881,0.987
					c-0.454-1.152-0.92-2.457-1.383-3.947c-2.666-8.582-11.333-23.155-21.666-14.489c-10.333,8.667,4.325,22.206,6.569,24.334
					c0.588,0.557,1.192,1.075,1.8,1.56c-1.881,1.427-3.646,2.997-5.286,4.688l14.25,17.254L50.483,50.125
					c0.528-0.688,1.077-1.357,1.643-2.013c-5.103,5.919-8.74,13.134-10.334,21.092c3.786,1.764,17.76,8.437,17.76,8.437
					L41.09,74.068c0.15-1.638,0.382-3.25,0.696-4.833c-0.588,2.949-0.901,5.997-0.901,9.118c0,0.324,0.018,0.644,0.024,0.966
					l16.309,2.861l-15.835,2.952c0.258,1.757,0.615,3.48,1.063,5.167c4.148-0.487,13.476-1.786,13.476-1.786l-11.616,7.32
					c-0.346-0.849-0.664-1.712-0.961-2.585c1.816,5.354,4.573,10.274,8.092,14.548c-0.636,2.71-0.982,5.53-0.982,8.434
					c0,2.644,0.285,5.22,0.814,7.706L64.43,137.92l-9.364-3.908c1.372,2.48,2.935,4.786,4.935,6.874v10.462l11.055,3.833l-11.055,2
					v10.323c2-3.684,5.67-6.215,10.079-6.215c3.631,0,6.921,1.721,8.921,4.384v-13.61c3,0.614,5.439,0.95,8.293,0.95
					c2.645,0,4.707-0.285,7.707-0.815v14.302c2-3.131,5.512-5.21,9.507-5.21c3.39,0,6.493,1.5,8.493,3.865v-7.974l-11.055-2
					L113,151.348v-8.563c-1,1.117-2.421,2.16-3.722,3.116l-4.479,0.579l8.742-4.543c0.15-0.154,0.295-0.312,0.442-0.468
					c0.998-1.057,1.937-2.167,2.805-3.337C117.727,136.868,118.579,135.539,119.352,134.158z M116.981,23.848
					c4.236,2-0.765,11.333-9.431,15.333C107.551,39.181,112.745,21.848,116.981,23.848z M100.865,73.635
					c4.056-0.146,7.46,3.024,7.605,7.079c0.146,4.056-3.023,7.461-7.081,7.606c-4.055,0.145-7.458-3.026-7.603-7.081
					C93.641,77.184,96.812,73.778,100.865,73.635z M57.454,23.848c4.236-2,9.431,15.333,9.431,15.333
					C58.219,35.181,53.218,25.848,57.454,23.848z M73.607,73.635c4.054,0.144,7.225,3.549,7.078,7.604
					c-0.145,4.055-3.548,7.226-7.603,7.081c-4.058-0.146-7.227-3.551-7.081-7.606C66.147,76.659,69.552,73.489,73.607,73.635z
					 M65.49,145.9c-1.729-1.272-3.337-2.693-4.817-4.24l9.281,4.819L65.49,145.9z M87.536,133.7
					c-24.318,0-28.615-14.517-28.615-20.053c0-14.398,17.294-20.771,28.615-20.771c11.319,0,28.615,6.372,28.615,20.771
					C116.151,119.184,111.853,133.7,87.536,133.7z"/>
				<path fill="#FFFFFF" d="M41.379,85.099c-0.133-0.909-0.234-1.828-0.312-2.754C41.146,83.27,41.246,84.189,41.379,85.099z"/>
				<path fill="#FFFFFF" d="M43.253,92.977c-0.291-0.872-0.56-1.755-0.799-2.649C42.693,91.222,42.963,92.104,43.253,92.977z"/>
				<path fill="#FFFFFF" d="M122.353,48.119c0.563,0.653,1.109,1.321,1.637,2.006C123.463,49.44,122.916,48.772,122.353,48.119z"/>
				<path fill="#FFFFFF" d="M120.515,46.106c0.596,0.614,1.173,1.246,1.734,1.893C121.688,47.353,121.11,46.721,120.515,46.106z"/>
				<path fill="#FFFFFF" d="M52.218,48.006c0.565-0.652,1.148-1.29,1.749-1.909C53.366,46.716,52.784,47.354,52.218,48.006z"/>
				<path fill="#FFFFFF" d="M41.05,82.117c-0.072-0.926-0.121-1.858-0.141-2.798C40.929,80.26,40.976,81.191,41.05,82.117z"/>
				<path fill="#FFFFFF" d="M131.127,93.253c-0.297,0.871-0.614,1.733-0.96,2.581C130.513,94.986,130.831,94.125,131.127,93.253z"/>
				<path fill="#FFFFFF" d="M132.017,90.331c-0.238,0.893-0.506,1.772-0.796,2.643C131.511,92.104,131.778,91.224,132.017,90.331z"
					/>
				<path fill="#FFFFFF" d="M133.563,79.319c-0.02,0.939-0.068,1.872-0.141,2.798C133.497,81.191,133.544,80.26,133.563,79.319z"/>
				<path fill="#FFFFFF" d="M133.405,82.345c-0.077,0.926-0.179,1.845-0.312,2.754C133.227,84.189,133.326,83.27,133.405,82.345z"/>
				<path fill="#414141" d="M93.787,81.239c0.145,4.055,3.548,7.226,7.603,7.081c4.058-0.146,7.227-3.551,7.081-7.606
					c-0.146-4.055-3.55-7.225-7.605-7.079C96.812,73.778,93.641,77.184,93.787,81.239z M101.062,78.512
					c1.447,0.051,2.579,1.266,2.528,2.713c-0.016,0.469-0.166,0.897-0.394,1.271c-0.422-1.16-1.433-2.144-2.965-2.197
					c-0.809-0.028-1.425,0.208-1.864,0.6C98.493,79.52,99.663,78.462,101.062,78.512z"/>
				<path fill="#FFFFFF" d="M103.196,82.495c0.228-0.373,0.378-0.802,0.394-1.271c0.051-1.447-1.081-2.662-2.528-2.713
					c-1.398-0.05-2.568,1.008-2.694,2.386c0.439-0.392,1.056-0.628,1.864-0.6C101.764,80.352,102.774,81.335,103.196,82.495z"/>
				<path fill="#414141" d="M73.083,88.32c4.055,0.145,7.458-3.026,7.603-7.081c0.146-4.056-3.024-7.461-7.078-7.604
					c-4.056-0.146-7.46,3.024-7.605,7.079C65.856,84.77,69.025,88.175,73.083,88.32z M73.411,78.512
					c1.398-0.05,2.568,1.008,2.694,2.386c-0.439-0.392-1.056-0.628-1.864-0.6c-1.532,0.054-2.543,1.037-2.965,2.197
					c-0.228-0.373-0.378-0.802-0.394-1.271C70.832,79.777,71.964,78.563,73.411,78.512z"/>
				<path fill="#FFFFFF" d="M74.241,80.298c0.809-0.028,1.425,0.208,1.864,0.6c-0.126-1.378-1.296-2.436-2.694-2.386
					c-1.447,0.051-2.579,1.266-2.528,2.713c0.016,0.469,0.166,0.897,0.394,1.271C71.698,81.335,72.709,80.352,74.241,80.298z"/>
				<path fill="#414141" d="M116.151,113.647c0-14.398-17.296-20.771-28.615-20.771c-11.321,0-28.615,6.372-28.615,20.771
					c0,5.536,4.297,20.053,28.615,20.053C111.853,133.7,116.151,119.184,116.151,113.647z M103.124,116.103
					c0.732,4.5-7.707,7.611-7.707,7.611C93.948,114.173,102.389,111.604,103.124,116.103z M71.317,116.103
					c0.734-4.499,9.177-1.93,7.707,7.611C79.024,123.714,70.586,120.603,71.317,116.103z"/>
				<path fill="#FFFFFF" d="M103.124,116.103c-0.735-4.499-9.176-1.93-7.707,7.611C95.417,123.714,103.856,120.603,103.124,116.103z
					"/>
				<path fill="#FFFFFF" d="M79.024,123.714c1.47-9.541-6.973-12.11-7.707-7.611C70.586,120.603,79.024,123.714,79.024,123.714z"/>
				<path fill="#414141" d="M57.454,23.848c-4.236,2,0.765,11.333,9.431,15.333C66.885,39.181,61.69,21.848,57.454,23.848z"/>
				<path fill="#414141" d="M116.981,23.848c-4.236-2-9.431,15.333-9.431,15.333C116.217,35.181,121.218,25.848,116.981,23.848z"/>
				<path fill="#414141" d="M87.236,52.931c0,0,4.095-18.944,9.381-19.681l0.041-0.287l2.245-15.532c0,0-4-4.917-11.667-4.917
					s-11.667,4.917-11.667,4.917l2.245,15.532l0.041,0.287C83.142,33.986,87.236,52.931,87.236,52.931z"/>
				<path fill="#414141" d="M55.922,88.514c0,0-9.327,1.299-13.476,1.786l0,0c0.003,0.009,0.006,0.018,0.008,0.027
					c0.239,0.895,0.508,1.777,0.799,2.649c0.03,0.091,0.061,0.182,0.092,0.272c0.297,0.873,0.615,1.736,0.961,2.585L55.922,88.514z"
					/>
				<path fill="#414141" d="M40.909,79.319L40.909,79.319L40.909,79.319c0.02,0.939,0.068,1.872,0.141,2.798
					c0.006,0.076,0.011,0.151,0.018,0.228c0.077,0.926,0.179,1.845,0.312,2.754c0.002,0.011,0.002,0.022,0.004,0.034l0,0
					l15.835-2.952L40.909,79.319z"/>
				<path fill="#414141" d="M59.552,77.641c0,0-13.974-6.673-17.76-8.437l0,0c-0.002,0.011-0.003,0.021-0.006,0.031
					c-0.314,1.583-0.546,3.195-0.696,4.833L59.552,77.641z"/>
				<path fill="#414141" d="M68.218,63.35l-14.25-17.254l0,0c0,0,0,0-0.001,0.001c-0.601,0.619-1.184,1.257-1.749,1.909
					c-0.031,0.036-0.062,0.071-0.092,0.106c-0.565,0.655-1.114,1.325-1.643,2.013L68.218,63.35z"/>
				<path fill="#414141" d="M130.167,95.834L130.167,95.834L130.167,95.834c0.346-0.848,0.663-1.71,0.96-2.581
					c0.031-0.094,0.063-0.187,0.094-0.279c0.29-0.87,0.558-1.75,0.796-2.643c0.003-0.011,0.007-0.021,0.01-0.031h-0.001
					c-4.147-0.487-13.475-1.786-13.475-1.786L130.167,95.834z"/>
				<path fill="#414141" d="M133.09,85.133L133.09,85.133c0.002-0.012,0.002-0.023,0.004-0.034c0.133-0.909,0.234-1.828,0.312-2.754
					c0.007-0.076,0.012-0.151,0.018-0.228c0.072-0.926,0.121-1.858,0.141-2.798l0,0l0,0l-16.309,2.861L133.09,85.133z"/>
				<path fill="#414141" d="M133.383,74.068c-0.15-1.635-0.381-3.244-0.695-4.825c-0.003-0.013-0.004-0.026-0.007-0.039l0,0
					c-3.786,1.764-17.76,8.437-17.76,8.437L133.383,74.068z"/>
				<path fill="#414141" d="M123.989,50.125L123.989,50.125L123.989,50.125c-0.527-0.685-1.074-1.353-1.637-2.006
					c-0.034-0.04-0.069-0.08-0.104-0.12c-0.562-0.646-1.139-1.278-1.734-1.893c-0.004-0.004-0.007-0.007-0.01-0.011l0,0
					l-14.25,17.254L123.989,50.125z"/>
				<polygon fill="#414141" points="60,151.348 60,157.181 71.055,155.181 				"/>
				<polygon fill="#414141" points="113,157.181 113,151.348 101.945,155.181 				"/>
				<path fill="#414141" d="M64.43,137.914l-13.161-13.98l-0.018-0.018c0.043,0.199,0.104,0.392,0.149,0.59
					c0.126,0.544,0.262,1.085,0.411,1.619c0.066,0.236,0.13,0.473,0.201,0.708c0.226,0.747,0.47,1.488,0.741,2.215
					c0.039,0.107,0.084,0.212,0.125,0.318c0.264,0.688,0.547,1.365,0.851,2.032c0.055,0.12,0.107,0.242,0.163,0.362
					c0.353,0.754,0.727,1.491,1.127,2.216c0.006,0.01,0.01,0.023,0.015,0.023h0.003L64.43,137.914z"/>
				<path fill="#414141" d="M60.673,141.66c1.48,1.547,3.089,2.968,4.817,4.24l4.464,0.579L60.673,141.66z"/>
				<path fill="#414141" d="M110.309,137.92l9.043-3.762l0.352-0.146c1.728-3.117,3.015-6.51,3.784-10.095l-0.37,0.394
					L110.309,137.92z"/>
				<path fill="#414141" d="M104.784,146.479l4.466-0.579c1.301-0.956,2.532-1.999,3.693-3.116c0.382-0.367,0.756-0.741,1.122-1.124
					l-0.531,0.276L104.784,146.479z"/>
			</g>
			<path opacity="0.3" fill="#FFFFFF" d="M130.62,145.134c-2.265,1.329-4.431,1.681-6.445,1.029
				c-2.815-0.909-5.386-3.727-7.389-8.031c4.542-6.119,7.232-13.695,7.232-21.901c0-2.903-0.347-5.725-0.983-8.434
				c2.945-3.576,5.355-7.606,7.132-11.963c0.346-0.848,0.663-1.709,0.96-2.581c0.031-0.094,0.063-0.187,0.094-0.279
				c0.289-0.87,0.559-1.75,0.797-2.643c0.002-0.011,0.006-0.021,0.009-0.031h-0.001c0.449-1.687,0.807-3.41,1.064-5.167
				c0.002-0.012,0.002-0.023,0.004-0.034c0.133-0.909,0.232-1.829,0.312-2.754c0.007-0.076,0.012-0.151,0.018-0.228
				c0.074-0.926,0.121-1.857,0.141-2.798c0.007-0.322,0.024-0.642,0.024-0.966c0-3.119-0.313-6.164-0.9-9.11
				c-0.002-0.013-0.004-0.026-0.007-0.039c-1.417-7.076-4.45-13.565-8.691-19.079h-0.001c-0.525-0.685-1.072-1.353-1.636-2.006
				c-0.034-0.04-0.069-0.08-0.104-0.12c-0.562-0.646-1.139-1.278-1.734-1.893c-0.003-0.004-0.007-0.007-0.01-0.011
				c-1.646-1.697-3.417-3.272-5.306-4.703c0.602-0.479,1.201-0.993,1.782-1.545c2.244-2.128,16.902-15.667,6.569-24.334
				c-10.333-8.666-19,5.907-21.666,14.489c-0.462,1.486-0.926,2.788-1.379,3.938c-1.262-0.376-2.543-0.708-3.848-0.978l2.245-15.532
				c0,0-3.876-4.743-11.293-4.902v140.475c2.513-0.026,4.965-0.301,7.333-0.806v14.302c-1.128,1.758-2,3.843-2,6.087V174h23v-1.414
				c0-2.85-1.26-5.445-3-7.432v-22.628c0.354-0.345,0.697-0.698,1.036-1.058c2.395,4.455,5.442,7.363,8.966,8.501
				c1.061,0.342,2.146,0.512,3.247,0.512c2.11,0,4.271-0.631,6.4-1.866c3.767,2.766,10.464-4.827,12.807-9.802
				C145.399,138.813,128.668,136.842,130.62,145.134z"/>
		</g>
	</g>
</g>
</svg>
